<?xml version="1.0" encoding="UTF-8" standalone="no"?>
<!DOCTYPE svg PUBLIC "-//W3C//DTD SVG 1.1//EN" "http://www.w3.org/Graphics/SVG/1.1/DTD/svg11.dtd">
<svg width="100%" height="100%" viewBox="0 0 100 100" version="1.1" xmlns="http://www.w3.org/2000/svg" xmlns:xlink="http://www.w3.org/1999/xlink" xml:space="preserve" xmlns:serif="http://www.serif.com/" style="fill-rule:evenodd;clip-rule:evenodd;stroke-linejoin:round;stroke-miterlimit:2;">
    <g id="_1" serif:id="1" transform="matrix(0.363092,0,0,0.363092,-9.52813,-4.68424)">
        <path d="M131.52,286.338C129.872,284.367 128.035,281.123 127.022,278.4C126.728,277.608 125.483,274.296 124.255,271.04C121.242,263.047 118.742,255.391 118.195,252.48C117.332,247.886 117.187,246.569 117.501,246.178C117.793,245.815 120.656,244.793 122.72,244.314C123.248,244.191 126.704,243.972 130.4,243.825C147.919,243.132 154.254,242.839 156.293,242.629L158.506,242.4L159.055,239.04C159.357,237.192 159.692,235.087 159.799,234.362L159.994,233.045L157.997,232.166C155.932,231.257 152.737,229.736 143.68,225.347C135.538,221.402 133.786,220.715 132.817,221.092C127.661,223.096 117.779,224.845 110.56,225.031C102.254,225.245 91.562,223.477 83.937,220.627C80.401,219.306 74.773,216.452 72.703,214.932C70.085,213.009 65.757,209.368 64.819,208.3C61.232,204.216 57.783,197.778 56.772,193.28C56.273,191.062 56.166,189.379 56.19,184.16C56.219,178.147 56.405,176.337 57.459,171.826C57.636,171.07 57.519,170.971 55.818,170.435C53.832,169.809 51.502,167.898 49.917,165.595C49.159,164.494 48.694,164.201 46.676,163.556C43.921,162.676 41.219,160.596 40.452,158.767C39.689,156.947 37.726,150.113 37.405,148.16C36.328,141.599 36.262,134.678 37.246,131.488C38.338,127.95 40.488,124.888 43.038,123.241C43.743,122.786 45.616,121.995 47.2,121.483C49.593,120.71 50.789,120.527 54.269,120.401C61.676,120.132 64.654,121.325 71.395,127.26C74.596,130.078 75.037,130.603 76.164,132.942C80.319,141.57 81.084,150.795 78.26,158.237C77.174,161.097 76.337,162.509 74.085,165.28C72.038,167.798 71.388,168.392 69.707,169.283C68.248,170.057 67.942,170.963 67.698,175.223C67.135,185.058 70.057,192.54 76.999,199.04C81.847,203.579 89.513,207.616 97.6,209.89C98.92,210.261 100.72,210.773 101.6,211.027C104.698,211.923 112.84,213.445 116.392,213.793C118.951,214.044 120.7,214.047 122.472,213.806C124.826,213.485 128.849,212.362 129.351,211.886C129.478,211.765 129.732,210.606 129.916,209.31C130.327,206.413 131.414,204.162 133.381,202.135C135.283,200.175 136.854,199.249 139.931,198.272C146.066,196.325 154.028,196.52 165.867,198.908C167.246,199.186 168.428,199.359 168.495,199.292C168.729,199.058 169.221,190.557 169.012,190.356C168.895,190.244 167.792,189.911 166.56,189.617C164.438,189.11 159.182,187.48 155.68,186.242C154.8,185.931 152.496,185.165 150.56,184.539C148.624,183.912 145.96,183.037 144.64,182.593C137.55,180.21 125.212,176.278 122.56,175.556C115.702,173.691 114.591,173.34 111.68,172.116C110.008,171.413 108.057,170.627 107.345,170.371C105.477,169.698 101.841,165.912 100.457,163.2C100.053,162.408 99.475,161.435 99.173,161.037C98.542,160.208 96.628,154.508 95.869,151.2C95.248,148.492 94.769,145.404 94.405,141.76C94.255,140.264 93.731,137.744 93.239,136.16C92.504,133.791 92.336,132.627 92.293,129.6C92.264,127.576 92.078,123.976 91.88,121.6C91.682,119.224 91.38,115.048 91.208,112.32C91.037,109.592 90.808,106.821 90.7,106.161C90.592,105.502 90.507,99.382 90.511,92.561C90.517,80.445 90.563,79.547 91.838,66.72C93.404,50.966 93.972,48.034 96.063,44.923C97.914,42.168 101.138,40.616 106.66,39.824C112.38,39.003 117.571,39.4 136.48,42.103C147.755,43.715 159.069,45.81 169.76,48.265C172.437,48.88 174.808,49.451 190.72,53.313C206.034,57.031 209.045,57.83 217.12,60.325C229.76,64.23 232.933,65.1 239.786,66.541C250.36,68.763 252.296,69.51 256.065,72.818C259.542,75.871 265.072,77.983 274.028,79.679C283.715,81.514 289.756,82.844 292.48,83.743L295.2,84.64L295.891,86.585C296.271,87.655 296.819,90.319 297.108,92.505C298.42,102.417 299.181,108.588 299.491,111.84C299.676,113.776 300.128,117.736 300.495,120.64C301.586,129.259 301.742,133.168 301.618,148.8C301.534,159.489 301.356,165.032 300.989,168.48C300.303,174.915 300.013,176.072 298.872,176.916C298.363,177.292 297.874,177.6 297.785,177.6C297.697,177.6 296.143,178.584 294.332,179.786C292.522,180.988 290.032,182.579 288.8,183.322C287.568,184.065 285.624,185.258 284.48,185.973C274.323,192.322 267.567,196.11 260.32,199.52C257.328,200.928 252.937,203.07 250.563,204.281C247.339,205.925 245.331,206.714 242.631,207.396C236.019,209.066 231.508,208.93 224.964,206.862C223.601,206.432 220.347,205.631 217.731,205.082C215.116,204.533 210.776,203.383 208.088,202.527C203.349,201.017 195.728,199.366 195.331,199.762C194.908,200.186 195.951,202.292 196.969,203.069C197.562,203.521 198.321,204.356 198.657,204.924C199.197,205.84 199.593,206.043 202.113,206.7C206.169,207.755 208.691,208.624 215.045,211.151C218.122,212.375 221.864,213.811 223.36,214.342C227.21,215.71 235.383,219.064 237.28,220.054C242.351,222.703 245.607,225.412 246.911,228.069C247.77,229.819 247.723,233.343 246.819,235.04C244.444,239.493 236.848,242.697 226.88,243.45C222.801,243.759 206.676,243.388 202.88,242.899C195.856,241.993 190.33,240.818 182.264,238.514C178.907,237.555 174.864,236.502 173.28,236.175C171.696,235.848 170.168,235.487 169.884,235.372C169.494,235.216 169.319,235.406 169.172,236.142C169.064,236.68 168.707,237.732 168.379,238.48C167.298,240.941 167.052,241.744 166.965,243.097L166.88,244.433L182.4,244.575C190.936,244.653 202.456,244.89 208,245.1C215.502,245.386 220.084,245.395 225.916,245.137L233.752,244.79L234.802,245.995C237.913,249.564 241.701,255.816 245.398,263.484C247.311,267.453 247.36,267.61 246.865,268.287C246.211,269.181 245.979,271.991 246.357,274.422C246.545,275.625 246.635,276.671 246.559,276.748C246.436,276.871 230.988,279.506 225.6,280.324C222.808,280.747 205.052,283.099 201.44,283.524C199.856,283.71 197.624,283.997 196.48,284.162C193.438,284.601 187.034,285.202 179.68,285.74C177.392,285.907 174.872,286.128 174.08,286.231C170.637,286.677 155.168,287.492 137.865,288.138L133.17,288.313L131.52,286.338ZM160.64,284.008C164.776,283.738 171.616,283.226 175.84,282.87C180.064,282.513 185.248,282.08 187.36,281.909C189.472,281.737 191.848,281.529 192.64,281.447C193.432,281.365 196.96,281.001 200.48,280.639C209.638,279.696 217.494,278.658 232.16,276.452C233.392,276.267 236.267,275.801 238.548,275.418C243.37,274.607 243.116,274.886 243.168,270.337C243.227,265.177 241.525,261.377 235.907,254.13C234.18,251.903 232.442,249.614 232.045,249.044L231.322,248.008L223.581,248.196C217.99,248.333 211.807,248.198 201.317,247.712C184.923,246.953 176.324,246.865 170.72,247.398C167.27,247.726 166.409,247.693 162.24,247.08C156.535,246.24 144.355,246.152 134.88,246.882C131.536,247.14 127.864,247.355 126.72,247.36C125.576,247.365 124.47,247.478 124.263,247.61C123.698,247.969 124.295,250.378 126.065,254.88C126.895,256.992 128.048,260.016 128.626,261.6C131.19,268.624 135.546,275.263 138.621,276.831C139.752,277.408 140.257,277.475 142.054,277.282C144.502,277.02 146.427,277.021 153.44,277.286C158.759,277.488 158.71,277.492 178.08,275.23C185.188,274.4 201.357,272.803 209.44,272.131C213.741,271.774 217.196,271.667 219.973,271.804C222.831,271.945 225.693,271.848 229.253,271.491C234.607,270.953 239.791,271.023 240.409,271.641C241.263,272.496 240.033,272.789 235.429,272.83C232.927,272.852 230.16,273.052 229.28,273.275C228.235,273.54 225.57,273.668 221.6,273.644C211.991,273.585 195.994,274.865 173.971,277.454C158.362,279.29 146.983,279.479 138.159,278.052L135.998,277.702L133.879,275.251C130.214,271.011 129.52,269.629 126.464,260.474C124.98,256.031 123.562,253.08 122.084,251.36L120.984,250.08L120.972,251.16C120.965,251.754 121.454,253.338 122.057,254.68C122.661,256.022 123.664,258.848 124.287,260.96C126.265,267.67 127.95,272.595 129.471,276.108C130.948,279.521 131.401,280.391 133.232,283.33L134.21,284.899L143.665,284.698C148.865,284.587 156.504,284.277 160.64,284.008ZM166.074,273.268C165.545,272.28 163.853,266.849 163.846,266.118C163.841,265.588 163.984,265.548 165.04,265.781C167.176,266.253 170.565,266.066 178.56,265.037C182.872,264.482 191.262,263.494 197.205,262.843L208.011,261.659L208.836,262.429C210.422,263.911 211.339,265.899 211.35,267.88C211.356,268.884 211.258,269.808 211.133,269.933C210.551,270.517 207.936,270.669 204.64,270.31C199.631,269.766 196.45,269.868 193.198,270.68C190.914,271.249 189.61,271.366 186.158,271.31C182.409,271.249 181.255,271.373 176.16,272.39C172.992,273.022 169.512,273.637 168.426,273.758C166.603,273.96 166.424,273.923 166.074,273.268ZM176.64,270.672C180.97,269.78 183.765,269.518 191.52,269.277C192.928,269.233 194.512,269.024 195.04,268.813C195.739,268.533 197.53,268.489 201.637,268.653C205.703,268.816 207.598,268.771 208.437,268.494C209.077,268.283 209.6,268.067 209.6,268.014C209.6,267.581 208.421,265.27 207.754,264.395C207.044,263.465 206.786,263.336 205.943,263.492C205.402,263.592 203.664,263.81 202.08,263.976C197.111,264.496 190.076,265.277 185.92,265.769C180.388,266.423 177.023,266.798 173.28,267.176C171.52,267.354 169.235,267.588 168.202,267.697L166.323,267.896L166.489,269.068C166.581,269.713 166.817,270.654 167.015,271.161L167.375,272.081L169.688,271.855C170.959,271.73 174.088,271.198 176.64,270.672ZM138.218,272.609C136.346,269.98 136.067,265.034 137.728,263.925C138.154,263.641 142.26,263.604 143.603,263.873C144.536,264.059 144.592,264.174 145.425,267.647C146.33,271.416 146.295,272.737 145.277,273.281C144.964,273.449 143.39,273.566 141.779,273.541C138.966,273.497 138.824,273.46 138.218,272.609ZM144.32,270.671C144.32,270.136 144.017,268.701 143.646,267.481L142.973,265.264L141.806,265.497C141.165,265.625 140.28,265.714 139.841,265.694C139.402,265.674 138.936,265.825 138.806,266.029C138.395,266.675 138.541,269.143 139.053,270.223C139.51,271.185 139.706,271.285 141.693,271.562C142.874,271.727 143.948,271.813 144.08,271.752C144.212,271.692 144.32,271.205 144.32,270.671ZM151.52,272.677C149.451,271.724 148.417,269.134 149.208,266.884C149.823,265.133 150.953,264.755 153.504,265.445C155.848,266.08 155.857,266.092 156.563,269.882L157.023,272.353L156.128,272.817C154.914,273.445 153.066,273.388 151.52,272.677ZM154.982,270.654C154.899,269.428 153.95,267.559 153.208,267.162C151.454,266.223 150.149,268.01 151.185,269.933C151.843,271.156 152.756,271.677 154.08,271.586C154.91,271.529 155.032,271.403 154.982,270.654ZM222.672,266.327C220.368,263.864 220.342,263 222.537,261.837C223.187,261.492 224.353,261.31 225.976,261.298C227.984,261.283 228.597,261.402 229.336,261.949C230.664,262.931 231.186,264.186 230.843,265.571C230.477,267.05 229.332,267.618 226.393,267.779L224.146,267.903L222.672,266.327ZM227.623,265.73C229.225,265.184 229.396,264.856 228.64,263.777C227.947,262.787 226.506,262.564 225.106,263.228C223.735,263.879 223.467,264.397 223.951,265.46C224.379,266.4 225.43,266.477 227.623,265.73ZM137.007,260.417C136.236,258.824 136.069,255.536 136.671,253.808C137.004,252.854 137.111,252.8 138.671,252.797C139.578,252.795 141.056,252.706 141.955,252.598C143.877,252.367 143.779,252.187 144.321,256.969C144.632,259.718 144.613,260.029 144.102,260.402C143.38,260.93 141.746,261.364 139.487,261.628L137.694,261.837L137.007,260.417ZM142.032,259.489C142.587,259.295 143.04,258.999 143.04,258.83C143.04,258.01 142.268,255.468 141.898,255.071C141.458,254.599 138.783,254.391 138.376,254.797C138.088,255.085 138.1,257.515 138.396,258.863C138.589,259.742 138.732,259.84 139.818,259.84C140.481,259.84 141.478,259.682 142.032,259.489ZM184.301,260.603C184.072,259.919 183.875,258.376 183.862,257.172L183.84,254.985L185.28,254.435C188.108,253.357 190.798,252.743 191.842,252.939L192.883,253.135L193.031,257.207C193.112,259.447 193.165,261.305 193.148,261.335C193.131,261.365 191.227,261.492 188.918,261.618L184.718,261.846L184.301,260.603ZM190.854,259.646C191.777,259.291 191.394,255.036 190.44,255.045C190.154,255.048 188.984,255.396 187.84,255.818L185.76,256.585L185.838,257.813C185.964,259.783 186.033,259.84 188.284,259.84C189.419,259.84 190.575,259.753 190.854,259.646ZM151.25,260.855C150.466,259.989 150.166,258.705 150.035,255.655L149.92,252.981L151.52,252.368C153.317,251.678 156.597,251.529 157.635,252.09C158.22,252.405 158.332,252.83 158.479,255.267C158.572,256.814 158.7,258.282 158.764,258.53C158.842,258.833 158.357,259.129 157.28,259.438C155.949,259.818 153.678,260.648 152.14,261.315C151.953,261.396 151.552,261.189 151.25,260.855ZM156.006,258.098C157.18,257.607 157.18,257.609 156.61,254.789C156.361,253.555 155.194,253.271 153.481,254.029C151.892,254.732 151.726,255.19 152.2,257.56C152.383,258.475 152.506,258.56 153.65,258.56C154.338,258.56 155.398,258.352 156.006,258.098ZM170.469,259.883C169.274,259.565 168.122,259.13 167.909,258.916C167.232,258.238 167.414,254.101 168.177,252.8L168.834,251.68L171.697,251.58C175.246,251.456 176.877,251.877 177.155,252.987C177.456,254.183 177.135,259.473 176.738,259.87C176.12,260.488 172.768,260.496 170.469,259.883ZM174.656,258.434C175.48,258.008 175.515,257.891 175.414,255.904C175.321,254.083 175.221,253.798 174.614,253.635C173.334,253.291 171.177,253.436 170.224,253.928C169.393,254.358 169.28,254.587 169.28,255.84C169.28,257.122 169.383,257.317 170.318,257.8C172.462,258.909 173.454,259.054 174.656,258.434ZM197.833,259.922C196.765,259.555 195.852,255.663 196.288,253.337C196.482,252.303 196.622,252.189 198.169,251.811C199.088,251.586 200.968,251.393 202.346,251.381C204.728,251.361 204.892,251.406 205.655,252.292C206.303,253.043 206.422,253.446 206.275,254.372C206.174,255.003 205.998,256.405 205.885,257.486L205.678,259.451L204.414,259.653C203.719,259.765 202.451,259.763 201.596,259.649C200.741,259.536 199.636,259.583 199.141,259.753C198.645,259.923 198.057,259.999 197.833,259.922ZM204.19,256C204.295,255.032 204.241,254.06 204.071,253.84C203.87,253.58 202.881,253.44 201.252,253.44C198.435,253.44 198.08,253.704 198.08,255.793C198.08,257.89 198.178,257.954 201.239,257.852L204,257.76L204.19,256ZM211.77,259.126C210.364,257.276 209.825,255.905 209.792,254.091L209.76,252.335L211.04,251.898C212.475,251.408 216.454,251.551 218.118,252.152C219.054,252.491 219.141,252.662 219.53,254.938C219.815,256.606 219.843,257.523 219.62,257.878C219.3,258.385 215.986,259.558 213.723,259.965C212.681,260.152 212.487,260.069 211.77,259.126ZM217.13,257.456C218.357,256.944 218.405,256.785 217.869,254.997L217.499,253.76L214.509,253.76C211.718,253.76 211.52,253.803 211.52,254.41C211.52,255.414 212.354,257.176 213.01,257.558C213.852,258.047 215.834,257.998 217.13,257.456ZM226.988,258.493C224.071,258.102 223.874,257.747 223.965,253.032C223.997,251.328 224.069,251.157 224.88,250.836C225.546,250.573 226.407,250.61 228.415,250.988C229.875,251.263 231.254,251.418 231.478,251.332C232.133,251.081 232.718,252.768 232.883,255.385L233.036,257.811L232.118,258.165C230.628,258.741 229.417,258.818 226.988,258.493ZM230.857,256.777C231.501,256.133 231.49,255.91 230.743,254.445C230.273,253.524 229.824,253.145 228.866,252.857C226.486,252.145 225.6,252.586 225.6,254.483C225.6,256.364 229.548,258.086 230.857,256.777ZM163.371,243.383C164.172,241.466 165.431,236.797 165.517,235.426C165.584,234.364 165.485,234.08 165.016,233.984C164.291,233.835 163.748,234.494 162.528,237.003C161.787,238.528 161.531,239.583 161.379,241.723L161.185,244.48L162.049,244.48C162.73,244.48 163.009,244.248 163.371,243.383ZM228.438,240.629C234.876,239.968 239.297,238.339 242.033,235.618C244.9,232.765 245.439,230.735 243.892,228.608C241.103,224.772 236.872,222.444 225.437,218.452C223.147,217.653 219.475,216.253 217.277,215.343C215.078,214.432 211.768,213.062 209.92,212.298C206.69,210.963 200.377,209.116 200.075,209.418C199.866,209.627 206.736,212.894 209.76,214.023C211.168,214.549 213.76,215.481 215.52,216.095C221.301,218.111 224.735,219.551 229.44,221.933C235.901,225.203 237.76,226.919 237.76,229.615C237.76,231.97 235.646,233.91 231.778,235.106C230.11,235.621 228.5,235.679 216,235.672C201.147,235.663 200.143,235.587 188.96,233.615C174.775,231.114 169.365,229.518 160.106,225.099C155.131,222.725 148.898,219.097 144.32,215.911C142.388,214.566 141.748,213.901 141.04,212.503C138.757,207.995 140.785,205.516 147.726,204.326C151.144,203.74 162.36,203.452 164.743,203.889C165.999,204.119 166.567,204.099 166.911,203.814C167.316,203.478 167.308,203.353 166.849,202.846C166.03,201.94 164.746,201.672 158.665,201.137C151.519,200.509 147.694,200.509 143.757,201.138C137.438,202.147 133.665,204.974 132.616,209.487C131.896,212.584 132.697,214.679 135.588,217.262C137.37,218.854 140.794,220.695 148.48,224.194C149.976,224.874 151.992,225.866 152.96,226.398C153.928,226.93 156.592,228.246 158.88,229.324C162.731,231.138 163.29,231.309 166.4,231.63C170.408,232.043 174.481,232.949 182.24,235.151C185.408,236.05 189.656,237.141 191.68,237.576C204.186,240.259 219.583,241.538 228.438,240.629ZM232.674,233.167C234.705,232.401 235.893,231.096 235.936,229.582C235.966,228.526 235.768,228.198 234.283,226.832C232.487,225.181 225.567,221.62 219.783,219.371C218.142,218.733 216.296,217.984 215.68,217.707C215.064,217.43 213.264,216.732 211.68,216.154C207.213,214.527 199.144,211.264 197.398,210.379L195.823,209.581L196.018,210.47C196.126,210.96 196.267,211.536 196.333,211.751C196.399,211.966 196.308,212.559 196.13,213.069C195.688,214.337 193.419,215.513 190.27,216.106C186.34,216.846 178.663,216.808 175.103,216.031C171.75,215.299 168.794,214.006 168.281,213.047C168.085,212.681 167.891,211.36 167.848,210.111C167.731,206.637 167.43,206.228 164.687,205.815C157.4,204.717 153.296,204.572 149.072,205.265C145.093,205.917 141.76,207.908 141.76,209.633C141.76,210.886 145.741,215.13 149.133,217.492C152.282,219.685 160.489,223.848 165.12,225.603C165.736,225.836 166.384,226.129 166.56,226.254C166.957,226.536 174.202,228.815 178.08,229.878C183.327,231.316 194.058,233.203 199.84,233.704C200.544,233.765 207.888,233.794 216.16,233.769C229.589,233.728 231.358,233.663 232.674,233.167ZM119.04,221.417C123.916,220.85 132.287,218.777 133.245,217.9C133.405,217.752 133.161,217.201 132.685,216.635C132.22,216.083 131.84,215.426 131.84,215.175C131.84,214.632 131.803,214.628 130.703,215.047C129.046,215.676 121.849,216.96 119.974,216.96C118.932,216.96 118.08,217.047 118.08,217.154C118.08,217.261 118.44,217.631 118.88,217.977C119.32,218.323 119.68,218.74 119.68,218.903C119.68,219.558 118.457,219.137 117.312,218.089C116.182,217.054 115.885,216.955 113.009,216.654C110.308,216.372 107.916,215.994 103.68,215.183C102.382,214.934 98.988,213.99 96,213.047C92.887,212.065 85.682,208.929 82.249,207.063C80.113,205.901 78.46,204.681 76.649,202.928C75.236,201.56 73.539,200.036 72.878,199.541C71.57,198.562 67.534,192.831 66.473,190.446C65.411,188.059 65.259,186.838 64.977,178.4C64.774,172.301 64.577,169.963 64.15,168.56C63.601,166.754 62.907,166.181 62.512,167.209C62.22,167.971 61.158,168.43 60.654,168.012C59.847,167.342 59.844,166.367 60.646,165.565C61.724,164.487 63.718,164.518 65.334,165.637C66.334,166.331 66.748,166.436 67.74,166.25C69.506,165.919 72.773,162.478 74.302,159.34C76.044,155.763 76.275,154.497 76.07,149.655C75.592,138.368 70.163,129.015 61.87,125.193C57.051,122.972 50.762,123.039 46.762,125.353C44.814,126.481 44.649,126.665 44.262,128.16C43.236,132.115 43.688,139.769 45.309,145.92C46.671,151.084 49.33,159.445 50.098,160.979C51.868,164.513 54.948,167.336 57.387,167.662C58.641,167.83 58.748,167.927 59.2,169.319C59.464,170.133 59.871,171.024 60.103,171.3C60.456,171.718 60.438,172.138 59.992,173.821C59.173,176.917 58.988,185.283 59.654,189.12C60.525,194.136 62.718,199.739 65.309,203.572C67.116,206.244 71.292,210.342 74.154,212.25C77.949,214.78 84.7,217.749 89.76,219.113C99.681,221.788 109.326,222.547 119.04,221.417ZM106.714,218.755C106.453,218.131 106.24,217.472 106.24,217.29C106.24,216.805 107.113,216.888 107.979,217.456C108.592,217.858 108.692,218.116 108.505,218.816C108.154,220.129 107.276,220.099 106.714,218.755ZM96.802,217.161C96.305,216.798 96.283,216.602 96.622,215.573C97.192,213.847 98.56,214.185 98.56,216.053C98.56,217.168 97.621,217.76 96.802,217.161ZM80.148,213.2C80.267,212.892 80.445,212.244 80.542,211.76C80.745,210.755 81.022,210.668 81.737,211.383C82.739,212.385 82.14,213.76 80.702,213.76C80.099,213.76 79.979,213.638 80.148,213.2ZM68.616,203.301C68.342,202.865 68.509,202.521 69.486,201.514C70.851,200.108 71.36,200.177 71.36,201.771C71.36,202.657 71.182,202.956 70.416,203.352C69.223,203.969 69.034,203.963 68.616,203.3L68.616,203.301ZM60.614,189.827C60.427,189.702 60.18,189.348 60.067,189.041C59.8,188.318 61.045,187.473 62.473,187.408C64.422,187.319 63.823,189.376 61.757,189.864C61.316,189.968 60.801,189.951 60.614,189.827ZM59.062,164.696C58.322,164.154 58.611,163.132 59.664,162.569C61.341,161.671 62.39,163.142 60.926,164.34C59.829,165.237 59.807,165.241 59.062,164.696ZM52.167,139.454C51.099,138.308 50.728,136.421 50.724,132.129C50.719,127.603 50.776,127.46 52.973,126.428C56.147,124.936 56.229,125.086 58.758,136.961C58.979,138.001 57.961,138.961 55.909,139.648C53.842,140.339 52.949,140.293 52.167,139.454ZM55.76,137.741C56.931,137.534 56.96,137.495 56.96,136.128C56.96,134.808 55.262,128.785 54.731,128.219C54.596,128.075 54.098,128.291 53.626,128.699C52.316,129.828 52.03,131.675 52.652,134.991C53.247,138.168 53.314,138.319 54.027,138.11C54.32,138.024 55.1,137.858 55.76,137.741ZM60.809,139.385C60.628,138.908 60.48,137.911 60.48,137.169C60.48,135.032 59.733,132.708 58.589,131.284C57.599,130.052 57.557,129.901 57.908,128.836C58.114,128.212 58.695,127.354 59.2,126.929C60.699,125.668 62.012,126.261 65.157,129.621C68.202,132.874 69.44,135.178 69.44,137.588C69.44,139.067 69.36,139.247 68.56,139.559C68.076,139.748 66.208,139.981 64.409,140.077L61.139,140.251L60.809,139.385ZM66.849,137.883C67.785,137.556 67.856,137.438 67.663,136.523C67.316,134.877 65.865,132.483 64.514,131.327C63.297,130.285 60.561,128.762 60.34,129.003C60.281,129.067 60.711,130.56 61.296,132.32C61.881,134.08 62.457,136.132 62.576,136.88L62.793,138.24L64.309,138.24C65.142,138.24 66.286,138.079 66.849,137.883ZM187.352,213.75C188.755,213.58 190.581,213.44 191.409,213.44C194.023,213.44 194.823,211.823 192.633,210.963C190.218,210.015 190.673,208 193.302,208C194.927,208 195.317,207.45 194.805,205.881C194.449,204.79 194.265,204.628 193.28,204.537C192.664,204.481 192.035,204.312 191.882,204.163C191.577,203.865 191.57,199.023 191.872,196.916L192.062,195.591L187.951,194.296C185.689,193.584 182.472,192.641 180.8,192.199C179.128,191.758 176.824,191.103 175.68,190.743C174.536,190.383 173.425,190.086 173.212,190.084C172.196,190.073 171.65,197.655 172.456,200.584C172.911,202.235 172.634,202.72 171.072,203.013C168.708,203.456 167.928,206.392 170.171,206.405C170.649,206.408 171.239,206.536 171.483,206.691C172.134,207.103 171.669,208.55 170.799,208.822C169.874,209.11 169.61,209.532 169.604,210.729C169.598,212.016 170.327,212.994 171.611,213.417C174.324,214.313 181.479,214.464 187.351,213.75L187.352,213.75ZM183.814,203.491C183.22,202.835 183.22,202.814 183.825,202.371C184.754,201.692 186.154,201.802 186.574,202.586C187.302,203.947 184.93,204.725 183.814,203.491ZM184.48,200.578C183.161,199.83 182.959,198.72 184.142,198.72C184.572,198.72 185.328,199.077 185.822,199.514C186.581,200.185 186.645,200.358 186.24,200.629C185.628,201.038 185.274,201.028 184.48,200.578ZM239.037,204.941C242.529,204.279 244.941,203.19 245.708,201.928C246.389,200.809 246.842,197.877 247.567,189.92C247.916,186.087 248.135,177.956 248.31,162.4C248.49,146.358 248.697,138.832 249.069,134.88C249.803,127.074 250.24,119.796 250.241,115.365C250.242,113.25 250.447,108.208 250.696,104.16C250.946,100.112 251.242,93.704 251.354,89.92C251.466,86.136 251.765,81.19 252.019,78.93C252.272,76.669 252.48,74.634 252.48,74.408C252.48,73.708 245.507,71.002 241.92,70.31C239.57,69.856 224.46,65.84 212.96,62.612C205.744,60.587 197.536,58.342 194.72,57.624C184.479,55.011 167.303,50.88 166.679,50.88C166.326,50.88 165.768,50.735 165.437,50.559C164.831,50.234 156.7,48.462 151.68,47.561C150.184,47.292 146.08,46.701 142.56,46.246C139.04,45.792 134.216,45.126 131.84,44.766C114.892,42.198 106.864,42.222 100.734,44.859C98.865,45.663 98.092,46.954 96.828,51.389C95.33,56.643 95.084,58.88 94.069,76.48C93.871,79.912 93.651,83.224 93.58,83.84C93.509,84.456 93.358,89.424 93.245,94.88C92.927,110.189 93.893,120.948 97.423,141.44C99.623,154.209 101.554,160.047 104.911,164.074C107.273,166.907 109.37,167.885 121.12,171.629C123.584,172.414 129.2,174.213 133.6,175.627C138,177.04 144.192,179.011 147.36,180.008C150.528,181.004 156,182.727 159.52,183.838C163.04,184.949 168.008,186.505 170.56,187.296C173.112,188.087 178.287,189.694 182.059,190.869C185.831,192.043 191.192,193.575 193.972,194.272C196.751,194.97 202.017,196.552 205.673,197.787C227.08,205.021 232.496,206.182 239.037,204.941ZM223.52,188.008C221.936,187.59 219.704,186.871 218.56,186.409C217.416,185.948 213.312,184.708 209.44,183.654C205.568,182.6 198.08,180.357 192.8,178.67C187.52,176.982 182.552,175.417 181.76,175.191C180.968,174.965 177.296,173.848 173.6,172.708C166.513,170.522 161.029,168.917 153.12,166.715C150.48,165.981 147.168,165.048 145.76,164.644C144.352,164.239 142.12,163.61 140.8,163.246C135.742,161.852 121.278,157.721 117.816,156.682C113.648,155.43 112.373,154.568 110.94,152.032C109.367,149.248 108.845,146.29 108.304,137.12C108.035,132.544 107.684,126.856 107.525,124.48C107.227,120.02 107.202,119.545 106.554,105.979C106.039,95.22 106.296,73.78 107.011,67.84C108.297,57.143 109.428,53.958 112.457,52.491C114.687,51.411 116.847,51.594 129.44,53.924C145.136,56.829 161.336,60.936 180.48,66.863C187.293,68.973 207.637,74.295 215.36,75.989C217.384,76.433 221.405,77.312 224.295,77.942C227.186,78.573 231.357,79.643 233.563,80.321C235.77,80.999 237.689,81.484 237.828,81.398C237.967,81.312 238.08,80.98 238.08,80.66C238.08,79.909 238.895,79.236 239.516,79.474C240.158,79.72 240.16,82.254 239.52,84.349C238.504,87.676 237.579,95.916 236.794,108.64C236.609,111.632 236.245,117.248 235.984,121.12C235.723,124.992 235.153,133.632 234.717,140.32C234.281,147.008 233.692,155.288 233.407,158.72C233.123,162.161 232.903,168.046 232.917,171.84C232.962,183.961 232.023,187.464 228.453,188.488C227.004,188.903 226.854,188.889 223.52,188.008ZM227.945,186.444C230.072,185.555 230.513,184.035 231.035,175.784C231.482,168.74 232.258,156.038 232.637,149.6C232.936,144.509 233.784,131.343 234.718,117.28C235.273,108.934 235.917,100.811 236.799,91.062C237.133,87.377 237.332,84.244 237.242,84.099C236.971,83.66 235.287,82.884 232.122,81.738C228.434,80.403 224.621,79.435 217.12,77.928C211.702,76.84 207.071,75.704 195.68,72.668C186.65,70.262 184.944,69.767 176.877,67.217C163.157,62.88 158.829,61.773 138.24,57.331C120.139,53.426 115.428,52.813 113.027,54.053C111.223,54.986 110.499,56.514 109.437,61.638C108.409,66.597 108.182,71.792 108.122,91.84C108.063,111.024 108.074,111.359 109.23,128.64C109.872,138.232 110.545,146.705 110.726,147.468C111.717,151.641 114.505,153.982 120.48,155.659C123.657,156.551 127.637,157.735 131.36,158.896C138.024,160.975 148.661,164.108 157.92,166.719C175.059,171.552 182.509,173.774 191.68,176.791C201.457,180.006 203.092,180.488 210.208,182.249C212.742,182.876 215.838,183.758 217.088,184.208C221.848,185.925 223.438,186.362 226.65,186.843C226.788,186.863 227.37,186.684 227.945,186.444ZM165.92,164.646C161.303,163.996 157.704,162.49 154.471,159.856C152.403,158.172 149.986,154.96 149.279,152.958C148.561,150.921 148.666,148.252 149.525,146.75C150.707,144.683 151.664,144.175 154.332,144.198C156.335,144.216 157.147,144.426 160.48,145.789L164.32,147.36L170.88,147.368C176.86,147.375 177.567,147.435 178.88,148.047C180.603,148.849 181.194,149.467 182.055,151.366C183.963,155.573 181.537,161.979 177.354,163.778C175.9,164.404 171.41,165.162 169.608,165.086C169.164,165.068 167.504,164.87 165.92,164.647L165.92,164.646ZM176.966,153.431C177.349,152.81 177.737,151.753 177.827,151.082C177.99,149.866 177.987,149.862 176.506,149.447C175.298,149.109 174.206,149.106 170.631,149.433C165.622,149.89 165.257,149.826 159.961,147.558C157.833,146.647 156.425,146.24 155.401,146.24C154.02,146.24 153.92,146.296 153.92,147.072C153.92,149.131 155.921,151.307 158.72,152.293C161.723,153.351 168.88,154.513 172.534,154.536L176.268,154.56L176.966,153.431ZM207.68,153.774C204.185,153.039 201.536,150.988 200.09,147.899C199.41,146.447 199.311,145.837 199.407,143.722C199.501,141.672 199.708,140.876 200.614,139.092C202.596,135.187 204.855,133.876 209.12,134.156C212.259,134.362 214.441,135.37 215.798,137.24C218.421,140.856 219.598,146.605 218.311,149.514C216.847,152.823 212.135,154.711 207.68,153.774ZM214.314,151.159C216.622,149.972 217.445,148.526 217.415,145.707C217.39,143.328 216.133,140.549 213.977,138.102L212.585,136.524L209.573,136.541C205.106,136.566 203.504,137.365 201.993,140.32C200.372,143.491 201.042,147.513 203.602,149.979C205.819,152.115 206.482,152.357 209.703,152.208C212.023,152.101 212.845,151.914 214.314,151.159ZM210.103,145.737C209.443,145.077 209.465,144.412 210.16,144.054C210.986,143.629 212.136,144.184 212.155,145.017C212.162,145.325 211.208,146.24 210.88,146.24C210.729,146.24 210.379,146.014 210.103,145.737ZM211.444,144.94C211.55,144.551 211.521,144.549 211.257,144.927C211.002,145.291 210.916,145.261 210.79,144.767C210.662,144.269 210.628,144.294 210.597,144.907C210.557,145.708 211.229,145.735 211.444,144.94ZM207.44,143.148C206.77,142.878 206.993,142.088 207.849,141.698C208.391,141.451 208.763,141.435 208.979,141.651C209.43,142.102 208.978,143.115 208.422,142.902C208.17,142.805 208.054,142.868 208.162,143.044C208.369,143.378 208.104,143.416 207.44,143.148ZM129.92,138.605C128.619,138.324 124.531,135.709 122.999,134.178C120.97,132.149 120.788,128.993 122.494,125.418C125.755,118.586 131.439,117.057 136.705,121.594C139.116,123.67 140,125.775 140,129.44C140,131.961 139.869,132.642 138.945,134.908C138.046,137.113 137.723,137.575 136.761,138.034C135.482,138.644 131.602,138.968 129.92,138.605ZM135.234,136.807C136.711,136.189 137.481,135.241 138.076,133.302C138.73,131.169 138.685,129.11 137.929,126.674C137.145,124.143 135.733,122.374 134.146,121.933C132.381,121.443 129.389,121.527 128.285,122.098C125.348,123.617 123.209,126.856 123.203,129.792C123.197,132.879 126.029,135.544 130.634,136.784C132.839,137.377 133.855,137.382 135.234,136.807ZM129.741,130.742C129.236,130.369 129.196,130.206 129.529,129.869C130.02,129.37 130.981,129.85 131.143,130.674C131.271,131.322 130.573,131.356 129.741,130.741L129.741,130.742ZM131.974,128.931C131.234,128.114 131.679,127.246 132.912,127.099C133.665,127.009 133.76,127.106 133.76,127.967C133.76,129.302 132.785,129.828 131.974,128.931ZM133.119,128.48C133.265,128.569 133.347,128.39 133.301,128.082C133.256,127.773 133.089,127.574 132.929,127.641C132.77,127.707 132.456,127.832 132.232,127.918C131.906,128.043 131.904,128.172 132.22,128.552C132.478,128.863 132.658,128.905 132.736,128.673C132.801,128.477 132.974,128.39 133.119,128.48ZM129.627,126.417C129.093,126.086 130.051,125.12 130.914,125.12C131.43,125.12 131.485,125.228 131.22,125.722C130.828,126.454 130.16,126.746 129.627,126.417ZM251.52,200.061C255.725,198.328 264.71,193.927 268.776,191.61C270.637,190.549 272.925,189.263 273.861,188.753C275.663,187.77 277.976,186.375 286.24,181.289C289.056,179.556 292.368,177.538 293.6,176.805C296.62,175.008 297.08,174.239 297.761,169.852C298.216,166.926 298.282,165.177 298.112,160.64C297.997,157.56 297.838,154.32 297.759,153.44C297.68,152.56 297.54,146.8 297.447,140.64C297.267,128.702 296.337,110.323 295.532,102.78C295.019,97.972 294.028,91.824 293.331,89.122L292.919,87.523L290.06,86.836C288.487,86.457 285.472,85.759 283.36,85.284C269.682,82.205 262.84,80.088 256.935,77.108C255.903,76.586 255.002,76.16 254.934,76.16C254.865,76.16 254.729,76.936 254.632,77.884C254.534,78.832 254.225,80.05 253.945,80.591C253.629,81.203 253.386,82.697 253.303,84.547C253.23,86.182 253.008,90.328 252.812,93.76C252.615,97.192 252.449,100.288 252.443,100.64C252.437,100.992 252.293,103.8 252.123,106.88C251.953,109.96 251.679,115.864 251.516,120C251.352,124.136 251.08,129.32 250.91,131.52C250.74,133.72 250.447,143.728 250.259,153.76C249.574,190.262 249.342,194.7 247.801,200.843C247.633,201.512 247.684,201.661 248.032,201.51C248.278,201.402 249.848,200.75 251.52,200.061ZM287.311,122.846C286.348,122.485 286.259,122.225 285.732,118.24C285.248,114.574 285.346,108.069 285.932,105.005C286.181,103.702 286.308,102.51 286.214,102.358C286.119,102.205 286.202,102.08 286.398,102.08C286.593,102.08 286.904,101.648 287.088,101.12C287.39,100.253 287.557,100.16 288.805,100.16C291.294,100.16 291.175,99.852 291.263,106.511C291.363,114.108 291.225,120.485 290.928,121.92C290.714,122.958 290.604,123.045 289.429,123.102C288.731,123.137 287.778,123.021 287.311,122.846ZM289.394,120.8C290.186,120.008 290.361,116.941 289.913,111.68C289.681,108.952 289.517,105.658 289.549,104.359L289.606,101.998L288.883,102.47C288.485,102.729 287.886,103.718 287.551,104.671C286.223,108.44 287.041,121.28 288.609,121.28C288.777,121.28 289.13,121.064 289.394,120.8ZM280.16,122.577C278.293,121.813 277.605,119.655 277.868,115.379C277.976,113.609 278.203,111.436 278.371,110.551C278.539,109.665 278.761,107.721 278.865,106.231C279.2,101.399 279.415,100.027 280.019,98.843C280.676,97.554 281.148,97.28 282.707,97.28C284.449,97.28 284.602,97.749 284.363,102.33C284.246,104.569 284.016,108.056 283.853,110.08C283.69,112.104 283.549,115.443 283.538,117.499C283.516,122.127 283.276,122.887 281.848,122.86C281.272,122.849 280.512,122.722 280.16,122.577ZM281.701,119.12C282.215,114.199 282.592,106.634 282.501,103.04L282.4,99.04L281.741,99.699C280.938,100.502 280.463,103.48 279.933,111.04C279.391,118.76 279.427,119.661 280.303,120.371C280.704,120.695 281.138,120.96 281.27,120.96C281.401,120.96 281.595,120.132 281.701,119.12ZM271.9,120.528C270.524,117.916 270.476,114.013 271.715,105.44C271.893,104.208 272.166,101.658 272.321,99.773C272.477,97.887 272.76,96.053 272.951,95.696C273.358,94.936 274.549,94.567 275.68,94.851L276.48,95.052L276.484,99.126C276.489,104.782 275.795,120.104 275.52,120.417C275.396,120.559 274.65,120.868 273.863,121.105L272.431,121.536L271.9,120.528ZM274.104,117.592C274.435,116.799 274.627,114.685 274.748,110.472C275.023,100.991 275.055,96.639 274.851,96.64C274.237,96.641 272.974,105.197 272.745,110.908C272.467,117.858 272.966,120.315 274.104,117.592ZM47.729,159.76C47.567,159.452 46.772,157.256 45.962,154.88C43.57,147.867 42.215,141.348 41.754,134.64C41.637,132.924 41.422,131.52 41.277,131.52C40.338,131.52 39.687,141.782 40.282,147.2C40.692,150.942 41.418,154.412 42.179,156.267C42.977,158.215 45.588,160.149 47.611,160.291C47.903,160.312 47.937,160.157 47.729,159.76ZM28.071,129.877C26.138,128.435 25.686,125.713 26.96,123.19C27.891,121.347 29.426,120.32 31.247,120.32C32.622,120.32 32.64,120.334 32.64,121.424C32.64,122.032 32.417,123.364 32.145,124.384C31.873,125.405 31.564,127.212 31.459,128.4L31.267,130.56L30.114,130.55C29.46,130.544 28.575,130.252 28.071,129.877ZM30.193,125.867C30.307,124.518 30.322,123.335 30.225,123.238C29.89,122.903 28.957,123.73 28.393,124.862C27.937,125.776 27.894,126.18 28.173,126.914C28.528,127.848 29.006,128.306 29.633,128.315C29.842,128.318 30.07,127.322 30.193,125.867ZM69.92,119.941C69.568,119.743 68.692,119.047 67.973,118.393C67.254,117.739 66.138,117.03 65.493,116.818C64.504,116.491 64.32,116.286 64.32,115.51C64.32,114.166 64.962,112.976 65.966,112.456C68.077,111.364 69.525,112.227 71.207,115.577L72.338,117.832L71.769,118.978C71.119,120.288 70.818,120.444 69.92,119.941ZM69.76,116.944C69.76,116.41 68.7,114.849 68.132,114.545C67.27,114.084 66.432,114.388 66.791,115.03C67.297,115.934 69.76,117.522 69.76,116.944ZM33.182,114.394C32.17,113.126 31.058,110.84 31.047,110.007C31.034,109.009 32.578,108.322 34.7,108.381C37.098,108.448 38.4,108.909 38.4,109.691C38.4,110.014 38.611,110.557 38.87,110.899C39.64,111.917 39.484,112.64 38.493,112.64C37.875,112.64 37.247,113.053 36.304,114.08C35.577,114.872 34.779,115.52 34.531,115.52C34.283,115.52 33.676,115.013 33.182,114.394ZM35.997,112.003C36.501,111.477 36.819,110.952 36.704,110.837C36.37,110.503 33.28,110.289 33.281,110.599C33.283,111.049 34.525,112.96 34.815,112.96C34.961,112.96 35.493,112.53 35.997,112.003Z" style="fill:white;fill-rule:nonzero;"/>
    </g>
</svg>
