<?xml version="1.0" encoding="UTF-8" standalone="no"?>
<!DOCTYPE svg PUBLIC "-//W3C//DTD SVG 1.1//EN" "http://www.w3.org/Graphics/SVG/1.1/DTD/svg11.dtd">
<svg width="100%" height="100%" viewBox="0 0 1000 1000" version="1.1" xmlns="http://www.w3.org/2000/svg" xmlns:xlink="http://www.w3.org/1999/xlink" xml:space="preserve" xmlns:serif="http://www.serif.com/" style="fill-rule:evenodd;clip-rule:evenodd;stroke-linejoin:round;stroke-miterlimit:2;">
    <g transform="matrix(0.333668,0,0,0.333668,-44.079,-16.4501)">
        <g id="Image">
            <path id="path66" d="M1554.33,2830.47C1483.63,2825.48 1412.98,2815.2 1345.71,2800.12C1246.64,2777.91 1146.75,2741.27 1047.21,2690.64C1007.22,2670.29 983.169,2656.44 920.646,2617.72C900.935,2605.51 842.668,2561.48 807.599,2532.29C751.413,2485.53 677.656,2410.35 631.387,2352.69C623.261,2342.56 615.199,2334.28 613.471,2334.28C611.744,2334.28 589.872,2339.87 564.869,2346.7C505.077,2363.03 496.228,2364.75 472.165,2364.75C405.283,2364.75 343.235,2326.03 314.763,2266.52C310.454,2257.51 295.79,2207.73 280.352,2149.69C265.556,2094.07 250.126,2036.56 246.064,2021.89C242.002,2007.23 236.991,1987.8 234.929,1978.72C232.867,1969.64 230.525,1960.5 229.725,1958.4C228.445,1955.05 186.889,1800.69 171.607,1742.53C168.488,1730.66 159.245,1696.01 151.067,1665.53C139.313,1621.72 136.896,1609.67 139.529,1608.05C142.141,1606.43 141.619,1604.31 137.117,1598.22C131.746,1590.95 131.461,1588.66 132.735,1563C133.834,1540.84 135.613,1531.43 141.957,1514.2C146.28,1502.46 151.594,1490.14 153.765,1486.83C155.937,1483.51 156.911,1479.4 155.931,1477.7C154.951,1475.99 155.008,1475.37 156.058,1476.31C157.109,1477.25 162.789,1472.11 168.682,1464.88C174.575,1457.65 180.413,1452.11 181.657,1452.56C182.9,1453.01 184.766,1451.09 185.802,1448.29C186.838,1445.49 193.405,1438.68 200.395,1433.15C207.385,1427.63 212.308,1422.22 211.335,1421.14C210.362,1420.06 210.853,1419.91 212.425,1420.81C213.998,1421.7 221.998,1419.13 230.203,1415.08C238.408,1411.02 269.693,1401.14 299.725,1393.12C329.757,1385.1 355.583,1377.29 357.117,1375.77C358.651,1374.25 361.31,1363.29 363.027,1351.42C380.038,1233.76 417.778,1114.52 478.175,987.609C486.651,969.8 495.11,955.228 496.973,955.228C500.227,955.228 501.379,952.255 500.592,945.891C500.037,941.399 535.878,879.966 562.562,839.673C601.631,780.678 641.179,730.218 691.177,675.566C703.467,662.133 712.989,650.419 712.338,649.534C711.686,648.65 711.879,648.462 712.766,649.116C713.653,649.77 727.653,637.618 743.877,622.112C760.101,606.606 787.09,582.509 803.852,568.564C820.614,554.619 835.471,541.813 836.868,540.107C838.264,538.401 840.55,536.534 841.947,535.958C843.344,535.382 855.344,526.795 868.614,516.876C930.629,470.52 986.076,436.977 1065.44,397.803C1157.62,352.303 1234.52,324.156 1328.3,301.591C1389.44,286.877 1469.62,273.37 1474.33,276.988C1475.73,278.061 1479.47,279.576 1482.64,280.354C1487.03,281.428 1488.25,280.764 1487.72,277.591C1487.16,274.223 1490.22,273.051 1503.53,271.537C1551.31,266.107 1665.03,262.523 1678.14,266.035C1681.72,266.995 1683.91,269.591 1684.01,272.985C1684.17,278.319 1684.21,278.314 1686.47,272.689C1689.31,265.63 1695.14,265.458 1750.8,270.79C1809.62,276.424 1835.3,280.537 1925.12,298.704C1958.9,305.535 2048.19,333.575 2095.41,352.18C2149.44,373.468 2274.8,434.752 2279.34,442.096C2280.02,443.199 2275.17,446.112 2268.56,448.57C2261.96,451.028 2255.41,454.087 2254.01,455.369C2252.62,456.65 2259.15,454.811 2268.53,451.281L2285.58,444.863L2300.27,453.72C2321.19,466.331 2327.39,471.564 2325.33,474.887C2324.09,476.903 2322.1,477.009 2318.78,475.235C2312.24,471.73 2311.06,472.028 2312.87,476.733C2313.94,479.528 2316.67,480.447 2321.71,479.708C2327.99,478.786 2328.78,479.324 2327.42,483.6C2326.51,486.484 2326.87,487.932 2328.28,487.057C2329.62,486.229 2334.91,487.688 2340.03,490.299C2345.15,492.91 2351.51,494.479 2354.16,493.786C2358.55,492.637 2375.75,502.902 2394.89,518.1C2398.35,520.842 2402.24,522.426 2403.54,521.621C2404.84,520.816 2405.16,521.357 2404.26,522.824C2403.35,524.29 2404.51,526.218 2406.83,527.109C2412.1,529.129 2408.65,532.806 2400.04,534.35C2396.55,534.976 2399.68,535.645 2407.01,535.835C2417.33,536.103 2421.03,537.32 2423.49,541.26C2425.23,544.054 2428.09,546.339 2429.84,546.339C2431.59,546.339 2434.44,548.625 2436.19,551.419C2437.93,554.212 2440.35,556.498 2441.56,556.498C2442.77,556.498 2448.27,560.074 2453.79,564.446C2463.66,572.266 2463.73,572.438 2458.17,575.239C2455.05,576.805 2452.01,579.578 2451.41,581.402C2450.56,583.997 2452.29,583.895 2459.38,580.934L2468.44,577.149L2481.86,588.918C2489.24,595.391 2503.3,608.173 2513.09,617.323C2522.89,626.472 2534.32,637 2538.49,640.717C2542.66,644.434 2553.33,655.576 2562.19,665.477C2571.06,675.378 2579.52,682.732 2581,681.818C2582.63,680.808 2582.93,681.379 2581.76,683.278C2579.53,686.873 2590.04,699.318 2593.49,697.184C2594.72,696.424 2595.41,696.933 2595.03,698.314C2594.64,699.695 2598.61,705.998 2603.85,712.32C2614.55,725.227 2615.64,728.047 2608.46,724.207C2601.9,720.695 2600.68,720.881 2600.68,725.387C2600.68,728.078 2603.47,729.226 2610.2,729.296C2618.53,729.383 2620.8,730.859 2628.28,741.021C2634.47,749.427 2635.98,753.181 2633.73,754.573C2631.37,756.031 2631.33,756.945 2633.59,758.34C2635.23,759.353 2637.26,759.493 2638.1,758.652C2638.94,757.81 2641.44,758.714 2643.65,760.659C2647.11,763.712 2652.7,762.824 2684.49,754.161C2707.91,747.778 2725.24,744.42 2732.11,744.934C2738.04,745.378 2742.9,744.876 2742.9,743.818C2742.9,742.76 2741.47,741.814 2739.73,741.716C2737.98,741.617 2741.12,739.747 2746.71,737.559C2760.22,732.268 2812.5,731.654 2831.79,736.559C2883.87,749.808 2930.85,790.297 2950.45,838.833C2953.66,846.775 2963.21,879.356 2971.67,911.235C2980.13,943.114 2998.88,1013.2 3013.33,1066.97C3027.78,1120.75 3048.36,1197.89 3059.06,1238.4C3076.99,1306.32 3104.87,1409.07 3111.08,1430.13C3114.82,1442.84 3114.82,1442.85 3102.45,1442.85C3096,1442.85 3089.62,1444.42 3087.51,1446.54C3085.48,1448.57 3083.36,1449.99 3082.78,1449.71C3082.21,1449.43 3083.92,1451.2 3086.57,1453.64C3089.91,1456.72 3095.58,1458.09 3104.97,1458.09C3118.45,1458.09 3118.55,1458.15 3121.38,1467.61C3127.54,1488.19 3130.23,1514.07 3128.65,1537.45C3127.85,1549.29 3126.82,1552.05 3123.22,1552.05C3120.77,1552.05 3118.77,1553.2 3118.77,1554.59C3118.77,1555.99 3119.79,1557.13 3121.04,1557.13C3129.36,1557.13 3124.44,1583.96 3115.47,1587.58C3112.4,1588.82 3111.44,1589.9 3113.33,1589.99C3118.44,1590.23 3115.22,1600.08 3104.92,1615.72C3100.09,1623.07 3096.74,1630.06 3097.48,1631.26C3098.22,1632.47 3097.89,1633.17 3096.74,1632.84C3095.59,1632.5 3087.22,1639.71 3078.14,1648.86C3049.74,1677.48 3032.56,1685.58 2957.58,1705.68C2928.28,1713.53 2903.99,1720.28 2903.59,1720.68C2903.18,1721.09 2899.97,1739.02 2896.46,1760.54C2883.39,1840.49 2854.76,1943.63 2824.41,2020.03C2809.83,2056.72 2767.82,2143.33 2745.27,2183.16C2736.57,2198.53 2728.17,2213.39 2726.6,2216.18C2713.08,2240.26 2666.62,2306.64 2638.21,2342.48C2627.8,2355.6 2621.38,2365.86 2622.47,2367.63C2623.57,2369.4 2623.23,2369.94 2621.64,2368.96C2620.17,2368.05 2607.58,2380.16 2593.68,2395.87C2563.44,2430.04 2518.88,2475.93 2497.82,2494.6C2489.44,2502.02 2482.87,2508.99 2483.22,2510.08C2483.57,2511.16 2483,2511.77 2481.95,2511.42C2480.9,2511.08 2466.9,2521.74 2450.84,2535.12C2373.43,2599.6 2292.58,2652.55 2206.88,2694.89C2178.55,2708.89 2170.02,2712.11 2167.26,2709.81C2164.48,2707.51 2164.05,2707.7 2165.2,2710.72C2166.32,2713.62 2160.36,2717.18 2140.5,2725.45C2126.11,2731.44 2108.62,2738.89 2101.63,2742.01C2075.34,2753.73 2020.44,2771.35 2014.71,2769.91C2010.76,2768.92 2008.93,2769.59 2008.93,2772.02C2008.93,2778.33 1917.84,2801.65 1844,2814.25C1774.93,2826.03 1728.92,2829.87 1647.03,2830.68C1603.73,2831.11 1562.01,2831.02 1554.33,2830.47L1554.33,2830.47ZM1497.18,2778.72C1496.32,2777.32 1493.68,2776.2 1491.32,2776.22C1487.62,2776.25 1487.55,2776.6 1490.84,2778.72C1495.81,2781.93 1499.17,2781.93 1497.18,2778.72ZM1757.5,2775.26C1882.56,2759.34 1980.86,2734.8 2086.04,2693.24C2154.61,2666.15 2259.54,2613.4 2256.06,2607.77C2255.2,2606.38 2255.75,2606.01 2257.28,2606.96C2263.9,2611.05 2389.65,2525.45 2385.91,2519.41C2385.16,2518.19 2386.07,2517.78 2387.94,2518.49C2389.8,2519.21 2393.59,2517.77 2396.35,2515.29C2399.11,2512.81 2406.72,2506.47 2413.26,2501.2C2457.34,2465.71 2534.91,2388.39 2579.45,2335.55C2599.01,2312.34 2641.12,2254.91 2660.47,2225.07C2669.97,2210.4 2678.1,2197.95 2678.52,2197.41C2678.94,2196.86 2681.06,2197.89 2683.24,2199.69C2686.7,2202.57 2686.9,2202.21 2684.85,2196.81C2682.89,2191.68 2684.81,2186.69 2696.44,2166.6C2712.24,2139.3 2748.39,2067.98 2760.51,2040.18C2784.58,1984.97 2813.1,1901.54 2826.66,1846.66C2836.86,1805.38 2850.44,1737.48 2848.81,1735.85C2848.36,1735.39 2841.77,1736.7 2834.17,1738.76C2826.58,1740.81 2785.5,1751.76 2742.9,1763.08C2700.3,1774.4 2655.15,1786.45 2642.58,1789.85C2630.01,1793.25 2600.87,1801.05 2577.82,1807.19C2518.87,1822.88 2374.76,1861.41 2350.74,1867.9L2330.65,1873.32L2316.91,1899.99C2250.81,2028.34 2142.28,2142.74 2016.55,2216.61C1957.17,2251.49 1882.52,2280.94 1807.83,2298.94C1704.72,2323.79 1580.29,2325.63 1475.6,2303.86C1383.71,2284.74 1283.7,2243.77 1212.12,2195.9L1188.05,2179.8L1176.27,2183.22C1169.79,2185.11 1153.63,2189.51 1140.36,2193C1127.09,2196.49 1075.09,2210.37 1024.8,2223.84C974.518,2237.32 916.804,2252.69 896.55,2258.02C876.296,2263.34 836.296,2274.04 807.661,2281.79C740.136,2300.06 699.983,2310.78 685.757,2314.33C679.471,2315.9 673.301,2318.12 672.046,2319.25C668.713,2322.27 734.54,2397.09 739.388,2395.8C740.829,2395.42 741.41,2396.07 740.68,2397.25C739.39,2399.34 767.689,2428.05 808.931,2466.49C836.329,2492.03 880.335,2527.42 882.279,2525.48C883.144,2524.61 883.852,2525.08 883.852,2526.52C883.852,2532.13 961.945,2585.38 1013.38,2614.84C1110.63,2670.55 1209.51,2711.61 1313.06,2739.3C1344.41,2747.68 1418.13,2763.82 1431.15,2765.15C1436.74,2765.72 1451.03,2767.78 1462.9,2769.74C1474.77,2771.69 1497.63,2774.51 1513.69,2776.02C1529.76,2777.52 1547.47,2779.2 1553.06,2779.75C1577.39,2782.14 1729.79,2778.79 1757.5,2775.26ZM1421.88,2649.13C1351.3,2631.77 1318.36,2586.3 1326.07,2516.86C1334.26,2443.07 1366.93,2401.41 1423.53,2392.59C1453.54,2387.92 1501.97,2396.36 1529.91,2411.12C1571.28,2432.99 1589.72,2469.14 1586.55,2522.21C1584.01,2564.89 1571.35,2598.93 1549.39,2622.14C1542.35,2629.59 1537.43,2636.62 1538.47,2637.77C1539.51,2638.91 1539.02,2639.08 1537.38,2638.15C1535.74,2637.21 1530.6,2638.64 1525.95,2641.33C1502.5,2654.92 1458.75,2658.2 1421.88,2649.13ZM1478.94,2588.42C1482.36,2587.12 1487.61,2582.62 1490.6,2578.41C1497.77,2568.35 1505.93,2536.19 1507.8,2510.65C1509.72,2484.48 1504.14,2469.62 1489.88,2462.85C1477.47,2456.96 1452.17,2452.71 1441.48,2454.71C1419.31,2458.87 1406.09,2493.39 1403.63,2553.49C1403.13,2565.8 1403.5,2574.6 1404.46,2573.05C1405.65,2571.12 1407.28,2571.52 1409.61,2574.32C1413.38,2578.88 1425.2,2585.45 1434.95,2588.41C1444.09,2591.19 1471.64,2591.2 1478.94,2588.41L1478.94,2588.42ZM1504.8,2415.55C1497.82,2412.55 1493.81,2412.55 1498.45,2415.55C1500.55,2416.9 1503.98,2417.95 1506.07,2417.87C1508.59,2417.78 1508.15,2416.99 1504.8,2415.55ZM1809.38,2645.51C1807.29,2639.32 1795.6,2590.9 1795.6,2588.42C1795.6,2586.8 1801.68,2585.7 1810.71,2585.7C1846.6,2585.7 1905.59,2574.22 1916.59,2565.09C1921.07,2561.37 1921,2552.43 1916.44,2546.19C1913.12,2541.65 1909.45,2541.27 1868.82,2541.26C1825.75,2541.26 1824.49,2541.11 1810.32,2534.15C1802.35,2530.23 1792.74,2523.38 1788.96,2518.91C1785.17,2514.44 1781.37,2510.99 1780.5,2511.24C1779.62,2511.49 1778.75,2509.77 1778.57,2507.43C1778.38,2505.08 1775.72,2496.31 1772.67,2487.93C1762.47,2459.93 1769.29,2430.86 1790.95,2410.05C1803.8,2397.71 1832.03,2383.91 1857.82,2377.38C1879.89,2371.79 1939.18,2365.26 1942.03,2368.11C1944.59,2370.68 1957.82,2424.09 1956.45,2426.34C1955.82,2427.39 1946.73,2428.24 1936.25,2428.24C1898.48,2428.24 1856.92,2438.39 1851.24,2448.99C1847.52,2455.94 1850.31,2465.49 1857.22,2469.44C1860.92,2471.56 1877.96,2473.15 1906.07,2474.02C1942.52,2475.15 1951.03,2476.17 1960.68,2480.61C1985.27,2491.93 1999.19,2516.33 1999.66,2548.95C2000.47,2605.47 1947.67,2636.25 1832.78,2646.23C1817.65,2647.54 1809.99,2647.31 1809.38,2645.51L1809.38,2645.51ZM1018.48,2482.95C980.293,2457.17 947.811,2436.78 946.293,2437.65C944.776,2438.51 944.374,2438.29 945.4,2437.16C946.426,2436.02 945.387,2433.72 943.094,2432.05C938.7,2428.83 942.272,2423.1 1018.05,2311.71C1030.77,2293.01 1040.46,2276.55 1039.59,2275.12C1038.71,2273.7 1039.05,2273.19 1040.34,2273.99C1041.64,2274.8 1049.28,2265.54 1057.32,2253.43C1065.36,2241.33 1074.04,2228.68 1076.6,2225.33L1081.27,2219.24L1112.72,2240.29C1130.02,2251.87 1144.49,2261.6 1144.89,2261.92C1145.28,2262.23 1139.28,2271.88 1131.55,2283.37C1123.81,2294.86 1118.24,2305.47 1119.16,2306.96C1120.08,2308.45 1119.76,2309.01 1118.46,2308.2C1115.77,2306.54 1077.95,2361.81 1078.49,2366.63C1078.68,2368.36 1078.05,2369.3 1077.1,2368.7C1075.64,2367.8 1059.5,2390.05 1042.84,2415.95L1038.49,2422.7L1076.09,2448.37C1123.04,2480.4 1121.59,2479.21 1121.54,2485.84C1121.51,2488.88 1120.81,2490.94 1119.98,2490.43C1119.15,2489.92 1112.35,2498.57 1104.86,2509.66C1097.37,2520.76 1090.49,2529.83 1089.57,2529.83C1088.65,2529.83 1056.66,2508.74 1018.48,2482.95ZM2215.05,2461.92C2202.41,2445.49 2183.37,2420.91 2172.73,2407.29C2161.28,2392.63 2154.91,2382.53 2157.11,2382.53C2159.59,2382.53 2160.39,2380.83 2159.51,2377.45C2158.78,2374.66 2157.21,2372.37 2156.02,2372.37C2154.83,2372.37 2154.51,2374.09 2155.31,2376.18C2159.29,2386.54 2149.49,2377.34 2130.9,2353.25C2119.55,2338.55 2109.19,2327.18 2107.88,2327.99C2106.57,2328.8 2106.07,2327.97 2106.77,2326.15C2107.47,2324.33 2102.22,2315.65 2095.11,2306.86L2082.18,2290.88L2088.09,2286.24C2091.35,2283.68 2113.44,2266.51 2137.18,2248.07C2160.93,2229.63 2180.05,2213.4 2179.66,2212C2179.28,2210.6 2179.96,2210.07 2181.18,2210.83C2184.51,2212.88 2204.77,2197.11 2202.83,2193.97C2201.84,2192.36 2202.37,2192.01 2204.14,2193.11C2205.89,2194.19 2214.03,2189.46 2223.74,2181.73C2232.89,2174.45 2241.25,2169.52 2242.32,2170.76C2243.4,2171.99 2251.47,2182.43 2260.26,2193.95C2273.86,2211.8 2275.74,2215.49 2272.94,2218.87C2270.27,2222.08 2204.51,2273.32 2185.62,2286.9C2180.86,2290.33 2180.91,2290.61 2187.47,2297.17C2191.18,2300.88 2194.4,2304.75 2194.63,2305.76C2194.86,2306.78 2196.71,2310.16 2198.76,2313.27C2203.47,2320.48 2202.06,2321.29 2249.96,2283.78L2289.08,2253.14L2306.98,2276.15C2325,2299.3 2328.34,2305.49 2322.83,2305.49C2320.13,2305.49 2294.88,2324.37 2258.02,2353.94C2250.45,2360.01 2242.89,2365.79 2241.21,2366.77C2237.15,2369.16 2233.87,2379.99 2237.2,2379.99C2238.63,2379.99 2240.9,2378 2242.26,2375.57C2243.63,2373.13 2245.18,2371.71 2245.71,2372.39C2246.24,2373.08 2250.42,2378.49 2254.99,2384.42L2263.3,2395.19L2285.32,2378.14C2297.43,2368.76 2307.91,2360.48 2308.61,2359.74C2309.31,2359.01 2321.44,2349.61 2335.56,2338.86L2361.24,2319.32L2374.29,2336.32C2381.46,2345.67 2389.78,2356.38 2392.78,2360.12L2398.22,2366.92L2390.88,2373.38C2386.84,2376.93 2382.51,2379.87 2381.27,2379.91C2380.02,2379.95 2375.73,2383.42 2371.72,2387.61C2367.72,2391.8 2363.77,2395.23 2362.96,2395.23C2362.14,2395.23 2348.72,2405.3 2333.14,2417.6C2317.55,2429.9 2296.8,2446.13 2287.03,2453.66C2277.25,2461.19 2262.22,2472.85 2253.64,2479.57L2238.02,2491.79L2215.05,2461.92ZM2283.22,2411.89C2283.22,2409.21 2278.34,2408.08 2276.89,2410.43C2276.02,2411.85 2277.08,2413.01 2279.26,2413.01C2281.43,2413.01 2283.22,2412.5 2283.22,2411.89ZM2174.01,2387.61C2174.01,2384.79 2172.32,2382.53 2170.2,2382.53C2165.93,2382.53 2165.76,2382.99 2167.93,2388.67C2170.11,2394.35 2174.01,2393.66 2174.01,2387.61ZM2540.18,2159.07C2473.1,2123.46 2373.02,2069.67 2355.14,2059.61L2341.99,2052.2L2349.4,2034.23C2381.8,1955.65 2425.66,1896.85 2459.9,1886.08C2482.83,1878.87 2506.87,1883.54 2531.55,1900.02C2554.08,1915.07 2567.66,1938.61 2567.66,1962.62C2567.66,1972.75 2565.49,1972.55 2618.45,1967.29C2638.71,1965.28 2660.25,1963.6 2666.32,1963.56L2677.35,1963.48L2670.63,1974.95C2666.94,1981.25 2664.72,1987.72 2665.7,1989.31C2666.69,1990.9 2666.43,1991.55 2665.13,1990.74C2663.83,1989.94 2656.72,2000.62 2649.33,2014.48L2635.89,2039.67L2547.43,2039.67L2541.04,2052.29C2537.52,2059.22 2534.65,2065.43 2534.65,2066.07C2534.65,2066.71 2550.12,2075.51 2569.03,2085.63C2587.94,2095.74 2602.43,2104.68 2601.23,2105.49C2600.03,2106.31 2591.35,2121.55 2581.94,2139.36C2572.53,2157.16 2564.62,2171.72 2564.35,2171.69C2564.07,2171.66 2553.2,2165.99 2540.18,2159.07L2540.18,2159.07ZM2491.31,2016.52C2506.12,1986.93 2504.68,1974.2 2485.46,1965.08C2473.82,1959.56 2463.06,1959.86 2455.36,1965.91C2449.38,1970.62 2430.52,2003.14 2430.52,2008.75C2430.52,2011.09 2474.95,2036.91 2479.25,2037.07C2480.21,2037.11 2485.64,2027.86 2491.31,2016.52ZM2021.63,2764.9C2021.63,2764.29 2020.49,2763.08 2019.09,2762.21C2017.69,2761.35 2016.55,2761.85 2016.55,2763.33C2016.55,2764.81 2017.69,2766.02 2019.09,2766.02C2020.49,2766.02 2021.63,2765.52 2021.63,2764.9ZM1994.88,2759.2C1999.81,2756.85 2003.85,2754.2 2003.85,2753.31C2003.85,2752.42 1997,2751.5 1988.61,2751.27C1980.23,2751.04 1973.38,2751.36 1973.38,2751.99C1973.38,2753.18 1983.97,2763.48 1985.2,2763.48C1985.59,2763.48 1989.94,2761.56 1994.88,2759.2ZM2090.2,2733.01C2090.2,2731.61 2089.13,2730.47 2087.81,2730.47C2086.5,2730.47 2084.72,2731.61 2083.85,2733.01C2082.99,2734.4 2084.06,2735.55 2086.24,2735.55C2088.42,2735.55 2090.2,2734.4 2090.2,2733.01ZM1048.93,2641.58C1043.96,2638.36 1040.6,2638.36 1042.58,2641.58C1043.44,2642.97 1046.08,2644.1 1048.45,2644.08C1052.15,2644.05 1052.21,2643.7 1048.93,2641.58ZM1020.92,2633.86C1016.13,2630.83 1013.38,2630.8 1013.38,2633.77C1013.38,2636.19 1021.31,2638.85 1023.46,2637.16C1024.12,2636.65 1022.98,2635.16 1020.92,2633.86L1020.92,2633.86ZM2355.6,2600.94C2356.46,2599.55 2356.03,2598.4 2354.63,2598.4C2353.23,2598.4 2351.38,2599.55 2350.52,2600.94C2349.66,2602.34 2350.09,2603.48 2351.49,2603.48C2352.89,2603.48 2354.74,2602.34 2355.6,2600.94ZM2382.26,2542.38C2382.26,2541.07 2381.12,2539.99 2379.72,2539.99C2378.33,2539.99 2377.18,2541.77 2377.18,2543.95C2377.18,2546.13 2378.33,2547.2 2379.72,2546.34C2381.12,2545.48 2382.26,2543.69 2382.26,2542.38ZM2476.23,2453.64C2476.23,2452.24 2475.09,2451.1 2473.69,2451.1C2472.3,2451.1 2471.15,2452.24 2471.15,2453.64C2471.15,2455.04 2472.3,2456.18 2473.69,2456.18C2475.09,2456.18 2476.23,2455.04 2476.23,2453.64ZM1734.64,2261.93C1779.43,2255.09 1846.34,2237.37 1888.42,2221.21C1928.56,2205.79 1972.51,2184.94 1979.41,2178.04C1981.68,2175.77 1983.53,2174.61 1983.53,2175.45C1983.53,2176.3 1985.85,2175.75 1988.68,2174.24C1991.52,2172.72 1993.17,2170.41 1992.36,2169.1C1991.53,2167.75 1992.79,2167.44 1995.25,2168.39C1998.44,2169.61 1999.05,2169.16 1997.53,2166.7C1996.26,2164.65 1996.44,2163.94 1997.97,2164.89C2003.37,2168.23 2076.42,2117.74 2073.36,2112.79C2072.3,2111.08 2072.81,2110.72 2074.68,2111.88C2078.6,2114.3 2093.91,2101.76 2131.33,2065.48C2158.65,2038.99 2203.73,1988.16 2201.82,1985.99C2201.38,1985.48 2204.22,1981.64 2208.14,1977.45C2220.84,1963.87 2264.63,1895.79 2262.21,1893.38C2261.41,1892.57 2180.83,1913.28 2171.54,1916.67C2169.35,1917.48 2168.82,1918.77 2170.27,1919.81C2171.63,1920.78 2172.86,1923.86 2173.01,1926.66C2173.15,1929.45 2174.1,1935.83 2175.11,1940.84C2176.82,1949.28 2175.86,1951.31 2161.96,1968.77C2138.37,1998.39 2140.38,1998.78 2130.91,1962.88C2126.39,1945.75 2122.38,1931.4 2122,1930.99C2121.4,1930.35 2087.39,1938.13 2085.79,1939.28C2085.46,1939.51 2087.39,1947.63 2090.07,1957.31C2104.15,2008.15 2108.06,2025.25 2106.64,2029.72C2105.78,2032.43 2096.91,2041.53 2086.92,2049.94L2068.76,2065.22L2062.25,2042.16C2058.67,2029.48 2054.86,2019.98 2053.79,2021.06C2052.72,2022.13 2052.55,2021.15 2053.42,2018.88C2055.36,2013.82 2039.68,1953.32 2036.43,1953.32C2035.15,1953.32 2026.69,1955.18 2017.64,1957.46C2004.61,1960.73 2001.45,1962.45 2002.48,1965.71C2005.16,1974.2 2036.38,2091.74 2036,2091.93C2035.78,2092.03 2026.16,2098.69 2014.62,2106.72C2001.39,2115.93 1994.3,2122.43 1995.42,2124.31C1996.41,2125.97 1995.3,2125.75 1992.91,2123.81C1988.02,2119.84 1987.11,2117.17 1991.59,2119.94C1993.48,2121.11 1994.06,2120.47 1993.18,2118.18C1992.43,2116.21 1983.49,2083.45 1973.31,2045.39C1959.32,1993.09 1953.85,1976.18 1950.92,1976.18C1942.23,1976.18 1917.31,1984.71 1918.3,1987.35C1918.88,1988.89 1923.6,2006.15 1928.79,2025.7C1933.98,2045.26 1942.71,2077.39 1948.18,2097.11C1956.56,2127.27 1960.14,2149.18 1956.02,2145.07C1955.45,2144.5 1947.16,2147.99 1937.58,2152.81C1928,2157.63 1919.15,2161.58 1917.91,2161.58C1915.15,2161.58 1907.28,2138.47 1898.45,2104.43C1890.45,2073.65 1871.85,2004.02 1870.49,1999.81C1869.77,1997.58 1865.07,1998.05 1852.53,2001.64C1843.19,2004.31 1835.03,2007.02 1834.39,2007.66C1833.75,2008.3 1835,2014.93 1837.17,2022.39C1844.81,2048.66 1876.37,2168.14 1877.25,2174.11C1878.06,2179.64 1876.24,2180.79 1855.76,2187.64C1843.45,2191.75 1833.06,2194.72 1832.68,2194.22C1832.3,2193.73 1826.17,2171.04 1819.05,2143.8C1792.89,2043.65 1787.3,2023.13 1785.7,2021.33C1784.35,2019.83 1749.88,2028.48 1749.88,2030.32C1749.88,2030.63 1760.17,2069.57 1772.74,2116.85C1785.31,2164.13 1795.6,2203.68 1795.6,2204.74C1795.6,2206.76 1750.4,2216.28 1748.74,2214.61C1748.21,2214.08 1744.94,2202.78 1741.46,2189.51C1716.59,2094.55 1703.32,2045.78 1701.95,2044.28C1700.38,2042.57 1670.3,2049.84 1667.54,2052.59C1666.77,2053.37 1670.55,2070.5 1675.95,2090.65C1697.24,2170.01 1709.25,2216.31 1709.25,2218.99C1709.25,2221.7 1687.3,2225.07 1669.69,2225.07C1659.93,2225.07 1662.9,2233.39 1636.63,2132.37C1627.18,2096.05 1619.22,2065.99 1618.93,2065.57C1617.31,2063.22 1582.26,2073.98 1582.26,2076.84C1582.26,2080.13 1587.63,2100.3 1609.15,2177.85C1615.32,2200.07 1620.36,2220.07 1620.37,2222.3C1620.38,2228.42 1573.1,2226.69 1569.92,2220.45C1568.72,2218.1 1560.54,2188.53 1551.74,2154.72C1542.94,2120.92 1534.9,2091.9 1533.87,2090.24C1531.55,2086.48 1498.45,2094.75 1498.46,2099.1C1498.46,2100.64 1501.39,2112.75 1504.96,2126.02C1508.54,2139.29 1514.88,2163.29 1519.07,2179.36C1523.26,2195.42 1527.26,2210.56 1527.98,2213.01C1528.92,2216.24 1527.82,2217.45 1523.92,2217.45C1516.29,2217.45 1479.75,2209.77 1477.65,2207.73C1476.68,2206.79 1469.96,2184.22 1462.72,2157.57L1449.54,2109.11L1433,2113.7C1423.9,2116.22 1415.88,2118.86 1415.17,2119.57C1414.46,2120.28 1418.05,2136.7 1423.15,2156.06C1428.25,2175.42 1432.42,2192.54 1432.42,2194.1C1432.42,2197.48 1378.87,2179.34 1377.65,2175.55C1377.2,2174.15 1374.38,2163.67 1371.39,2152.26L1365.94,2131.51L1354.11,2134.85C1347.59,2136.69 1339.15,2138.89 1335.35,2139.76C1329.14,2141.16 1328.69,2141.98 1330.91,2147.8C1334.44,2157.1 1334.39,2157.12 1323.23,2151.42L1313.08,2146.25L1287.11,2152.83C1272.83,2156.45 1259.76,2160.19 1258.06,2161.14C1254.09,2163.36 1291.38,2185.43 1322.72,2199.41C1335.72,2205.21 1347.61,2209.18 1349.15,2208.23C1350.75,2207.24 1351.22,2207.67 1350.25,2209.23C1348.46,2212.13 1379.99,2225.14 1415.96,2236.35C1448.75,2246.57 1497.4,2257.36 1530.2,2261.68C1546.96,2263.89 1564.11,2266.16 1568.3,2266.74C1589.06,2269.57 1706.94,2266.17 1734.64,2261.93ZM2100.36,2059.03C2100.36,2058.5 2102.36,2056.5 2104.8,2054.59C2108.83,2051.43 2108.92,2051.52 2105.76,2055.55C2102.45,2059.78 2100.36,2061.12 2100.36,2059.03ZM2215.05,1922.85C2215.05,1919.36 2215.62,1917.93 2216.33,1919.67C2217.03,1921.42 2217.03,1924.28 2216.33,1926.02C2215.62,1927.77 2215.05,1926.34 2215.05,1922.85ZM1332.21,2227.44C1333.13,2225.95 1333.29,2224.13 1332.55,2223.4C1330.56,2221.41 1320.68,2225.05 1320.68,2227.78C1320.68,2231.05 1330.15,2230.77 1332.21,2227.44ZM949.079,2173.8C948.268,2171.77 947.666,2172.38 947.544,2175.33C947.434,2178.01 948.034,2179.51 948.878,2178.67C949.722,2177.82 949.812,2175.63 949.079,2173.8L949.079,2173.8ZM1418.92,2156.02C1418.11,2154 1417.51,2154.6 1417.39,2157.56C1417.28,2160.23 1417.88,2161.73 1418.72,2160.89C1419.56,2160.05 1419.65,2157.86 1418.92,2156.02L1418.92,2156.02ZM574.213,2109.85C591.562,2105.14 630.328,2094.75 660.36,2086.75C690.391,2078.76 733.249,2067.3 755.598,2061.3C777.947,2055.3 812.233,2046.15 831.788,2040.97C851.344,2035.79 876.487,2028.96 887.661,2025.79L907.979,2020.02L907.979,2007.62C907.979,2000.81 906.682,1992.37 905.096,1988.88C903.511,1985.39 899.007,1961.22 895.087,1935.18C890.64,1905.63 886.949,1888.18 885.271,1888.78C882.347,1889.82 788.686,1917.85 741.63,1931.77C725.566,1936.52 706.993,1942.06 700.357,1944.08C693.72,1946.1 687.846,1947 687.304,1946.09C685.947,1943.81 677.825,1914 665.403,1865.7C659.654,1843.36 641.946,1775.93 626.05,1715.86C610.154,1655.8 593.549,1592.94 589.149,1576.18C584.749,1559.42 580.726,1545.27 580.208,1544.74C579.69,1544.2 572.656,1545.52 564.575,1547.66C485.641,1568.62 405.422,1590.69 404.045,1591.83C403.453,1592.32 405.966,1602.15 409.629,1613.66C417.197,1637.44 444.961,1734.39 465.808,1809.83C479.143,1858.09 503.018,1953.9 529.883,2066.97C536.603,2095.26 542.229,2118.4 542.385,2118.4C542.541,2118.4 556.863,2114.55 574.213,2109.85ZM334.491,2103.8C333.853,2101.36 333.33,2103.36 333.33,2108.24C333.33,2113.13 333.853,2115.13 334.491,2112.69C335.13,2110.24 335.13,2106.24 334.491,2103.8ZM931.248,2107.61C930.544,2105.86 929.967,2107.29 929.967,2110.78C929.967,2114.28 930.544,2115.7 931.248,2113.96C931.953,2112.21 931.953,2109.36 931.248,2107.61ZM291.471,2107.97C298.895,2105.19 298.746,2103.16 291.117,2103.16C287.78,2103.16 282.351,2105.51 279.054,2108.38L273.058,2113.59L279.407,2111.85C282.899,2110.89 288.328,2109.14 291.471,2107.97ZM304.314,2084.05C303.532,2083.27 302.112,2084.68 301.158,2087.18C299.78,2090.8 300.071,2091.09 302.58,2088.6C304.315,2086.88 305.096,2084.83 304.314,2084.05ZM925.028,2080.31C924.413,2076.12 923.469,2072.69 922.929,2072.69C922.389,2072.69 921.947,2076.12 921.947,2080.31C921.947,2084.5 922.892,2087.93 924.047,2087.93C925.202,2087.93 925.643,2084.5 925.028,2080.31ZM337.82,2039.52C337.82,2038.21 336.677,2037.13 335.28,2037.13C333.884,2037.13 332.741,2038.91 332.741,2041.09C332.741,2043.27 333.884,2044.35 335.28,2043.48C336.677,2042.62 337.82,2040.84 337.82,2039.52ZM1144.92,1968.48C1225.94,1958.32 1302.23,1918.12 1339.42,1865.99C1368.29,1825.54 1380.89,1787.86 1383.38,1734.59C1386.31,1671.65 1371.07,1600.59 1341.15,1537.76C1325.32,1504.51 1313.24,1486.99 1288.62,1461.55C1255.4,1427.23 1212.91,1404.14 1170.24,1397.21C1115.72,1388.37 1043.69,1399.5 985.437,1425.77C950.421,1441.56 911.431,1473.37 891.77,1502.18C860.527,1547.98 849.343,1590.87 851.616,1656.18C853.682,1715.55 868.954,1776.44 894.84,1828.54C946.659,1932.83 1035,1982.26 1144.92,1968.48ZM1118.22,1840.32C1079.88,1820.84 1047.09,1754.74 1027.06,1656.52C1021.57,1629.61 1020.68,1619.52 1021.56,1593.96C1022.48,1567.11 1023.42,1561.91 1029.38,1550.31C1048.32,1513.47 1093.11,1505.85 1129.14,1533.34C1178.63,1571.08 1226.82,1734.15 1207.81,1799.54C1199.92,1826.68 1177.58,1844.02 1147.98,1845.96C1133.86,1846.89 1129.56,1846.07 1118.22,1840.32ZM1414.63,1890.16C1414.64,1887.27 1413.69,1887.31 1409.07,1890.37C1400.79,1895.87 1400.11,1900.37 1408.12,1896.65C1411.69,1895 1414.62,1892.07 1414.63,1890.16ZM862.057,1862.89C864.266,1862.05 866.074,1859.12 866.074,1856.39C866.074,1850.71 862.257,1852.25 858.379,1859.5C855.517,1864.84 855.944,1865.24 862.057,1862.89ZM1641.95,1837.95C1651.73,1835.77 1670.58,1830.41 1683.85,1826.05C1806.04,1785.86 1865.6,1697.56 1833.92,1603.54C1813.01,1541.45 1766.46,1505.6 1676.74,1482.45L1645.16,1474.31L1656.25,1470.74C1666.61,1467.41 1666.87,1467.11 1660.19,1466.25C1656.26,1465.75 1650.13,1467.24 1646.58,1469.58C1640.47,1473.58 1638.71,1473.5 1615.63,1468.17C1586.51,1461.45 1568.03,1453.62 1559.57,1444.42C1554.48,1438.89 1553.39,1435.1 1553.46,1423.13C1553.55,1407.56 1555.02,1394.44 1556.51,1395.93C1557.01,1396.42 1560.43,1393.94 1564.12,1390.4C1586.42,1369.05 1650.4,1362.8 1717.04,1375.48L1726.1,1377.21L1729.44,1323.51C1731.38,1292.39 1731.85,1268.93 1730.55,1267.7C1726.65,1264.02 1690.32,1257.7 1663.07,1255.96C1597.48,1251.77 1530.08,1269.25 1477.22,1304.17C1445.33,1325.23 1408.93,1363.05 1411.57,1372.37C1411.86,1373.42 1411.1,1374.28 1409.86,1374.28C1408.63,1374.28 1404.58,1380.69 1400.87,1388.53C1372.77,1447.88 1389.38,1523.6 1440.28,1568.18C1469.1,1593.43 1500.78,1606.18 1579.73,1624.31C1635.38,1637.1 1652.9,1643.48 1664.47,1655.17C1673.21,1664.01 1676.23,1671.24 1676.23,1683.35C1676.23,1714.3 1633.3,1732.07 1565.78,1729.08C1547.61,1728.27 1523.8,1725.72 1512.86,1723.41C1501.93,1721.11 1492.28,1719.92 1491.42,1720.79C1490.56,1721.65 1488.14,1746.46 1486.05,1775.93C1481.61,1838.56 1479.86,1834.05 1510.51,1838.88C1521.34,1840.59 1531.91,1842.41 1534.01,1842.92C1543.84,1845.35 1625.67,1841.57 1641.95,1837.95ZM2334.01,1821.26C2334.01,1819.86 2333.51,1818.72 2332.89,1818.72C2332.28,1818.72 2331.06,1819.86 2330.2,1821.26C2329.34,1822.66 2329.84,1823.8 2331.32,1823.8C2332.8,1823.8 2334.01,1822.66 2334.01,1821.26ZM2468.61,1817.18C2468.61,1816.63 2465.47,1816.2 2461.63,1816.22C2456.55,1816.25 2455.62,1816.88 2458.22,1818.52C2461.46,1820.57 2468.61,1819.64 2468.61,1817.18ZM739.09,1815.26C739.09,1812.91 736.984,1812.21 732.507,1813.06C727.7,1813.98 726.844,1814.9 729.333,1816.48C734.458,1819.73 739.09,1819.15 739.09,1815.26ZM2351.79,1779.53C2351.79,1777.53 2349.79,1775.33 2347.34,1774.65C2331.17,1770.14 2330.47,1770.31 2340.36,1776.42C2345.95,1779.87 2350.8,1782.79 2351.15,1782.93C2351.5,1783.06 2351.79,1781.53 2351.79,1779.53ZM2288.3,1770.86C2288.3,1769.68 2286.01,1766.64 2283.22,1764.12C2278.29,1759.66 2278.14,1759.68 2278.14,1764.78C2278.14,1769.51 2280.94,1772.23 2286.39,1772.81C2287.44,1772.92 2288.3,1772.04 2288.3,1770.86ZM698.455,1760.31C698.455,1758.91 696.741,1757.77 694.645,1757.77C692.55,1757.77 690.836,1758.91 690.836,1760.31C690.836,1761.7 692.55,1762.85 694.645,1762.85C696.741,1762.85 698.455,1761.7 698.455,1760.31ZM2007.03,1726.12C2036.01,1718.38 2083.44,1705.68 2112.42,1697.89C2141.41,1690.09 2195.41,1675.66 2232.42,1665.81C2269.44,1655.96 2304.87,1646.5 2311.15,1644.78C2317.44,1643.07 2322.38,1640.6 2322.12,1639.29C2314.24,1598.52 2307.93,1562.52 2304.63,1539.36C2302.34,1523.29 2300.24,1509.9 2299.96,1509.59C2299.49,1509.08 2262.48,1520.22 2142.26,1557.08C2115.72,1565.22 2092.2,1572.61 2089.98,1573.51C2084.02,1575.92 2057.83,1480.77 2061.96,1471.71C2066.74,1461.21 2075.01,1459.29 2098.54,1463.23C2130.29,1468.53 2144.87,1467.67 2163.32,1459.39C2189.95,1447.44 2205.03,1425.12 2203,1400.65C2202.24,1391.41 2202.88,1387.03 2205.1,1386.29C2207.14,1385.6 2206.97,1385.31 2204.64,1385.46C2202.63,1385.6 2198.01,1380.02 2194.37,1373.05C2189.69,1364.1 2184.12,1358.14 2175.36,1352.73C2163.83,1345.61 2161.26,1345.07 2138.64,1345.07C2117.79,1345.07 2112.33,1346.01 2100.32,1351.64C2080.56,1360.91 2061.57,1375.97 2049.87,1391.64C2041.83,1402.42 2039.58,1404.16 2038.49,1400.47C2037.74,1397.94 2034.7,1385.58 2031.73,1373.01C2024.09,1340.62 2011.62,1289.97 2010.05,1284.98C2009.07,1281.83 2010.85,1280.3 2017.09,1278.96C2024.62,1277.35 2060.39,1266.7 2069.88,1263.24C2071.98,1262.48 2075.98,1261.54 2078.77,1261.15C2085.14,1260.27 2158.69,1240.56 2173.83,1235.68C2180.01,1233.68 2187.09,1232.05 2189.55,1232.05C2196.65,1232.05 2196.98,1228.88 2191.7,1211.52C2185.64,1191.6 2185.64,1191.27 2191.15,1192.85C2194.12,1193.69 2193.86,1193.19 2190.4,1191.34C2186.41,1189.21 2183.2,1180.84 2176.64,1155.46C2171.93,1137.26 2166.76,1121.85 2165.14,1121.23C2163.51,1120.61 2158.85,1121.47 2154.77,1123.15C2150.68,1124.83 2146.03,1126 2144.43,1125.74C2142.83,1125.49 2127.97,1128.96 2111.42,1133.44C2094.86,1137.93 2078.28,1141.67 2074.57,1141.75C2070.86,1141.83 2068.21,1142.51 2068.68,1143.26C2069.47,1144.55 2058.01,1147.88 2002.58,1162.5C1990.01,1165.81 1974.01,1170.12 1967.03,1172.09C1960.04,1174.05 1920.33,1184.63 1878.78,1195.6C1837.22,1206.57 1803.22,1216.69 1803.22,1218.09C1803.22,1219.48 1810.68,1246.34 1819.8,1277.77C1874.32,1465.66 1885.22,1505.49 1925.48,1663.8C1933.83,1696.62 1941.8,1727.83 1943.18,1733.13C1945.1,1740.48 1946.74,1742.48 1950.02,1741.48C1952.39,1740.77 1978.04,1733.85 2007.03,1726.12ZM2355.6,1739.99C2348.66,1737.01 2346.71,1737.01 2346.71,1739.99C2346.71,1741.39 2349.85,1742.45 2353.69,1742.35C2359.88,1742.19 2360.1,1741.92 2355.6,1739.99ZM249.614,1723.09C247.895,1722.39 244.466,1722.35 241.995,1722.99C239.524,1723.64 240.931,1724.2 245.122,1724.26C249.312,1724.31 251.334,1723.78 249.614,1723.09L249.614,1723.09ZM203.078,1664.39C208.742,1652.92 213.312,1642.67 213.235,1641.6C213.085,1639.53 190.518,1683.72 190.518,1686.09C190.518,1689.05 193.102,1684.59 203.078,1664.39ZM297.185,1684.12C297.185,1682.72 296.042,1681.58 294.645,1681.58C293.249,1681.58 292.106,1682.72 292.106,1684.12C292.106,1685.51 293.249,1686.66 294.645,1686.66C296.042,1686.66 297.185,1685.51 297.185,1684.12ZM2885.12,1671.42C2885.12,1670.02 2883.98,1668.88 2882.58,1668.88C2881.18,1668.88 2880.04,1670.02 2880.04,1671.42C2880.04,1672.82 2881.18,1673.96 2882.58,1673.96C2883.98,1673.96 2885.12,1672.82 2885.12,1671.42ZM2854.65,1653.95C2854.65,1650.7 2847.18,1645.02 2845.33,1646.87C2843.49,1648.71 2849.17,1656.18 2852.42,1656.18C2853.64,1656.18 2854.65,1655.18 2854.65,1653.95ZM3050.2,1644.75C3052.79,1641.63 3052.62,1640.94 3049.24,1640.94C3046.98,1640.94 3045.12,1642.66 3045.12,1644.75C3045.12,1646.85 3045.55,1648.56 3046.08,1648.56C3046.61,1648.56 3048.46,1646.85 3050.2,1644.75ZM3056.32,1626.97L3062.67,1620.62L3052.62,1620.62C3041.72,1620.62 3041.29,1621.08 3045.21,1628.41C3048.53,1634.62 3048.69,1634.6 3056.32,1626.97ZM3087.49,1620.15C3086.68,1618.12 3086.08,1618.73 3085.96,1621.68C3085.85,1624.36 3086.45,1625.86 3087.29,1625.02C3088.14,1624.17 3088.22,1621.98 3087.49,1620.15L3087.49,1620.15ZM2492.19,1596.44C2535.18,1584.97 2571.04,1574.92 2571.86,1574.1C2572.68,1573.27 2570.85,1563.12 2567.79,1551.53C2554.52,1501.35 2536.02,1435.63 2532.91,1427.61C2532.1,1425.51 2531.07,1420.94 2530.61,1417.45C2529.86,1411.67 2531.5,1410.45 2548.92,1403.9C2559.45,1399.93 2568.35,1397.08 2568.7,1397.55C2569.05,1398.02 2572.38,1402.51 2576.11,1407.53C2579.85,1412.55 2582.9,1417.71 2582.9,1419C2582.9,1420.28 2574.04,1421.09 2563.22,1420.78C2549.7,1420.4 2545.53,1420.91 2549.88,1422.4C2553.38,1423.59 2562.93,1424.68 2571.1,1424.82L2585.97,1425.07L2614.28,1453.88C2629.85,1469.73 2649.44,1487.29 2657.82,1492.9C2679.07,1507.13 2704.63,1519.65 2709.01,1517.97C2711.03,1517.19 2712.09,1517.52 2711.37,1518.69C2709.58,1521.59 2726.08,1526.28 2747.62,1528.98C2776.82,1532.65 2815.54,1526.31 2855.71,1511.28C2869.94,1505.95 2870.31,1505.58 2868.9,1497.82C2867.51,1490.17 2849.57,1369.77 2849.57,1368.1C2849.57,1367.65 2842.09,1370 2832.94,1373.32C2792.59,1387.97 2756.45,1375.88 2711.31,1332.64L2693.69,1315.76L2703.97,1305.02C2749.39,1257.54 2762.52,1185.41 2737.59,1120.31C2733.58,1109.83 2727.36,1096.95 2723.78,1091.69C2720.19,1086.43 2718.07,1080.71 2719.06,1078.99C2720.05,1077.27 2719.95,1076.68 2718.85,1077.68C2717.74,1078.67 2710.42,1073.67 2702.57,1066.56C2687.11,1052.56 2656.36,1036.72 2633.69,1031.08C2610.44,1025.3 2532.52,1026.69 2495.28,1033.56C2468.83,1038.44 2359.68,1065.67 2341.63,1071.9C2338.14,1073.1 2318.71,1078.35 2298.46,1083.56C2278.2,1088.77 2260.69,1093.88 2259.53,1094.92C2258.38,1095.96 2266.67,1127.81 2277.95,1165.69C2289.23,1203.57 2298.46,1235.22 2298.46,1236.02C2298.46,1236.82 2295.88,1236.79 2292.74,1235.94C2287.95,1234.66 2288.13,1235.04 2293.84,1238.3C2297.58,1240.44 2301.26,1244.2 2302.02,1246.65C2313.9,1285.24 2347.2,1410.31 2369.47,1499.99C2385.08,1562.85 2398.32,1615.73 2398.89,1617.51C2400.12,1621.33 2391.63,1623.25 2492.19,1596.44L2492.19,1596.44ZM2500.31,1307.67C2498.47,1302.73 2467.24,1186.92 2463.58,1171.45C2459.74,1155.27 2459.56,1155.47 2484.6,1149.33C2544.8,1134.58 2577.22,1158.66 2579.88,1220.09C2580.91,1243.94 2580.63,1245.62 2572.88,1261.37C2564.01,1279.39 2551.14,1291.06 2528.61,1301.53C2510.92,1309.74 2501.82,1311.72 2500.31,1307.67ZM3092.12,1610.48C3095.52,1613.3 3102.36,1607.6 3099.28,1604.52C3098.36,1603.6 3100.14,1602.85 3103.24,1602.85C3107.81,1602.85 3108.41,1602.03 3106.42,1598.48C3104.63,1595.28 3105.41,1592.11 3109.34,1586.6C3112.28,1582.46 3113.49,1579.81 3112.03,1580.72C3106.33,1584.24 3101.02,1575.97 3098.9,1560.28C3097.4,1549.17 3094.96,1542.47 3090.81,1538.06C3087.54,1534.58 3085.83,1531.74 3087.01,1531.74C3088.18,1531.74 3088.39,1530.99 3087.47,1530.07C3086.56,1529.15 3082.88,1531.56 3079.31,1535.42C3073.25,1541.95 3072.91,1543.6 3074.43,1559.31C3075.39,1569.38 3074.95,1579.03 3073.31,1583.25C3071.33,1588.38 3071.37,1591.58 3073.47,1594.94C3075.58,1598.33 3075.61,1601.69 3073.58,1607.53L3070.8,1615.5L3079.9,1611.69C3086.19,1609.07 3089.96,1608.69 3092.12,1610.48L3092.12,1610.48ZM237.968,1607.45C237.157,1605.42 236.555,1606.03 236.433,1608.99C236.323,1611.66 236.923,1613.16 237.767,1612.32C238.611,1611.47 238.701,1609.28 237.967,1607.45L237.968,1607.45ZM3031.17,1607.91C3033.7,1605.11 3035.11,1602.15 3034.29,1601.33C3031.47,1598.51 3022.81,1603.03 3021.51,1608.01C3019.79,1614.56 3025.2,1614.51 3031.17,1607.91L3031.17,1607.91ZM3051.98,1573.9C3051.49,1572.42 3049.07,1574.27 3046.61,1578.03C3044.16,1581.78 3042.93,1586.12 3043.9,1587.69C3045.92,1590.95 3053.41,1578.18 3051.98,1573.9ZM247.576,1582.62C253.17,1576.44 250.949,1566.61 245.301,1572.56C240.872,1577.22 237.729,1587.61 240.747,1587.61C242.022,1587.61 245.095,1585.37 247.576,1582.62ZM1838.77,1557.13C1833.8,1553.92 1830.44,1553.92 1832.42,1557.13C1833.29,1558.53 1835.92,1559.65 1838.29,1559.63C1841.99,1559.6 1842.06,1559.26 1838.77,1557.13ZM3064.47,1536.32C3059.88,1533.76 3049.39,1535.98 3051.32,1539.12C3051.98,1540.18 3056.15,1540.52 3060.6,1539.86C3067.15,1538.9 3067.88,1538.23 3064.47,1536.32ZM3116.2,1537.52C3119.01,1535.12 3121.31,1532.41 3121.31,1531.52C3121.31,1528.22 3101.22,1516.08 3097.12,1516.91C3093.39,1517.67 3093.53,1518.59 3098.4,1524.75C3101.43,1528.59 3103.07,1531.74 3102.06,1531.74C3101.04,1531.74 3102.28,1534.02 3104.8,1536.82C3110.36,1542.95 3109.89,1542.92 3116.2,1537.52ZM3080.68,1528.37C3080.68,1526.52 3078.05,1522.54 3074.84,1519.52C3069.46,1514.46 3068.57,1514.34 3063.41,1517.95C3055.55,1523.45 3056.4,1525.78 3067.34,1528.68C3080.47,1532.17 3080.68,1532.16 3080.68,1528.37ZM2207.66,1512.28C2205.91,1511.57 2203.06,1511.57 2201.31,1512.28C2199.57,1512.98 2200.99,1513.56 2204.49,1513.56C2207.98,1513.56 2209.41,1512.98 2207.66,1512.28ZM3118.85,1500.08C3117.09,1497.97 3114.47,1496.97 3113.02,1497.87C3111.41,1498.86 3112.18,1500.81 3115.03,1502.89C3120.75,1507.08 3123.17,1505.29 3118.85,1500.08ZM184.949,1494.84C184.167,1494.06 182.747,1495.47 181.793,1497.98C180.415,1501.6 180.706,1501.89 183.215,1499.4C184.95,1497.67 185.731,1495.63 184.949,1494.84ZM2222.26,1493.49C2222.26,1492.18 2219.84,1491.1 2216.87,1491.1C2212.39,1491.1 2212.01,1491.74 2214.62,1494.88C2217.79,1498.7 2222.26,1497.89 2222.26,1493.49ZM3011.25,1490.47C3010.54,1488.72 3009.97,1490.15 3009.97,1493.64C3009.97,1497.13 3010.54,1498.56 3011.25,1496.82C3011.95,1495.07 3011.95,1492.21 3011.25,1490.47ZM2251.62,1482.01C2256.48,1478.05 2256.48,1478.01 2251.47,1479.81C2248.68,1480.8 2244.37,1481.54 2241.89,1481.43C2239.42,1481.33 2238.06,1482.32 2238.87,1483.64C2241.05,1487.18 2246.06,1486.54 2251.62,1482.01L2251.62,1482.01ZM3077.22,1447.15C3080.51,1443.86 3053.31,1442.44 3018.24,1444.09C2990.71,1445.38 2979.77,1446.75 2980.56,1448.82C2981.38,1450.95 2994.34,1451.29 3028.82,1450.08C3054.75,1449.16 3076.53,1447.85 3077.22,1447.15ZM2589.4,1444.07C2594.05,1440.43 2593.84,1440.26 2585.64,1440.9C2580.85,1441.27 2576.47,1443.01 2575.9,1444.75C2574.44,1449.19 2583.43,1448.74 2589.4,1444.07ZM686.391,1441.16C684.645,1440.46 681.788,1440.46 680.042,1441.16C678.296,1441.87 679.725,1442.45 683.217,1442.45C686.709,1442.45 688.137,1441.87 686.391,1441.16ZM709.249,1438.63C707.503,1437.92 704.645,1437.92 702.899,1438.63C701.153,1439.33 702.582,1439.91 706.074,1439.91C709.566,1439.91 710.995,1439.33 709.249,1438.63ZM1244.49,1414.91C1244.49,1413.51 1243.98,1412.37 1243.37,1412.37C1242.75,1412.37 1241.54,1413.51 1240.68,1414.91C1239.81,1416.31 1240.32,1417.45 1241.8,1417.45C1243.28,1417.45 1244.49,1416.31 1244.49,1414.91ZM1356.87,1413.23C1355.12,1412.52 1352.27,1412.52 1350.52,1413.23C1348.77,1413.93 1350.2,1414.51 1353.69,1414.51C1357.18,1414.51 1358.61,1413.93 1356.87,1413.23ZM1617.18,1410.16C1618.93,1409.98 1620.36,1408.89 1620.36,1407.73C1620.36,1405.22 1605.57,1407.06 1603.89,1409.77C1603.24,1410.82 1605.26,1411.4 1608.36,1411.08C1611.47,1410.75 1615.44,1410.33 1617.18,1410.16ZM2228.68,1377.31C2227.9,1376.52 2225.85,1377.31 2224.13,1379.04C2221.64,1381.55 2221.93,1381.84 2225.55,1380.46C2228.05,1379.51 2229.46,1378.09 2228.68,1377.31ZM2798.77,1365.54C2798.77,1365.02 2796.49,1365.19 2793.69,1365.92C2790.9,1366.65 2788.61,1368.3 2788.61,1369.58C2788.61,1370.87 2790.89,1370.7 2793.69,1369.2C2796.49,1367.7 2798.77,1366.05 2798.77,1365.54ZM502.899,1338.89C545.503,1327.4 620.36,1307.26 669.249,1294.13C718.137,1281.01 767.561,1267.63 779.079,1264.41L800.02,1258.56L770.633,1245.99C741.531,1233.55 741.301,1233.38 746.799,1228.93C753.312,1223.66 750.168,1222.94 743.312,1228.13C739.192,1231.26 735.619,1230.39 712.836,1220.72C651.714,1194.8 580.309,1163.18 578.263,1161.13C574.679,1157.55 578.681,1149.25 585.488,1146.14C592.285,1143.05 594.394,1137.25 587.803,1139.77C584.201,1141.16 584.208,1140.35 587.871,1131.44C598.951,1104.48 605.774,1089.83 607.253,1089.83C608.757,1089.83 664.564,1113.96 749.005,1151.11C767.728,1159.35 783.337,1165.79 783.691,1165.42C784.045,1165.05 787.241,1158.17 790.793,1150.12C794.345,1142.07 799.118,1134.77 801.399,1133.89C803.77,1132.98 804.455,1131.62 802.998,1130.72C800.659,1129.28 820.341,1078.77 825.139,1073.9C828.129,1070.87 877.368,1093.61 878.335,1098.46C878.792,1100.76 875.19,1106.62 870.33,1111.48C865.47,1116.34 862.524,1120.95 863.784,1121.73C867.802,1124.21 866.487,1133.71 862.346,1132.12C857.843,1130.39 854.102,1135.39 858.066,1137.85C861.162,1139.76 856.371,1152.49 831.215,1209.2C811.602,1253.41 810.771,1256.03 816.896,1254.37C819.499,1253.66 846.366,1246.38 876.6,1238.2L931.57,1223.31L939.644,1206.73C956.52,1172.07 968.401,1153.32 973.49,1153.32C977.324,1153.32 978.087,1152.08 976.939,1147.69C975.166,1140.91 983.212,1127.56 1011.81,1089.83C1077.89,1002.65 1151.63,935.944 1239.15,884.161L1282.58,861.048L1304.55,876.623C1320.56,887.971 1343.4,883.191 1343.37,883.948C1343.33,884.704 1322.63,898.158 1303.46,907.558C1249.58,933.985 1168.31,989.38 1172.55,996.795C1173.45,998.378 1173.29,998.856 1172.18,997.858C1169.51,995.446 1165.53,998.449 1138.6,1023.2C1113.44,1046.32 1079.42,1083.93 1058.78,1111.42C1036.34,1141.31 997.614,1202.67 1000.57,1203.66C1002.1,1204.17 1015.39,1201.34 1030.11,1197.37C1054.13,1190.89 1057.39,1189.3 1062,1181.88C1067.44,1173.12 1071.79,1173.04 1071.79,1181.68C1071.79,1185.6 1072.89,1186.46 1076.23,1185.16C1078.68,1184.22 1086.06,1182.19 1092.64,1180.67C1099.21,1179.14 1104.01,1176.95 1103.3,1175.8C1102.58,1174.64 1103.91,1174.43 1106.24,1175.32C1109.52,1176.59 1110.13,1175.87 1108.94,1172.12C1108.11,1169.46 1105.27,1159.09 1102.64,1149.06L1097.86,1130.83L1107.72,1118.89C1116.07,1108.79 1117.09,1106.33 1114.37,1102.84C1111.57,1099.25 1111.68,1099.13 1115.26,1101.93C1118.59,1104.52 1119.91,1104.48 1122.22,1101.69C1123.79,1099.8 1124.52,1097.5 1123.83,1096.58C1123.14,1095.66 1123.35,1095.49 1124.3,1096.2C1125.24,1096.91 1128.53,1095.13 1131.61,1092.25L1137.19,1086.99L1138.91,1094.13C1139.85,1098.05 1144.13,1114.69 1148.43,1131.1C1157.24,1164.74 1156.18,1163.87 1180.15,1156.9C1190.08,1154.01 1193.67,1151.84 1192.69,1149.3C1187.59,1136.01 1168.51,1056.76 1169.73,1053.95C1170.57,1052.03 1179.26,1043.71 1189.05,1035.45C1203.09,1023.6 1207.33,1021.19 1209.12,1024.02C1210.37,1026 1211.41,1029.68 1211.43,1032.2C1211.45,1034.73 1212.6,1036.1 1213.98,1035.25C1215.39,1034.38 1215.87,1035.33 1215.07,1037.39C1214.29,1039.43 1215.89,1048.92 1218.64,1058.48C1221.38,1068.04 1227.37,1090.15 1231.96,1107.61C1236.54,1125.07 1240.45,1139.62 1240.65,1139.94C1241.28,1140.99 1273.64,1132.46 1275.53,1130.75C1276.53,1129.84 1275.24,1121.68 1272.65,1112.63C1270.07,1103.59 1265.53,1087.04 1262.58,1075.86C1259.63,1064.69 1253.78,1042.97 1249.6,1027.61C1245.41,1012.24 1241.97,998.388 1241.96,996.818C1241.95,993.882 1281.96,966.414 1283.65,968.201C1284.17,968.748 1289.87,988.625 1296.33,1012.37C1322.15,1107.37 1324.98,1116.5 1328.57,1116.45C1335.75,1116.37 1361.31,1109.28 1361.31,1107.37C1361.31,1106.29 1356.26,1086.75 1350.08,1063.96C1330.77,992.748 1320.68,953.499 1320.68,949.614C1320.68,945.046 1360.82,925.658 1363.63,928.868C1367.76,933.582 1396.88,1049.79 1397.12,1062.53C1397.3,1072.09 1397.87,1074.09 1399.12,1069.59C1400.6,1064.27 1401.4,1065.54 1404.38,1077.96C1406.31,1086.02 1408.83,1093.19 1409.98,1093.9C1411.71,1094.97 1441.96,1087.93 1444.7,1085.82C1445.17,1085.46 1439.77,1063.64 1432.71,1037.34C1405.25,935.124 1399.77,913.516 1400.88,911.726C1401.51,910.706 1431.89,900.962 1447.05,901.399L1454.65,928.278L1467.86,978.593C1477.06,1013.61 1480.57,1031.22 1479.4,1036.51C1478.3,1041.52 1478.73,1044.12 1480.66,1044.12C1485.72,1044.12 1489.54,1050.15 1490.29,1059.32C1490.69,1064.19 1491.99,1069.14 1493.18,1070.33C1494.98,1072.13 1525.55,1066.12 1528.22,1063.45C1528.68,1062.99 1522.17,1036.5 1513.76,1004.57C1505.34,972.644 1498.45,945.681 1498.45,944.653C1498.45,943.624 1510.2,932.677 1523.33,941.685L1553.06,962.077L1564.49,1004.23C1570.77,1027.42 1576.76,1047.19 1577.78,1048.18C1580.84,1051.11 1612.74,1041.42 1612.74,1037.58C1612.74,1035.68 1611.12,1029.24 1609.14,1023.25C1604.18,1008.3 1576.55,904.362 1575.86,898.085C1575.15,891.658 1571.8,883.252 1569.25,881.511C1568.17,880.775 1568.21,878.694 1569.33,876.885C1570.65,874.752 1579.81,873.092 1595.39,872.162L1619.42,870.729L1623.45,886.947C1625.67,895.867 1629.42,914.226 1631.78,927.745C1634.5,943.354 1637.37,952.826 1639.64,953.697C1643.91,955.336 1644.35,963.237 1640.39,967.198C1637.17,970.416 1639.44,975.546 1644.08,975.546C1645.86,975.546 1650.18,986.717 1654.26,1001.89L1661.34,1028.23L1678.14,1023.99C1687.38,1021.66 1695.34,1018.54 1695.83,1017.06C1696.33,1015.58 1692.18,996.882 1686.63,975.504C1677.77,941.44 1676.93,935.822 1679.8,930.059C1681.6,926.442 1686.88,912.287 1691.54,898.603C1698.87,877.051 1700.7,873.825 1705.26,874.476C1709.52,875.086 1711.55,879.088 1715.95,895.546C1718.94,906.72 1726.68,935.794 1733.15,960.154C1739.62,984.514 1745.25,1004.77 1745.65,1005.17C1747.34,1006.86 1778.88,996.509 1779.72,993.986C1780.22,992.464 1774.22,966.999 1766.38,937.398C1758.53,907.796 1752.49,883.203 1752.95,882.745C1754.23,881.462 1801.68,892.08 1803.95,894.157C1805.61,895.677 1820.9,949.937 1827.14,976.447C1828.55,982.441 1829.81,983.421 1834.44,982.1C1837.52,981.222 1845.47,979.192 1852.11,977.589C1860.18,975.637 1864.16,973.349 1864.15,970.665C1864.14,968.461 1860.73,954.086 1856.55,938.72C1852.38,923.355 1848.95,909.951 1848.95,908.934C1848.93,906.775 1881.45,918.116 1895.14,925.047C1903.12,929.08 1905.2,932.001 1908.98,944.417C1911.43,952.459 1913.58,959.316 1913.76,959.656C1914.06,960.232 1995.45,938.739 2003.85,935.865C2009.15,934.051 1995.78,926.094 1946.71,901.869C1894.15,875.922 1814.37,848.886 1770.42,842.125C1766.81,841.57 1754.67,839.431 1743.44,837.371C1627.21,816.046 1489.84,831.415 1363.68,879.859C1352.58,884.123 1345.79,885.489 1343.37,883.948C1341.36,882.675 1310.92,888.16 1295.21,883.006C1279.5,877.852 1282.58,862.061 1282.58,861.048C1282.58,858.817 1348.81,830.474 1374.59,821.675C1427.14,803.734 1479.32,791.391 1536.55,783.363C1598.52,774.67 1743.08,779.233 1756.42,790.303C1758.49,792.023 1760.04,792.231 1760.04,790.789C1760.04,786.095 1819.22,799.735 1869.25,815.96C1927.02,834.694 1971.03,854.064 2015.31,880.243C2026.02,886.575 2036,891.004 2037.49,890.084C2038.98,889.164 2039.54,889.467 2038.74,890.756C2037.95,892.045 2045.63,898.553 2055.82,905.218L2074.33,917.337L2127.35,903.144C2156.5,895.337 2184.62,887.69 2189.83,886.149L2199.29,883.347L2171.41,864.47C2150.27,850.154 2143.54,844.265 2143.56,840.093C2143.57,837.068 2145.27,819.736 2147.32,801.578C2152.48,755.93 2152.93,758.786 2139.29,749.753C2132.76,745.431 2126.76,741.915 2125.96,741.94C2125.15,741.965 2116.75,753.679 2107.29,767.972C2080.86,807.903 2084.95,804.898 2070,795.305C2062.93,790.766 2057.94,785.897 2058.86,784.419C2059.82,782.861 2059.3,782.496 2057.6,783.544C2056,784.533 2049.68,781.898 2043.56,777.687C2037.44,773.477 2031.54,770.844 2030.43,771.837C2029.34,772.829 2029.15,772.385 2030.03,770.849C2030.9,769.314 2028.8,766.549 2025.35,764.706C2021.91,762.862 2019.09,760.69 2019.1,759.879C2019.11,759.067 2030.54,741.832 2044.51,721.578C2058.47,701.324 2071.64,681.615 2073.76,677.781C2075.88,673.946 2084.47,661.015 2092.85,649.044C2101.22,637.073 2107.3,626.034 2106.37,624.512C2105.42,622.99 2105.74,622.419 2107.08,623.243C2108.41,624.067 2120.67,608.268 2134.33,588.134L2159.16,551.528L2171.55,557.807C2202.85,573.666 2257.82,609.933 2257.82,614.719C2257.82,615.923 2255.94,617.628 2253.65,618.508C2251.35,619.389 2250.2,620.838 2251.09,621.728C2251.98,622.617 2254.75,621.496 2257.25,619.237C2261.47,615.414 2262.36,615.66 2269.98,622.78C2274.8,627.286 2279.47,629.684 2281.33,628.613C2283.07,627.613 2283.66,627.711 2282.65,628.831C2281.63,629.951 2285.12,636.134 2290.38,642.572C2302.2,657.016 2308.35,666.68 2309.5,672.604C2309.98,675.095 2311.8,680.562 2313.53,684.752C2317.76,694.939 2315.1,716.794 2307.67,732.984C2304.45,739.98 2295.87,752.216 2288.58,760.175C2272.73,777.482 2255.59,785.07 2232.33,785.07L2217.19,785.07L2217.19,832.225C2217.19,875.922 2217.51,879.288 2221.63,878.119C2250.61,869.898 2384.12,834.109 2494.01,805.105C2525.44,796.81 2553.15,789.403 2555.6,788.645C2558.53,787.737 2560.04,788.625 2560.04,791.248C2560.04,795.708 2560.48,795.877 2566.25,793.662C2569.22,792.521 2569.61,791.22 2567.66,788.873C2565.59,786.382 2568.26,784.851 2579.44,782.122L2593.91,778.592L2585.6,769.132C2577.4,759.79 2577.37,759.668 2583.27,759.327C2589.16,758.986 2589.15,758.964 2582.9,757.826C2576.41,756.645 2567.66,750.294 2567.66,746.767C2567.66,745.689 2569.09,744.319 2570.84,743.721C2572.58,743.124 2571.44,743.062 2568.3,743.583C2565.15,744.105 2562.58,743.266 2562.58,741.719C2562.58,740.172 2538.01,714.234 2507.98,684.079C2477.95,653.925 2453.38,628.883 2453.38,628.431C2453.38,627.979 2455.61,627.609 2458.33,627.609C2461.05,627.609 2464.46,625.609 2465.9,623.165C2467.63,620.233 2469.18,619.648 2470.47,621.445C2473.8,626.097 2481.31,627.819 2481.31,623.932C2481.31,621.997 2482.61,619.981 2484.2,619.452C2489.72,617.61 2480.6,607.723 2471.86,606.084C2466.81,605.137 2464.07,603.407 2465.06,601.801C2467.54,597.78 2440.51,602.02 2436.2,606.327C2432.32,610.21 2427.98,610.966 2427.98,607.759C2427.98,606.62 2423.41,603.118 2417.82,599.978C2406.59,593.668 2405.21,590.634 2412.51,588.317C2415.18,587.47 2418.77,585.086 2420.48,583.019C2425.44,577.041 2416.7,569.153 2405.36,569.375C2398.85,569.503 2397.58,570.082 2400.92,571.397C2405.11,573.048 2404.9,573.561 2398.93,576.282C2392.7,579.121 2390.61,578.102 2367.58,560.939C2354.01,550.828 2342.33,541.895 2341.63,541.087C2340.93,540.28 2338.36,538.882 2335.92,537.98C2329.53,535.624 2330.43,532.512 2338.45,529.194C2344.81,526.565 2344.41,526.416 2334.01,527.536C2324.33,528.577 2320.84,527.587 2311.15,521.055C2304.87,516.815 2301.15,513.34 2302.9,513.334C2304.65,513.329 2306.07,512.181 2306.07,510.784C2306.07,509.387 2303.16,508.244 2299.6,508.244C2296.04,508.244 2289.47,506.357 2285.01,504.05C2277.58,500.205 2277.32,499.687 2281.96,497.833C2286.07,496.192 2285.59,495.868 2279.41,496.117C2274.82,496.302 2266.54,493.164 2258.58,488.224L2245.37,480.024L2250.28,471.277L2255.19,462.53L2249.52,462.161C2238.98,461.474 2226.08,463.047 2224.75,465.184C2224.02,466.352 2202.56,457.025 2177.07,444.456C2150.13,431.173 2131.39,420.51 2132.33,418.991C2133.3,417.42 2131.55,416.665 2127.95,417.098C2124.65,417.494 2106.52,411.762 2087.66,404.361C2008.05,373.111 1953.93,356.541 1883.93,341.978C1776.43,319.613 1668.95,311.345 1565.76,317.501C1547.86,318.568 1533.97,318.346 1532.11,316.963C1530.12,315.485 1528.93,315.547 1528.93,317.128C1528.93,318.515 1516.07,321.046 1500.36,322.753C1484.65,324.46 1451.41,329.191 1426.51,333.265C1401.6,337.34 1380.27,340.084 1379.1,339.363C1377.94,338.643 1376.6,338.989 1376.13,340.132C1375.66,341.275 1354.13,347.555 1328.28,354.089C1302.43,360.622 1261.29,372.82 1236.85,381.195L1192.42,396.421L1205.93,383.761C1219.41,371.136 1219.42,371.101 1212,371.101C1205,371.101 1178.23,375.488 1177.02,376.834C1176.71,377.173 1177.32,382.979 1178.36,389.735C1179.92,399.853 1179.54,402.271 1176.18,403.443C1173.94,404.225 1167.54,406.829 1161.95,409.229C1156.36,411.628 1146.07,415.678 1139.09,418.228C1132.11,420.779 1123.62,424.623 1120.24,426.771C1115.6,429.711 1113.82,429.905 1113.04,427.556C1111.94,424.24 1099.25,423.221 1096.26,426.207C1095.28,427.182 1096.87,429.253 1099.77,430.809C1104.55,433.365 1102.96,434.677 1083.29,444.425C1069.93,451.044 1062.18,456.288 1063.24,457.994C1064.27,459.67 1063.78,460.05 1062,458.95C1057.09,455.912 965.9,507.608 966.996,512.812C967.354,514.507 965.885,515.022 963.405,514.07C960.609,512.997 959.816,513.442 961.028,515.403C962.136,517.197 961.556,517.867 959.54,517.121C955.152,515.497 879.843,569.831 880.74,573.973C881.124,575.744 880.218,576.439 878.727,575.518C869.083,569.557 695.602,735.07 702.962,743.211C703.975,744.332 703.461,744.48 701.82,743.54C699.974,742.483 688.544,754.687 671.873,775.513C617.68,843.214 571.144,915.291 535.005,987.499C523.29,1010.91 513.526,1027.27 510.215,1029.04C506.598,1030.98 505.737,1032.57 507.666,1033.77C509.831,1035.1 509.855,1037.64 507.761,1043.65C504.69,1052.46 500.308,1053.86 494.374,1047.93C489.474,1043.03 488.839,1043.09 480.281,1049.42L473.105,1054.73L479.473,1061.1C484.857,1066.48 486.766,1067.04 491.831,1064.73C495.125,1063.23 497.82,1062.72 497.82,1063.6C497.82,1064.47 491.675,1080.73 484.163,1099.73C468.07,1140.44 453.108,1185.81 440.84,1231.13C432.063,1263.54 414.065,1348.33 414.029,1357.43C414.006,1363.29 407.161,1364.72 502.9,1338.89L502.899,1338.89ZM1522.58,948.492C1510.01,943.574 1502.32,953.619 1501.24,952.6C1499.56,950.995 1483.34,893.225 1483.25,888.877C1483.21,886.844 1528.68,877.944 1530.39,879.65C1531.09,880.353 1535.67,896.217 1540.56,914.904C1545.45,933.59 1555.95,970.634 1556.68,973.079C1558.54,979.227 1549.1,958.865 1522.58,948.492ZM944.29,925.092C923.924,918.349 909.213,909.143 889.82,891.002C872.091,874.417 851.899,846.558 845.159,829.382C839.194,814.182 835.756,792.572 837.378,780.478C838.635,771.111 839.605,769.811 845.456,769.66C852.07,769.489 852.075,769.473 846.391,766.732C839.291,763.308 839.303,762.497 846.661,747.244C856.202,727.467 875.333,704.579 896.237,687.931C941.937,651.536 983.167,644.674 1024.8,666.535C1045.46,677.379 1083.46,715.215 1095.41,736.827C1100.43,745.913 1106.32,760.153 1108.48,768.472C1112.59,784.242 1113.81,807.921 1110.52,807.934C1109.47,807.934 1108.53,811.791 1108.44,816.496C1108.24,826.128 1097.31,850.086 1088.15,860.972C1084.82,864.933 1082.63,868.904 1083.29,869.797C1083.95,870.689 1083.95,871.078 1083.31,870.661C1082.66,870.244 1074.7,876.832 1065.63,885.302C1026,922.291 980.703,937.146 944.29,925.092L944.29,925.092ZM1012.52,848.148C1019.28,843.298 1028.64,834.302 1033.33,828.158C1040.73,818.452 1041.69,815.549 1040.61,806.021C1039.07,792.316 1027.14,774.01 1005.45,752.054C985.052,731.401 969.536,722.698 957.352,725.075C946.623,727.169 927.393,740.963 917.958,753.333C907.311,767.292 906.452,778.606 914.861,794.135C924.781,812.456 948.97,840.292 963.852,850.512C974.912,858.107 978.078,859.086 988.397,858.1C996.646,857.312 1003.97,854.29 1012.52,848.148ZM931.471,848.59C936.011,845.822 939.725,842.307 939.725,840.778C939.725,836.739 923.928,840.509 920.042,845.475C912.796,854.736 918.735,856.355 931.471,848.59ZM886.391,837.444C886.391,835.52 884.963,832.82 883.217,831.445C879.393,828.433 866.074,825.017 866.074,827.048C866.074,829.605 879.94,840.78 883.217,840.862C884.963,840.906 886.391,839.368 886.391,837.444ZM1431.67,915.273C1422.18,911.673 1415.33,907.866 1416.43,906.812C1417.55,905.758 1424.5,903.126 1431.89,900.962C1446.79,896.599 1446.61,896.459 1451.15,915.228C1453.16,923.548 1453.49,923.547 1431.67,915.273L1431.67,915.273ZM1293.9,723.447C1289.67,712.278 1277.86,667.19 1278.77,665.708C1279.38,664.715 1291.07,663.128 1304.73,662.182C1343.13,659.524 1378.15,651.475 1392.04,642.117C1402.79,634.875 1403.45,626.418 1393.83,619.239C1387.29,614.349 1385.7,614.264 1357.01,617.255C1296.22,623.594 1265.7,608.8 1251.15,565.933C1247.03,553.778 1245.46,523.353 1248.79,520.023C1250.68,518.136 1252.32,512.197 1252.86,505.256C1253.04,502.914 1254.01,501.504 1255.01,502.123C1256.02,502.741 1257.6,502.008 1258.54,500.493C1259.47,498.979 1261.8,498.339 1263.71,499.071C1265.62,499.804 1267.86,499.31 1268.68,497.975C1269.51,496.639 1268.12,495.499 1265.59,495.442C1257.68,495.262 1281.76,475.806 1301.47,466.438C1323.27,456.08 1354.43,448.15 1390.59,443.759C1409.95,441.407 1417.89,441.261 1418.49,443.247C1418.95,444.773 1421.91,454.022 1425.08,463.8C1428.24,473.578 1430.99,483.292 1431.2,485.387C1431.41,487.482 1432.35,491.556 1433.29,494.44C1434.92,499.422 1433.58,499.834 1406.41,502.672C1374.53,506.003 1347.42,512.685 1336.68,519.861C1332.77,522.474 1328.57,524.311 1327.35,523.943C1326.13,523.575 1325.85,525.129 1326.71,527.396C1327.59,529.662 1328.3,533.138 1328.3,535.119C1328.3,537.1 1330.6,541.027 1333.42,543.846C1338.21,548.635 1341.41,548.936 1382.31,548.44C1418.43,548.001 1428.04,548.667 1437.33,552.253C1465.03,562.945 1478.34,583.693 1480.2,619.043C1481.2,638.087 1480.63,641.627 1474.57,654.011C1458.65,686.539 1417.57,707.834 1349.45,718.862C1303.03,726.377 1295.26,727.019 1293.9,723.447ZM1447.66,677.133C1447.66,673.641 1447.22,670.784 1446.69,670.784C1446.15,670.784 1445.17,673.641 1444.5,677.133C1443.83,680.625 1444.27,683.482 1445.47,683.482C1446.68,683.482 1447.66,680.625 1447.66,677.133ZM1814.64,692.453C1796.49,689.303 1761.26,683.542 1736.36,679.651C1710.58,675.623 1689.61,671.097 1687.65,669.141C1683.83,665.321 1678.77,664.559 1678.77,667.804C1678.77,668.959 1675.34,669.401 1671.15,668.786C1666.96,668.171 1663.53,666.636 1663.53,665.374C1663.53,664.113 1665.91,648.528 1668.8,630.742C1671.7,612.955 1674.56,594.403 1675.15,589.514C1675.74,584.625 1676.74,578.339 1677.36,575.546C1677.98,572.752 1683.8,536.181 1690.29,494.276C1696.77,452.371 1702.37,417.787 1702.73,417.422C1704.76,415.356 1805.02,433.491 1807.99,436.46C1809.93,438.403 1813.33,439.199 1815.61,438.246C1821.45,435.806 1819.34,435.604 1871.98,443.653L1898.84,447.76L1896.66,463.399C1893.29,487.637 1892.34,490.46 1887.61,490.547C1883.48,490.623 1883.48,490.826 1887.54,493.913C1890.13,495.879 1891.33,499.22 1890.55,502.235C1889.25,507.173 1888.08,507.092 1830.35,498.09C1763.28,487.632 1770.21,486.109 1766.79,512.062L1765.11,524.769L1812.74,532.053C1866.25,540.238 1869.66,540.813 1870.63,541.815C1871.84,543.054 1862.64,596.974 1860.93,598.681C1859.62,599.995 1789.15,590.378 1762.36,585.228C1756.02,584.009 1755.69,584.563 1752.93,601.225C1751.36,610.718 1750.39,618.801 1750.77,619.187C1751.16,619.574 1778.26,624.064 1811,629.166C1843.73,634.269 1870.95,638.816 1871.47,639.272C1872,639.728 1870.36,653.291 1867.83,669.411L1863.24,698.72L1855.45,698.45C1851.17,698.302 1832.81,695.603 1814.65,692.453L1814.64,692.453ZM1757.5,549.585C1757.5,549.197 1755.22,548.879 1752.42,548.879C1749.05,548.879 1747.34,550.572 1747.34,553.934C1747.34,558.745 1747.59,558.779 1752.42,554.639C1755.22,552.247 1757.5,549.973 1757.5,549.585ZM1737.18,508.244C1737.18,506.847 1736.11,505.704 1734.8,505.704C1733.48,505.704 1731.7,506.847 1730.84,508.244C1729.97,509.641 1731.05,510.784 1733.23,510.784C1735.4,510.784 1737.18,509.641 1737.18,508.244ZM1711.79,503.213C1711.79,500.171 1699.53,496.802 1697.14,499.188C1694.93,501.395 1701.58,505.615 1707.34,505.666C1709.79,505.686 1711.79,504.583 1711.79,503.213ZM1747.34,464.946C1745.25,463.523 1741.25,461.192 1738.45,459.765C1733.68,457.327 1733.65,457.393 1737.95,460.863C1741.39,463.638 1741.71,464.886 1739.22,465.882C1737.4,466.612 1739.34,467.281 1743.53,467.37C1749.48,467.496 1750.32,466.963 1747.34,464.946ZM1841.1,453.998C1838.11,451.418 1825.8,449.879 1827.28,452.269C1828.18,453.722 1831.89,454.911 1835.54,454.911C1839.18,454.911 1841.68,454.5 1841.1,453.998ZM1733.96,450.837C1733.11,449.993 1730.92,449.903 1729.09,450.636C1727.06,451.447 1727.67,452.049 1730.62,452.171C1733.3,452.281 1734.8,451.681 1733.96,450.837L1733.96,450.837ZM2269.35,1330.93C2271.92,1326.77 2269.87,1326.55 2262.9,1330.22C2256.81,1333.43 2256.78,1333.57 2262.12,1333.6C2265.18,1333.62 2268.43,1332.42 2269.35,1330.93ZM1364.44,1303.93C1368.26,1299.91 1372.12,1292.67 1373.03,1287.84C1375.12,1276.72 1372.57,1278.93 1358.91,1300.08C1348.39,1316.38 1350.92,1318.14 1364.44,1303.93ZM2162.58,1295.55C2163.47,1294.11 2161.39,1293.01 2157.8,1293.01C2154.31,1293.01 2150.75,1294.15 2149.88,1295.55C2149,1296.98 2151.08,1298.09 2154.66,1298.09C2158.16,1298.09 2161.72,1296.94 2162.58,1295.55ZM2149.53,1284.12C2148.73,1282.02 2147.62,1280.31 2147.07,1280.31C2146.52,1280.31 2146.07,1282.02 2146.07,1284.12C2146.07,1286.21 2147.18,1287.93 2148.53,1287.93C2149.89,1287.93 2150.34,1286.21 2149.53,1284.12ZM1782.9,1267.19C1782.9,1266.02 1781.18,1265.07 1779.09,1265.07C1777,1265.07 1775.28,1266.02 1775.28,1267.19C1775.28,1268.35 1777,1269.3 1779.09,1269.3C1781.18,1269.3 1782.9,1268.35 1782.9,1267.19ZM2938.78,1258.31C2941.94,1254.47 2941.73,1254.36 2936.55,1257.12C2930.64,1260.27 2929.18,1262.53 2933.07,1262.53C2934.29,1262.53 2936.86,1260.63 2938.78,1258.31ZM3019.03,1250.63C3019.99,1247.76 3010.82,1244.35 3008.47,1246.7C3006.39,1248.77 3012.44,1255.22 3015.5,1254.2C3016.95,1253.72 3018.54,1252.11 3019.03,1250.63ZM2207.03,1197.77C2203.53,1195.77 2199.53,1194.14 2198.14,1194.14C2196.74,1194.14 2198.45,1195.77 2201.95,1197.77C2205.44,1199.76 2209.44,1201.4 2210.84,1201.4C2212.23,1201.4 2210.52,1199.76 2207.03,1197.77ZM673.827,1172.41C674.103,1171.03 672.328,1169.52 669.884,1169.05C667.104,1168.51 665.439,1169.76 665.439,1172.37C665.439,1176.79 672.945,1176.82 673.827,1172.41L673.827,1172.41ZM1398.69,1148.91C1398.11,1145.05 1397.61,1147.61 1397.59,1154.59C1397.57,1161.58 1398.05,1164.74 1398.65,1161.61C1399.26,1158.49 1399.27,1152.78 1398.69,1148.91L1398.69,1148.91ZM1545.44,1122.85C1546.33,1121.41 1544.25,1120.31 1540.66,1120.31C1537.17,1120.31 1533.6,1121.45 1532.74,1122.85C1531.85,1124.28 1533.93,1125.39 1537.52,1125.39C1541.01,1125.39 1544.58,1124.24 1545.44,1122.85ZM864.967,1104.86C865.109,1098.43 864.207,1097.45 858.133,1097.45C850.128,1097.45 847.567,1100.21 849.911,1106.32C851.556,1110.61 861.181,1115.65 863.534,1113.45C864.233,1112.8 864.877,1108.93 864.967,1104.86ZM1757.5,1102.53C1757.5,1101.13 1755.79,1099.99 1753.69,1099.99C1751.6,1099.99 1749.88,1101.13 1749.88,1102.53C1749.88,1103.93 1751.6,1105.07 1753.69,1105.07C1755.79,1105.07 1757.5,1103.93 1757.5,1102.53ZM1586.07,1092.37C1586.94,1090.97 1585.38,1089.83 1582.62,1089.83C1579.86,1089.83 1575.51,1089.05 1572.95,1088.09C1568.85,1086.55 1568.71,1086.85 1571.78,1090.63C1575.63,1095.36 1583.62,1096.33 1586.07,1092.37ZM2782.85,1088.3C2782,1087.45 2779.81,1087.36 2777.98,1088.1C2775.95,1088.91 2776.55,1089.51 2779.51,1089.63C2782.19,1089.74 2783.69,1089.14 2782.85,1088.3L2782.85,1088.3ZM2749.25,1082.21C2748.39,1080.82 2744.03,1079.81 2739.58,1079.97L2731.47,1080.27L2739.09,1082.21C2750.14,1085.02 2750.99,1085.02 2749.25,1082.21ZM1037.5,1069.51C1036.64,1068.12 1034.86,1066.97 1033.54,1066.97C1032.23,1066.97 1031.15,1068.12 1031.15,1069.51C1031.15,1070.91 1032.93,1072.05 1035.11,1072.05C1037.29,1072.05 1038.37,1070.91 1037.5,1069.51ZM2749.25,1061.89C2751.24,1058.68 2747.87,1058.68 2742.9,1061.89C2739.62,1064.02 2739.68,1064.36 2743.39,1064.4C2745.75,1064.42 2748.39,1063.29 2749.25,1061.89ZM2786.07,1062.51C2786.07,1058.64 2776.77,1054.71 2773.15,1057.05C2770.09,1059.02 2770.13,1059.72 2773.38,1061.86C2777.9,1064.83 2786.08,1065.24 2786.08,1062.51L2786.07,1062.51ZM1817.77,1052.74C1816.92,1051.9 1814.73,1051.81 1812.9,1052.54C1810.87,1053.35 1811.48,1053.95 1814.43,1054.08C1817.11,1054.19 1818.61,1053.59 1817.77,1052.74L1817.77,1052.74ZM2729.6,1052.53C2727.17,1051.89 2722.6,1051.87 2719.44,1052.48C2716.28,1053.09 2718.26,1053.61 2723.85,1053.64C2729.44,1053.66 2732.02,1053.17 2729.6,1052.53L2729.6,1052.53ZM472.324,1041.23C469.435,1031.16 467.988,1029.76 464.288,1033.46C462.018,1035.73 462.734,1037.94 467.312,1042.81C470.61,1046.32 473.601,1049.2 473.958,1049.2C474.316,1049.2 473.581,1045.61 472.324,1041.23ZM2708.61,1046.66C2709.48,1045.26 2707.9,1044.12 2705.1,1044.12C2702.31,1044.12 2699.32,1045.26 2698.45,1046.66C2697.59,1048.05 2699.17,1049.2 2701.97,1049.2C2704.76,1049.2 2707.75,1048.05 2708.61,1046.66ZM2388.68,1042.07C2387.9,1041.29 2385.85,1042.07 2384.13,1043.8C2381.64,1046.31 2381.93,1046.6 2385.55,1045.22C2388.05,1044.27 2389.46,1042.85 2388.68,1042.07ZM2765.73,1040.34C2767.46,1038.26 2769.64,1037.03 2770.58,1037.61C2771.52,1038.19 2772.29,1036.54 2772.29,1033.94C2772.29,1030.56 2769.41,1028.49 2762.12,1026.64C2752.92,1024.31 2744.97,1025.5 2752.28,1028.12C2753.95,1028.72 2754.68,1030.86 2753.9,1032.88C2752.49,1036.56 2757.05,1044.12 2760.68,1044.12C2761.73,1044.12 2764.01,1042.41 2765.73,1040.34ZM2721.64,1022.01C2719.55,1019.92 2712.42,1023.27 2712.42,1026.35C2712.42,1028.23 2714.05,1028.19 2717.72,1026.22C2720.63,1024.66 2722.4,1022.77 2721.64,1022.01L2721.64,1022.01ZM2737.82,1021.26C2740.8,1019.34 2740.14,1018.79 2734.8,1018.76C2731.04,1018.74 2727.26,1019.86 2726.39,1021.26C2724.39,1024.5 2732.8,1024.5 2737.82,1021.26ZM2414.16,1006.59C2411.93,1004.37 2402.57,1014.04 2402.66,1018.48C2402.72,1021.37 2404.58,1020.44 2409.14,1015.25C2412.66,1011.25 2414.92,1007.35 2414.16,1006.59ZM1794.23,1011.98C1791.65,1010.1 1787.77,1008.63 1785.59,1008.72C1783.13,1008.82 1783.8,1009.75 1787.34,1011.18C1790.49,1012.44 1793.06,1014.73 1793.06,1016.25C1793.06,1017.77 1794.37,1018.21 1795.98,1017.21C1798.01,1015.96 1797.47,1014.36 1794.23,1011.98ZM1709.25,978.086C1709.25,976.689 1708.17,975.546 1706.86,975.546C1705.54,975.546 1703.76,976.689 1702.9,978.086C1702.04,979.482 1703.11,980.625 1705.29,980.625C1707.47,980.625 1709.25,979.482 1709.25,978.086ZM2951.15,943.489C2951.15,940.511 2950.27,940.083 2947.98,941.946C2946.23,943.363 2942.52,945.085 2939.72,945.772C2936.39,946.591 2937.48,947.121 2942.9,947.315C2948.94,947.53 2951.15,946.505 2951.15,943.489ZM2472.07,918.403C2472.88,916.308 2472.43,914.593 2471.07,914.593C2469.72,914.593 2468.61,916.308 2468.61,918.403C2468.61,920.498 2469.06,922.213 2469.61,922.213C2470.16,922.213 2471.27,920.498 2472.07,918.403ZM2008.93,909.364C2008.93,906.488 2007.79,904.841 2006.39,905.705C2005,906.568 2003.85,908.921 2003.85,910.934C2003.85,912.947 2005,914.593 2006.39,914.593C2007.79,914.593 2008.93,912.24 2008.93,909.364ZM2794.96,871.419C2795.83,870.022 2794.75,868.879 2792.57,868.879C2790.4,868.879 2788.61,870.022 2788.61,871.419C2788.61,872.816 2789.69,873.958 2791,873.958C2792.32,873.958 2794.1,872.816 2794.96,871.419ZM2513.2,859.286C2511.08,857.167 2506.71,861.645 2506.79,865.854C2506.86,869.625 2507.32,869.552 2510.57,865.255C2512.61,862.563 2513.79,859.877 2513.2,859.286ZM2901.63,858.72C2894.65,855.72 2890.64,855.72 2895.28,858.72C2897.38,860.074 2900.8,861.119 2902.9,861.043C2905.41,860.951 2904.98,860.16 2901.63,858.72ZM2511.79,840.943C2509.1,835.927 2504.17,833.953 2504.17,837.895C2504.17,840.566 2509.69,846.022 2512.39,846.022C2513.55,846.022 2513.28,843.736 2511.79,840.943ZM2724.54,837.927C2722.97,833.218 2717.5,832.437 2717.5,836.921C2717.5,839.133 2719.31,840.943 2721.52,840.943C2723.74,840.943 2725.09,839.585 2724.54,837.927ZM2781.63,834.181C2779.88,833.477 2777.03,833.477 2775.28,834.181C2773.53,834.886 2774.96,835.462 2778.45,835.462C2781.95,835.462 2783.38,834.886 2781.63,834.181ZM2478.73,819.84C2478.7,815.317 2478.23,814.988 2476.23,818.085C2473,823.089 2473,828.973 2476.23,826.974C2477.63,826.111 2478.76,822.901 2478.73,819.84ZM2676.23,813.727C2672.39,813.145 2669.25,811.638 2669.25,810.377C2669.25,809.117 2667.33,808.822 2664.99,809.72C2661.18,811.183 2661.25,811.556 2665.62,813.272C2668.32,814.326 2673.38,815.098 2676.87,814.987C2682.83,814.797 2682.79,814.72 2676.23,813.727ZM1667.34,797.768C1668.21,796.371 1667.7,795.228 1666.22,795.228C1664.75,795.228 1663.53,796.371 1663.53,797.768C1663.53,799.165 1664.04,800.308 1664.65,800.308C1665.27,800.308 1666.48,799.165 1667.34,797.768ZM2865.08,796.168C2868.18,792.431 2867.65,792.21 2859.68,793.896C2847.57,796.454 2844.05,800.308 2853.83,800.308C2858.12,800.308 2863.19,798.445 2865.08,796.168ZM2763.22,790.149C2763.22,788.752 2761.5,787.609 2759.41,787.609C2757.31,787.609 2755.6,788.752 2755.6,790.149C2755.6,791.546 2757.31,792.689 2759.41,792.689C2761.5,792.689 2763.22,791.546 2763.22,790.149ZM2745.44,787.609C2745.44,786.212 2744.36,785.07 2743.05,785.07C2741.74,785.07 2739.95,786.212 2739.09,787.609C2738.23,789.006 2739.3,790.149 2741.48,790.149C2743.66,790.149 2745.44,789.006 2745.44,787.609ZM2770.84,782.53C2765.91,779.348 2763.22,779.348 2763.22,782.53C2763.22,783.927 2765.79,785.052 2768.93,785.031C2773.55,785 2773.92,784.521 2770.84,782.53ZM2810.82,773.417C2808.77,771.367 2801.29,775.353 2802.75,777.717C2803.52,778.967 2802.66,780.008 2800.83,780.029C2798.34,780.058 2798.43,780.658 2801.19,782.401C2803.8,784.052 2805.92,783.249 2808.43,779.658C2810.39,776.867 2811.47,774.058 2810.82,773.417ZM2783.53,779.99C2783.53,778.593 2781.82,777.451 2779.72,777.451C2777.63,777.451 2775.91,778.593 2775.91,779.99C2775.91,781.387 2777.63,782.53 2779.72,782.53C2781.82,782.53 2783.53,781.387 2783.53,779.99ZM2074.74,762.847C2080.98,753.717 2081.36,752.636 2076.31,758.403C2069.59,766.071 2063.83,774.911 2065.55,774.911C2066.07,774.911 2070.2,769.482 2074.74,762.847ZM2724,771.021C2718.49,766.853 2714.96,766.224 2714.96,769.408C2714.96,772.963 2718.09,774.915 2723.64,774.83C2728.84,774.751 2728.85,774.684 2724,771.021ZM2854.65,769.832C2849.63,766.591 2836.87,766.591 2836.87,769.832C2836.87,771.228 2841.72,772.354 2847.66,772.332C2855.57,772.304 2857.43,771.634 2854.65,769.832ZM2805.7,765.757C2804.86,764.914 2802.67,764.823 2800.84,765.557C2798.81,766.368 2799.41,766.97 2802.37,767.091C2805.05,767.202 2806.55,766.601 2805.7,765.758L2805.7,765.757ZM2033.64,763.218C2032.8,762.374 2030.61,762.284 2028.77,763.017C2026.75,763.828 2027.35,764.43 2030.31,764.552C2032.98,764.662 2034.48,764.062 2033.64,763.218L2033.64,763.218ZM2614,758.403C2613.01,753.254 2611.29,752.054 2604.9,752.054L2597.01,752.054L2605.83,758.278C2610.68,761.702 2614.77,764.559 2614.93,764.628C2615.08,764.697 2614.66,761.895 2614,758.403ZM2754.99,763.007C2752.56,762.372 2747.99,762.348 2744.83,762.956C2741.68,763.564 2743.66,764.084 2749.25,764.112C2754.84,764.14 2757.42,763.643 2754.99,763.007L2754.99,763.007ZM2872.42,759.673C2872.42,756.64 2865.51,756.64 2858.45,759.673C2854.38,761.424 2855.26,761.891 2862.9,762.034C2868.14,762.132 2872.42,761.07 2872.42,759.673ZM2234.28,758.138C2233.43,757.294 2231.24,757.204 2229.41,757.938C2227.38,758.749 2227.98,759.351 2230.94,759.472C2233.62,759.583 2235.12,758.982 2234.28,758.138L2234.28,758.138ZM2746.07,752.801C2742.93,752.196 2737.79,752.196 2734.65,752.801C2731.5,753.406 2734.07,753.902 2740.36,753.902C2746.65,753.902 2749.22,753.406 2746.07,752.801ZM2088.93,744.435C2091.46,741.641 2092.96,739.355 2092.26,739.355C2091.56,739.355 2088.92,741.641 2086.39,744.435C2083.86,747.228 2082.37,749.514 2083.07,749.514C2083.76,749.514 2086.4,747.228 2088.93,744.435ZM2280.68,744.585C2280.68,741.155 2276.05,738.778 2273.02,740.651C2271.6,741.528 2271.09,743.31 2271.9,744.61C2273.8,747.695 2280.68,747.675 2280.68,744.584L2280.68,744.585ZM2580.91,721.124C2578.51,720.173 2573.12,719.447 2568.93,719.511C2564.16,719.584 2563.11,720.088 2566.12,720.859C2570,721.852 2570.25,722.535 2567.39,724.374C2564.4,726.303 2564.39,727.005 2567.33,728.902C2569.55,730.332 2573.44,729.641 2578.04,727C2584.18,723.479 2584.61,722.592 2580.91,721.124L2580.91,721.124ZM2234.96,725.387C2234.96,723.292 2233.82,721.578 2232.42,721.578C2231.03,721.578 2229.88,723.292 2229.88,725.387C2229.88,727.482 2231.03,729.197 2232.42,729.197C2233.82,729.197 2234.96,727.482 2234.96,725.387ZM2154.96,724.117C2155.85,722.683 2153.77,721.578 2150.18,721.578C2146.69,721.578 2143.13,722.72 2142.26,724.117C2141.38,725.552 2143.46,726.657 2147.04,726.657C2150.54,726.657 2154.1,725.514 2154.96,724.117ZM2225.52,712.023C2228.01,709.779 2232.42,704.112 2235.31,699.429C2244.65,684.311 2239.26,672.69 2214.59,654.793C2211.13,652.284 2209.65,650.874 2211.3,651.66C2212.95,652.446 2215.12,651.761 2216.12,650.137C2217.4,648.061 2216.07,647.656 2211.62,648.772C2207.79,649.734 2203.4,648.913 2200.45,646.683C2197.78,644.662 2194.77,642.973 2193.76,642.928C2192.75,642.884 2184.86,653.35 2176.23,666.187L2160.53,689.527L2169.18,696.934C2173.93,701.008 2184.68,707.675 2193.06,711.749C2209.16,719.577 2217.07,719.644 2225.52,712.023ZM2585.44,714.957C2585.44,714.408 2583.09,713.958 2580.21,713.958C2577.33,713.958 2575.66,715.051 2576.48,716.387C2577.84,718.58 2585.44,717.366 2585.44,714.957ZM2280.68,683.183C2280.68,681.786 2279.53,681.349 2278.14,682.212C2276.74,683.076 2275.6,684.925 2275.6,686.322C2275.6,687.719 2276.74,688.155 2278.14,687.292C2279.53,686.429 2280.68,684.579 2280.68,683.183ZM730.201,683.482C729.338,682.085 726.346,680.943 723.552,680.943C720.758,680.943 719.179,682.085 720.042,683.482C720.906,684.879 723.898,686.022 726.691,686.022C729.485,686.022 731.064,684.879 730.201,683.482ZM2546.07,673.324C2548.07,670.09 2542.19,670.09 2537.18,673.324C2534.09,675.325 2534.42,675.793 2538.94,675.824C2542,675.844 2545.21,674.72 2546.07,673.324ZM2532.11,665.705C2532.11,664.308 2527.82,663.279 2522.58,663.418C2514.08,663.644 2513.74,663.89 2519.41,665.705C2528.49,668.612 2532.11,668.612 2532.11,665.705ZM2123.85,663.912C2120.71,663.307 2115.57,663.307 2112.42,663.912C2109.28,664.518 2111.85,665.013 2118.14,665.013C2124.42,665.013 2126.99,664.518 2123.85,663.912ZM2232.42,662.045C2232.42,661.429 2231.28,660.219 2229.88,659.355C2228.49,658.492 2227.34,658.996 2227.34,660.475C2227.34,661.955 2228.49,663.165 2229.88,663.165C2231.28,663.165 2232.42,662.661 2232.42,662.045ZM2245.99,654.405C2246.93,651.946 2246.18,651.193 2243.72,652.137C2241.7,652.914 2240.04,654.57 2240.04,655.818C2240.04,659.469 2244.45,658.422 2245.99,654.405ZM2495.86,646.392C2495.02,645.548 2492.83,645.458 2490.99,646.192C2488.97,647.003 2489.57,647.604 2492.53,647.726C2495.21,647.837 2496.71,647.236 2495.86,646.392L2495.86,646.392ZM2429.83,600.678C2428.99,599.834 2426.8,599.744 2424.96,600.478C2422.94,601.288 2423.54,601.89 2426.5,602.012C2429.18,602.122 2430.68,601.522 2429.83,600.678L2429.83,600.678ZM2462.26,591.867C2454.39,588.771 2448.3,589.183 2448.3,592.814C2448.3,595.133 2451.12,595.779 2457.82,594.988C2465.59,594.072 2466.41,593.495 2462.26,591.867ZM2443.22,575.546C2443.22,573.451 2442.07,571.736 2440.68,571.736C2439.28,571.736 2438.14,573.451 2438.14,575.546C2438.14,577.641 2439.28,579.355 2440.68,579.355C2442.07,579.355 2443.22,577.641 2443.22,575.546ZM2367.03,508.277C2369.62,506.623 2367.6,506.345 2360.68,507.406C2348.12,509.33 2345.99,510.797 2355.81,510.745C2359.88,510.725 2364.93,509.613 2367.03,508.277ZM2296.55,493.864C2294.8,493.159 2291.95,493.159 2290.2,493.864C2288.45,494.568 2289.88,495.145 2293.38,495.145C2296.87,495.145 2298.3,494.568 2296.55,493.864ZM2276.33,473.242C2274.89,469.301 2275.25,469.328 2280.04,473.528C2283.12,476.233 2287.81,477.721 2291.26,477.086C2296.54,476.114 2296.29,475.783 2288.93,474.025C2284.37,472.936 2280.68,470.423 2280.68,468.412C2280.68,466.409 2279.61,465.427 2278.31,466.231C2277.01,467.035 2275.23,466.531 2274.35,465.111C2273.48,463.691 2271.24,462.53 2269.39,462.53C2266.41,462.53 2265.14,464.869 2263.15,473.958C2262.58,476.578 2272.93,480.247 2276.12,478.556C2277.11,478.033 2277.2,475.642 2276.33,473.242L2276.33,473.242ZM2289.57,457.451C2288.7,456.054 2286.85,454.911 2285.46,454.911C2284.06,454.911 2283.62,456.054 2284.49,457.451C2285.35,458.847 2287.2,459.99 2288.6,459.99C2289.99,459.99 2290.43,458.847 2289.57,457.451ZM1079.12,432.054L1078.9,425.704L1076.87,432.054C1075.75,435.546 1074.74,440.117 1074.62,442.212C1074.43,445.599 1074.68,445.599 1076.87,442.212C1078.22,440.117 1079.23,435.546 1079.12,432.054ZM1038.09,438.138C1037.24,437.294 1035.05,437.204 1033.22,437.938C1031.19,438.749 1031.79,439.35 1034.75,439.472C1037.43,439.583 1038.93,438.982 1038.09,438.138L1038.09,438.138ZM1079.41,401.578C1080.8,401.578 1081.95,400.435 1081.95,399.038C1081.95,395.008 1072.49,396.092 1070.87,400.308C1070.07,402.403 1066.8,404.154 1063.61,404.198C1058.13,404.274 1058.07,404.467 1062.47,407.802C1066.52,410.872 1067.75,410.698 1071.99,406.452C1074.67,403.771 1078.01,401.578 1079.41,401.578ZM1133.45,407.927C1133.76,406.53 1129.52,405.02 1124.03,404.571C1115.07,403.839 1114.39,404.178 1117.46,407.874C1121.06,412.216 1132.51,412.254 1133.45,407.927L1133.45,407.927ZM1120.04,396.498C1120.04,395.101 1116.9,394.072 1113.06,394.212L1106.07,394.465L1112.42,396.498C1115.91,397.616 1119.06,398.645 1119.41,398.785C1119.76,398.924 1120.04,397.895 1120.04,396.498ZM1315.6,340.625C1315.6,339.228 1314.45,338.085 1313.06,338.085C1311.66,338.085 1310.52,339.228 1310.52,340.625C1310.52,342.022 1311.66,343.165 1313.06,343.165C1314.45,343.165 1315.6,342.022 1315.6,340.625ZM1726.2,304.21L1733.37,300.457L1725.75,297.193C1721.56,295.397 1716.37,292.464 1714.2,290.675C1712.03,288.885 1704.03,287.236 1696.42,287.009C1688.81,286.782 1681.15,285.471 1679.41,284.094C1675.71,281.179 1675.49,281.944 1675.19,298.412L1674.96,310.803L1697,309.383C1709.12,308.602 1722.27,306.274 1726.2,304.21ZM1344.17,303.388C1342.42,302.683 1339.57,302.683 1337.82,303.388C1336.07,304.092 1337.5,304.669 1341,304.669C1344.49,304.669 1345.91,304.092 1344.17,303.388ZM1501,287.292C1501,284.498 1499.97,282.212 1498.73,282.212C1495.87,282.212 1493.21,288.818 1495.24,290.853C1498.3,293.91 1501,292.242 1501,287.292ZM1559.2,286.366C1558.61,285.857 1555.59,284.116 1552.48,282.498C1547.73,280.025 1547.06,280.172 1548.31,283.423C1549.12,285.551 1552.15,287.292 1555.02,287.292C1557.9,287.292 1559.78,286.875 1559.2,286.366ZM1580.36,285.61C1578.61,284.905 1575.76,284.905 1574.01,285.61C1572.26,286.314 1573.69,286.891 1577.18,286.891C1580.68,286.891 1582.11,286.314 1580.36,285.61ZM2340.69,484.058C2339.48,480.902 2340.13,480.685 2344.23,482.878C2350.11,486.029 2350.67,487.927 2345.71,487.927C2343.76,487.927 2341.51,486.186 2340.69,484.058Z" style="fill:white;fill-rule:nonzero;"/>
        </g>
    </g>
</svg>
