<?xml version="1.0" encoding="UTF-8" standalone="no"?>
<!DOCTYPE svg PUBLIC "-//W3C//DTD SVG 1.1//EN" "http://www.w3.org/Graphics/SVG/1.1/DTD/svg11.dtd">
<svg width="100%" height="100%" viewBox="0 0 100 100" version="1.1" xmlns="http://www.w3.org/2000/svg" xmlns:xlink="http://www.w3.org/1999/xlink" xml:space="preserve" xmlns:serif="http://www.serif.com/" style="fill-rule:evenodd;clip-rule:evenodd;stroke-linejoin:round;stroke-miterlimit:2;">
    <g id="path84" transform="matrix(0.864142,0,0,0.864142,-232.418,-5.13368)">
        <path d="M321.867,121.105C313.069,120.31 309.602,118.233 302.877,109.726C297.609,103.06 294.342,96.496 291.395,86.651C288.322,76.384 288.378,73.993 291.887,65.5C293.478,61.65 295.184,57.15 295.678,55.5C296.525,52.672 296.867,52.502 301.652,52.535L306.727,52.571L307.358,43.035C307.705,37.791 307.992,30.982 307.995,27.905C308.002,20.645 309.942,18.635 316.445,19.152L321,19.514L321,15.212C321,7.108 329.085,2.994 334.456,8.365C336.019,9.928 337.274,10.441 338.16,9.88C338.897,9.413 341.118,9.024 343.095,9.015C348.485,8.992 350.36,11.671 350.834,20.073C351.05,23.883 351.43,27 351.679,27C351.928,27 352.993,26.539 354.045,25.976C356.911,24.442 360.966,25.896 362.958,29.172C364.59,31.855 364.689,34.951 364.235,69.29C363.79,102.869 363.554,107.01 361.808,111.727C358.686,120.162 356.01,121.469 341.5,121.647C334.9,121.728 326.065,121.484 321.867,121.105ZM352.498,118.642C355.644,117.694 357.029,116.485 358.998,112.969L361.5,108.5L361.793,69.301L362.087,30.103L359.428,28.361C357.04,26.796 356.502,26.769 354.135,28.097L351.5,29.574L351.242,46.537C351.1,55.867 350.654,64.175 350.251,65C349.849,65.825 349.29,54.756 349.01,40.402C348.618,20.344 348.182,13.921 347.128,12.652C345.533,10.733 339.95,10.45 338.2,12.2C337.33,13.07 337,20.356 337,38.7C337,54.9 336.64,64 336,64C335.359,64 335,54.519 335,37.557C335,11.365 334.979,11.099 332.777,9.557C329.786,7.462 327.403,7.597 325,10C323.107,11.893 323,13.333 323,37C323,53 322.64,62 322,62C321.368,62 321,54.9 321,42.7C321,29.022 320.65,23.05 319.8,22.2C318.22,20.62 312.527,20.66 311.199,22.26C310.565,23.025 309.868,34.839 309.427,52.294C309.028,68.119 308.317,81.304 307.849,81.594C305.885,82.807 305.036,76.837 306.128,69.495C307.548,59.951 306.735,55.222 303.535,54.42C299.355,53.37 297.631,54.299 296.859,58.014C296.459,59.941 294.981,63.989 293.576,67.009C292.17,70.029 291.015,73.596 291.01,74.936C290.995,78.554 294.857,91.742 297.71,97.815C300.431,103.607 309.808,115.265 313.31,117.21C317.523,119.55 346.027,120.591 352.498,118.642Z" style="fill:white;fill-rule:nonzero;"/>
    </g>
</svg>
