<?xml version="1.0" encoding="UTF-8" standalone="no"?>
<!DOCTYPE svg PUBLIC "-//W3C//DTD SVG 1.1//EN" "http://www.w3.org/Graphics/SVG/1.1/DTD/svg11.dtd">
<svg width="100%" height="100%" viewBox="0 0 100 100" version="1.1" xmlns="http://www.w3.org/2000/svg" xmlns:xlink="http://www.w3.org/1999/xlink" xml:space="preserve" xmlns:serif="http://www.serif.com/" style="fill-rule:evenodd;clip-rule:evenodd;stroke-linejoin:round;stroke-miterlimit:2;">
    <g id="path84" transform="matrix(0.833561,0,0,0.833561,-11.9999,-5.00137)">
        <path d="M62.591,124.427C53.21,120.99 47.923,113.15 44.028,96.901C41.043,84.449 41.266,82.502 46.633,74.112L51.266,66.871L46.566,41.93C41.404,14.537 41.099,11.791 42.971,9.535C44.964,7.133 50.683,7.569 52.369,10.25C53.148,11.488 56.157,21.725 59.057,33C61.957,44.275 64.619,53.841 64.973,54.258C65.326,54.675 67.56,45.099 69.936,32.979C74.601,9.187 75.899,6 80.918,6C85.612,6 87.348,8.977 86.58,15.711C85.77,22.807 83.169,42.266 82.413,46.885C81.903,49.999 82.037,50.224 84.087,49.688C87.484,48.799 92.824,51.449 93.562,54.39C94.103,56.545 94.611,56.828 97.06,56.338C101.639,55.422 104.62,56.668 106.036,60.088C107.074,62.593 107.097,66.064 106.153,77.851C105.508,85.908 104.982,96.325 104.984,101C104.986,105.675 104.524,111.174 103.956,113.219C102.632,117.986 98.491,122.897 94.329,124.636C89.834,126.514 67.893,126.369 62.591,124.427ZM95.681,121.395C101.454,117.086 102.468,113.839 102.839,98.465L103.178,84.43L99.206,84.809C96.949,85.024 94.935,84.704 94.542,84.068C94.096,83.346 92.848,84.021 91.024,85.974C87.688,89.545 84.352,89.851 80.635,86.927C78.28,85.075 78,84.176 78,78.473L78,72.091L69.5,77.171C64.825,79.965 61,82.81 61,83.494C61,84.177 63.313,87.733 66.14,91.395C71.525,98.369 72.148,101.874 66.948,95.937C61.528,89.75 58.832,85.214 59.17,82.852C59.404,81.218 61.4,79.441 66,76.772C77.179,70.285 78.153,69.337 77.806,65.28C77.306,59.438 75.681,59.284 63.76,63.945C53.284,68.04 53.026,68.22 48.933,74.216C43.755,81.801 43.265,85.3 45.9,95.859C50.04,112.45 55.282,120.255 64.039,122.865C65.942,123.432 73.206,123.807 80.181,123.698C91.328,123.524 93.202,123.246 95.681,121.395ZM88.885,85.25C90.777,83.678 91.057,82.076 91.639,69.465C92.215,57 92.096,55.238 90.572,53.715C88.302,51.445 83.346,51.484 82.117,53.782C81.592,54.762 80.841,61.895 80.449,69.633C79.737,83.645 79.744,83.707 82.09,85.35C85.075,87.441 86.269,87.424 88.885,85.25ZM101.918,82.072C104.827,80.231 105.951,62.708 103.345,59.829C101.451,57.735 96.721,57.397 95.257,59.25C94.714,59.938 94.006,64.765 93.685,69.977C93.2,77.84 93.374,79.755 94.705,81.227C96.436,83.139 99.639,83.514 101.918,82.072ZM64,60.77C64,58.948 51.831,13.553 50.853,11.725C50.188,10.483 48.988,9.981 47.183,10.19C43.177,10.653 43.299,13.6 48.447,40.614C50.951,53.755 53,64.791 53,65.138C53,65.485 55.475,64.858 58.5,63.743C61.525,62.629 64,61.291 64,60.77ZM71.884,59.033C74.093,58.4 75.901,58.412 77.128,59.068C78.506,59.806 78.998,59.732 78.991,58.785C78.987,58.078 80.389,46.957 82.108,34.072C85.107,11.593 85.16,10.59 83.426,9.322C78.269,5.551 76.983,8.392 71.579,35.5C69.057,48.15 66.995,58.838 66.997,59.25C67.001,60.233 67.828,60.197 71.884,59.033Z" style="fill:white;fill-rule:nonzero;"/>
    </g>
</svg>
