<?xml version="1.0" encoding="UTF-8" standalone="no"?>
<!DOCTYPE svg PUBLIC "-//W3C//DTD SVG 1.1//EN" "http://www.w3.org/Graphics/SVG/1.1/DTD/svg11.dtd">
<svg width="100%" height="100%" viewBox="0 0 100 100" version="1.1" xmlns="http://www.w3.org/2000/svg" xmlns:xlink="http://www.w3.org/1999/xlink" xml:space="preserve" xmlns:serif="http://www.serif.com/" style="fill-rule:evenodd;clip-rule:evenodd;stroke-linejoin:round;stroke-miterlimit:2;">
    <g transform="matrix(0.894691,0,0,0.894691,-126.702,-4.67564)">
        <g id="path84">
            <path d="M186.5,115.162C181.82,112.306 173.172,102.284 170.056,96.105C166.686,89.424 161,73.622 161,70.939C161,69.893 162.343,66.217 163.985,62.769C165.627,59.321 167.444,54.592 168.021,52.26C168.826,49.01 169.652,47.875 171.555,47.397C174.797,46.583 179.481,48.569 180.811,51.321C181.689,53.137 181.876,52.574 181.932,47.941C182.025,40.365 183.56,38.495 189.669,38.519C193.502,38.533 194.877,38.068 196.323,36.269C198.72,33.285 204.168,33.191 206.866,36.086C208.442,37.778 209.193,37.967 210.839,37.086C214.259,35.256 217.712,35.818 219.866,38.557C221.551,40.699 222.419,41.012 225.215,40.487C227.762,40.01 229.199,40.369 231.277,42.003L234,44.145L234,71.391C234,102.119 233.348,106.342 227.777,111.716C222.909,116.412 220.28,117 204.185,116.996C191.716,116.993 189.047,116.716 186.5,115.162ZM222.5,113C225.227,111.68 227.459,109.555 229.066,106.75C231.285,102.876 231.53,101.199 231.841,87.794L232.182,73.088L228.963,74.011C226.863,74.613 225.061,74.568 223.777,73.881C222.209,73.041 221.417,73.249 219.877,74.902C217.135,77.844 213.144,78.619 210.006,76.818C207.723,75.508 207.129,75.502 205.215,76.773C202.722,78.429 198.964,77.821 196.509,75.366C195.213,74.07 194.39,73.957 192.504,74.816C190.992,75.505 189.018,75.579 187.065,75.019C184.245,74.21 184,74.334 184,76.57C184,78.349 184.546,79 186.04,79C189.264,79 195.152,82.471 199.435,86.897C205.226,92.881 202.979,93.095 196.502,87.176C191.832,82.907 189.962,81.896 184.896,80.9C175.905,79.131 175.076,77.423 177.484,65.634C178.51,60.61 179.296,55.662 179.229,54.638C179.051,51.912 176.034,49 173.387,49C171.412,49 170.797,49.958 169.056,55.75C167.941,59.463 166.122,63.973 165.014,65.774C163.906,67.575 163,69.874 163,70.883C163,73.8 170.511,93.257 173.506,98.097C176.833,103.475 183.452,110.577 187.5,113.113C190.062,114.718 192.533,114.993 204.434,114.996C216.33,114.999 218.973,114.707 222.5,113ZM181.93,67.75C181.854,56.699 181.061,56.822 178.942,68.213C177.934,73.63 177.939,75.222 178.969,76.463C181.46,79.464 181.999,77.878 181.93,67.75ZM206.773,56.224C207.006,41.72 206.81,38.952 205.452,37.595C203.176,35.318 199.379,35.62 197.557,38.223C195.519,41.132 195.26,70.667 197.25,73.225C198.946,75.404 202.079,75.944 204.5,74.473C206.356,73.346 206.52,72.029 206.773,56.224ZM218.75,73.208C219.62,72.101 220,67.186 220,57.031C220,41.094 219.108,38 214.515,38C209.536,38 208.999,39.84 209.015,56.821C209.023,65.445 209.361,72.995 209.765,73.6C211.566,76.297 216.491,76.082 218.75,73.208ZM191.435,73.025L194,72.05L194,57.06C194,43.264 193.846,41.988 192.066,41.035C189.353,39.583 187.398,39.745 185.571,41.571C184.294,42.849 184,45.737 184,57.015C184,70.216 184.107,70.962 186.223,72.443C188.854,74.287 188.284,74.223 191.435,73.025ZM229.777,71.443C231.869,69.978 232,69.163 232,57.598C232,46.519 231.8,45.129 229.97,43.473C228.362,42.017 227.374,41.834 225.22,42.59L222.5,43.545L222.213,56.523C221.942,68.768 222.047,69.599 224.074,71.25C226.696,73.387 226.989,73.397 229.777,71.443Z" style="fill:white;fill-rule:nonzero;"/>
        </g>
    </g>
</svg>
