<?xml version="1.0" encoding="UTF-8" standalone="no"?>
<!DOCTYPE svg PUBLIC "-//W3C//DTD SVG 1.1//EN" "http://www.w3.org/Graphics/SVG/1.1/DTD/svg11.dtd">
<svg width="100%" height="100%" viewBox="0 0 1000 1000" version="1.1" xmlns="http://www.w3.org/2000/svg" xmlns:xlink="http://www.w3.org/1999/xlink" xml:space="preserve" xmlns:serif="http://www.serif.com/" style="fill-rule:evenodd;clip-rule:evenodd;stroke-linejoin:round;stroke-miterlimit:2;">
    <g transform="matrix(7.69503,0,0,7.69503,-256.05,-253.634)">
        <g id="Image">
            <path id="path130" d="M64.972,157.783C64.791,157.444 64.717,156.976 64.808,156.743C65.098,156.003 71.39,152.008 75.04,150.246C79.166,148.254 83.275,146.837 87.793,145.848C92.205,144.881 103.21,144.804 107.68,145.707C114.589,147.104 121.515,149.977 127.532,153.942C131.152,156.329 131.824,157.091 131.017,157.898C130.567,158.348 127.106,158.4 97.908,158.4C66.038,158.4 65.295,158.386 64.972,157.783ZM94.4,142.4L94.4,55.455L97.36,55.478C98.988,55.491 100.536,55.433 100.8,55.35C101.225,55.217 101.289,60.216 101.361,98.8L101.442,142.4L94.4,142.4ZM53.52,127.04C46.504,126.054 40.429,123.028 35.904,118.264C31.924,114.073 30.817,117.666 44.681,89.769C55.399,68.202 56.784,65.575 57.395,65.662C57.957,65.742 60.224,70.055 69.978,89.6C76.522,102.712 81.886,113.742 81.898,114.111C81.927,114.991 78.728,118.779 76.314,120.724C73.575,122.93 68.675,125.346 65.102,126.253C61.679,127.121 56.569,127.468 53.52,127.04ZM78.88,111.92C78.634,111.348 73.692,101.376 67.897,89.76L57.361,68.64L46.44,90.682C40.434,102.806 35.52,112.778 35.52,112.842C35.52,112.907 45.377,112.96 57.424,112.96L79.327,112.96L78.88,111.92ZM134.48,127.041C126.75,125.951 119.613,122.007 115.353,116.471C114.565,115.447 113.927,114.346 113.935,114.024C113.943,113.703 119.307,102.712 125.855,89.6C136.296,68.692 137.848,65.76 138.475,65.76C139.102,65.76 140.662,68.716 151.209,89.896L163.229,114.033L162.079,115.703C159.78,119.041 155.312,122.639 151.088,124.554C146.415,126.673 139.362,127.729 134.48,127.041ZM160.32,112.852C160.32,112.793 155.405,102.821 149.399,90.692L138.477,68.64L127.942,89.729C122.148,101.328 117.206,111.3 116.96,111.889L116.513,112.96L138.416,112.96C150.463,112.96 160.32,112.911 160.32,112.852ZM48.16,64.194C46.904,63.644 45.158,61.866 44.602,60.57C43.642,58.333 44.446,55.471 46.434,54.056C47.654,53.187 50.172,52.882 51.518,53.439C52.769,53.958 54.376,55.798 54.613,56.986C54.716,57.5 54.926,57.92 55.081,57.92C55.236,57.92 57.054,56.789 59.121,55.408C66.203,50.674 71.519,48.003 77.649,46.099C80.514,45.209 87.349,43.696 87.522,43.913C87.56,43.961 87.677,44.963 87.781,46.14L87.972,48.28L86.146,48.647C76.809,50.52 70.465,53.292 60.38,59.906C57.414,61.85 54.278,63.711 53.411,64.041C51.584,64.735 49.531,64.795 48.16,64.194ZM142.88,64.194C141.132,63.644 140.79,63.446 134.744,59.467C124.991,53.048 118.768,50.429 108.572,48.451C107.902,48.321 107.875,48.2 108.057,46.157C108.163,44.971 108.279,43.963 108.314,43.917C108.35,43.872 109.59,44.063 111.07,44.342C119.856,46.002 126.784,48.947 135.961,54.924C138.491,56.572 140.669,57.92 140.801,57.92C140.932,57.92 141.122,57.508 141.223,57.005C141.449,55.877 142.81,54.215 144.022,53.589C146.112,52.508 149.511,53.452 150.732,55.453C152.189,57.842 151.931,60.192 149.98,62.316C147.891,64.589 145.851,65.129 142.88,64.194ZM94.555,52.447C91.693,50.937 90.184,48.558 90.156,45.51C90.123,41.99 92.37,38.933 95.719,37.938C97.796,37.321 98.044,37.321 100.121,37.938C106.035,39.694 107.657,47.463 102.92,51.345C101.158,52.788 100.204,53.12 97.814,53.12C96.416,53.12 95.454,52.921 94.555,52.447Z" style="fill:white;fill-rule:nonzero;"/>
        </g>
    </g>
</svg>
