<?xml version="1.0" encoding="UTF-8" standalone="no"?>
<!DOCTYPE svg PUBLIC "-//W3C//DTD SVG 1.1//EN" "http://www.w3.org/Graphics/SVG/1.1/DTD/svg11.dtd">
<svg width="100%" height="100%" viewBox="0 0 1920 1079" version="1.1" xmlns="http://www.w3.org/2000/svg" xmlns:xlink="http://www.w3.org/1999/xlink" xml:space="preserve" xmlns:serif="http://www.serif.com/" style="fill-rule:evenodd;clip-rule:evenodd;stroke-linejoin:round;stroke-miterlimit:2;">
    <g transform="matrix(15.7288,-1.33227e-15,4.44089e-16,6.35197,1144.93,1218.91)">
        <g id="L0" transform="matrix(1,0,0,1,-76.8,-83.2)">
            <clipPath id="_clip1">
                <rect x="0" y="0" width="153.6" height="166.4"/>
            </clipPath>
            <g clip-path="url(#_clip1)">
                <g id="path192" transform="matrix(8.10504,-2.62878,2.62878,8.10504,-323.777,90.5445)">
                    <path d="M53.72,28.803C52.896,30.961 33.982,30.723 35.014,29C35.014,29 36.039,0.611 36.815,0.769C37.359,0.88 38.433,5.36 41.017,6.759C42.288,7.448 42.873,9.086 44.021,9.647C45.206,10.225 46.941,9.717 47.417,9.877C48.607,10.278 49.313,10.748 49.76,11.437C50.112,11.98 50.965,12.688 51.655,13.012L52.909,13.6L52.836,16.34C52.767,18.955 52.798,19.097 53.532,19.431C54.247,19.757 54.313,20.002 54.497,23.017C54.684,26.092 54.646,26.38 53.72,28.803Z" style="fill:rgb(0,26,37);fill-rule:nonzero;"/>
                </g>
            </g>
        </g>
        <g id="L01" serif:id="L0">
        </g>
    </g>
</svg>
