<?xml version="1.0" encoding="UTF-8" standalone="no"?>
<!DOCTYPE svg PUBLIC "-//W3C//DTD SVG 1.1//EN" "http://www.w3.org/Graphics/SVG/1.1/DTD/svg11.dtd">
<svg width="100%" height="100%" viewBox="0 0 1920 1079" version="1.1" xmlns="http://www.w3.org/2000/svg" xmlns:xlink="http://www.w3.org/1999/xlink" xml:space="preserve" xmlns:serif="http://www.serif.com/" style="fill-rule:evenodd;clip-rule:evenodd;stroke-linejoin:round;stroke-miterlimit:2;">
    <g transform="matrix(-0.304686,0,0,0.304686,1429.13,461.588)">
        <g id="L1-Wolf" serif:id="L1 Wolf" transform="matrix(1,0,0,1,-2624,-3280)">
            <path id="path52" d="M2063.62,4530.44C1974.53,4403.02 2182.54,4287.07 2240.69,4361.58C2242.45,4363.83 2218.68,4395.26 2208.86,4403.53C2206.55,4405.47 2203.61,4408.8 2202.31,4410.93C2201.02,4413.06 2199.35,4414.42 2198.61,4413.97C2197.87,4413.51 2197.43,4413.71 2197.63,4414.41C2197.84,4415.11 2194.7,4419.45 2190.67,4424.05C2179.81,4436.45 2180.11,4436.08 2169.48,4449.84C2164.06,4456.85 2159.01,4462.22 2158.27,4461.76C2157.51,4461.29 2157.33,4461.58 2157.85,4462.42C2158.98,4464.26 2150.9,4475.37 2147.9,4478.67C2144.91,4481.97 2142.8,4483.59 2143.22,4482.26C2143.67,4480.81 2141.61,4482.77 2142.08,4484.24C2142.81,4486.55 2142.49,4486.81 2139.8,4486.04C2137.35,4485.35 2140.29,4488.33 2137.85,4490.34C2115.8,4508.52 2113.62,4507.38 2114.02,4508.03C2115.07,4509.73 2108.43,4513.75 2106.52,4512.58C2105.61,4512.02 2105.27,4512.15 2105.72,4512.89C2106.8,4514.64 2074.1,4533.39 2071.75,4534.89C2065.05,4539.17 2067.78,4536.39 2063.62,4530.44ZM2361.56,4282.42C2116.84,4219.69 2474.47,3831.33 2691.17,3877.33C2694.93,3878.13 2712,3889.43 2712,3892.17C2712,3892.89 2716.23,3895.96 2715.33,3898.4C2714.98,3899.36 2715.28,3899.78 2715.99,3899.34C2718.22,3897.96 2726.79,3918.69 2728.94,3930.67C2733.99,3958.68 2730.14,3983.9 2718.77,3997.33C2715.65,4001.02 2708.23,4009.61 2700.57,4018.39C2697.62,4021.78 2694.82,4023.83 2693.72,4023.41C2692.7,4023.02 2692.21,4023.26 2692.64,4023.96C2693.07,4024.65 2691.75,4026.28 2689.71,4027.58C2687.67,4028.87 2685.51,4030.73 2684.9,4031.69C2684.29,4032.67 2681.61,4033.35 2679.16,4036.12C2673.64,4042.35 2665.33,4063.31 2665.33,4070.98C2665.33,4073.17 2664.77,4074.47 2664.01,4074.01C2663.28,4073.55 2663.03,4074.05 2663.45,4075.16C2664.99,4079.18 2656.38,4119.06 2654.25,4117.74C2653.52,4117.29 2653.33,4117.59 2653.84,4118.4C2656.5,4122.71 2644.55,4138.24 2633.15,4145.3C2620.47,4153.15 2617.13,4153.7 2577.33,4154.58L2540.67,4155.39L2531.33,4159.96C2526.2,4162.48 2521.26,4164.49 2520.35,4164.42C2519.44,4164.36 2519.03,4164.84 2519.43,4165.49C2519.84,4166.15 2519.08,4167.1 2517.75,4167.61C2516.42,4168.12 2514.17,4169.61 2512.75,4170.93C2509.86,4173.62 2506.93,4172.68 2507.3,4173.28C2507.67,4173.88 2505.13,4176.68 2501.65,4179.5C2492.13,4187.22 2476.34,4203.5 2475.36,4206.6C2474.88,4208.1 2473.93,4209.33 2473.24,4209.33C2472.56,4209.33 2472,4210.03 2472,4210.88C2472,4211.74 2468.68,4218.49 2464.62,4225.88C2456.96,4239.87 2450.36,4248.23 2443.05,4253.19C2437.51,4256.97 2423.98,4261.61 2421.41,4260.63C2420.31,4260.2 2419.86,4260.3 2420.39,4260.84C2420.93,4261.38 2415.82,4263.44 2409.02,4265.41C2402.23,4267.39 2392.61,4270.56 2387.65,4272.45C2382.69,4274.35 2378.34,4275.94 2377.99,4275.98C2376.78,4276.15 2372.64,4277.71 2367.11,4280.06L2361.56,4282.42ZM864.793,3388.2C864.409,3387.58 865.807,3385.43 867.9,3383.43C870.71,3380.74 871.915,3380.25 872.507,3381.56C872.948,3382.53 873.004,3382.08 872.632,3380.55C872.107,3378.38 873.97,3375.98 880.978,3369.76C891.257,3360.66 902.984,3352 905.048,3352C905.816,3352 906.644,3351.51 906.889,3350.92C907.573,3349.26 926.113,3337.21 937.817,3330.82C945.368,3326.7 950.283,3323.58 953.386,3321.97C955.783,3320.73 961.874,3317.07 966.92,3313.84C974.055,3309.26 977.333,3307.93 977.333,3307.5C977.333,3306.26 990.647,3299.83 990.825,3300.98C990.911,3301.54 990.877,3302.55 990.749,3303.22C990.621,3303.9 991.45,3303.68 992.591,3302.73C995.173,3300.59 995.307,3298.5 992.802,3299.47C991.776,3299.86 990.553,3299.56 990.084,3298.8C989.605,3298.03 992.684,3295.68 997.101,3293.45C1001.43,3291.26 1008.15,3287.6 1012.05,3285.31C1015.94,3283.01 1020.15,3281.06 1021.42,3280.96C1022.68,3280.87 1023.46,3280.15 1023.16,3279.36C1022.86,3278.58 1024.36,3276.91 1026.48,3275.65C1031.5,3272.69 1038.67,3266.39 1038.67,3264.95C1038.67,3264.33 1037.47,3264.2 1036,3264.67C1030.6,3266.38 1033.61,3262.9 1043.96,3255.44C1050.19,3250.96 1055.24,3248.2 1056.17,3248.77C1057.12,3249.36 1057.39,3249.18 1056.86,3248.31C1056.37,3247.52 1057.89,3245.51 1060.23,3243.84C1063.66,3241.39 1064.32,3241.24 1063.62,3243.07C1063.06,3244.52 1063.41,3245.33 1064.58,3245.33C1065.72,3245.33 1066.17,3244.38 1065.77,3242.84C1065.3,3241.06 1066.46,3239.52 1069.87,3237.41C1072.48,3235.8 1075.32,3234.91 1076.18,3235.45C1077.13,3236.03 1077.39,3235.84 1076.84,3234.94C1075.71,3233.12 1080.83,3230.2 1082.9,3231.48C1083.77,3232.02 1084.05,3231.82 1083.55,3231.01C1083.07,3230.24 1083.63,3229.25 1084.8,3228.8C1087.44,3227.78 1089.28,3228.98 1088.74,3228.12C1088.27,3227.35 1092.1,3224.64 1097.41,3221.96C1102.64,3219.33 1106.57,3217.74 1106.14,3218.44C1105.7,3219.15 1106.18,3220.04 1107.19,3220.43C1108.45,3220.91 1108.83,3220.37 1108.4,3218.74C1107.94,3216.98 1108.78,3216.09 1111.56,3215.4C1113.63,3214.88 1115.57,3214.55 1115.85,3214.67C1116.14,3214.79 1116.88,3214.09 1117.5,3213.11C1118.41,3211.66 1118.63,3211.69 1118.65,3213.25C1118.66,3214.63 1119.22,3214.44 1120.62,3212.59C1121.7,3211.16 1122.6,3210.44 1122.62,3210.98C1122.72,3213.15 1143.83,3203.82 1149.4,3199.14C1151.47,3197.4 1162.67,3193.02 1162.67,3193.95C1162.67,3195.78 1161.23,3203.37 1166.05,3199.2C1171.87,3194.17 1184.02,3185.4 1193.18,3180.64C1197.21,3178.55 1203.43,3173.93 1203.88,3173.23C1204.33,3172.53 1205.07,3171.99 1205.53,3172.03C1205.99,3172.07 1207.3,3171.75 1208.44,3171.31C1209.58,3170.88 1210.83,3170.84 1211.23,3171.24C1212.96,3172.97 1241.76,3182.9 1222.62,3200.85C1216.2,3206.87 1218.01,3205.81 1231.65,3195.55C1237.34,3191.26 1208.35,3186.57 1208.73,3186.95C1209.1,3187.33 1238.12,3194.27 1231.71,3200.57C1225.3,3206.87 1220.41,3212.38 1220.85,3212.82C1221.61,3213.58 1230.08,3209.4 1233.62,3206.51C1236.61,3204.09 1235.38,3207.1 1232.29,3209.77C1230.64,3211.19 1227.19,3214.29 1224.62,3216.64C1215.45,3225.07 1149.04,3250.13 1141.6,3253.97C1137.67,3256.01 1147.07,3246.12 1140.58,3253.33C1138.34,3255.83 1125.09,3274.18 1117.62,3274.86C1111.99,3275.37 1093.72,3262.03 1080.47,3275.02C1073.33,3282.02 1064.26,3291.81 1057.19,3298.67C1054.55,3301.23 1052.15,3304.02 1051.86,3304.85C1051.39,3306.2 1040.41,3329.48 1036.7,3331.23C1025.83,3336.35 956.741,3372.22 955.585,3376.16C954.841,3370.32 937.903,3376.53 941.274,3375.95C944.272,3366.82 942.401,3366.83 935.883,3375.99C933.36,3372.97 927.576,3376.27 923.03,3383.34C914.872,3382.69 913.803,3382.09 917.183,3380.08C918.504,3373.08 919.111,3371.04 918.532,3375.55C918.115,3370.04 912.548,3373.68 904.173,3384.93C900.164,3383.34 897.99,3382.24 900.354,3382.99C896.904,3382.68 875.186,3385.49 875.712,3386.11C876.237,3386.74 875.502,3386.37 874.077,3385.29C872.452,3384.06 871.861,3383.95 872.491,3385C873.145,3386.09 872.277,3387.13 869.993,3388C865.751,3389.62 865.667,3389.62 864.793,3388.2L864.793,3388.2ZM1309.33,3043.61C1307.22,3037.18 1313.63,3026.68 1318.59,3021.72C1321.57,3018.75 1324,3016.57 1324,3016.89C1324,3017.21 1325.35,3016.02 1327,3014.24C1330.74,3010.22 1348.17,2999.8 1361.03,2993.9C1366.36,2991.46 1370.86,2989.46 1371.03,2989.47C1371.62,2989.48 1406.11,2973.12 1413.33,2969.39C1419.75,2966.09 1438.64,2954.14 1460.91,2939.3C1467.89,2934.65 1495.46,2922.05 1501.43,2920.78C1503.21,2920.4 1513.67,2916.83 1524.67,2912.84C1535.67,2908.84 1549.17,2904.1 1554.67,2902.3C1560.17,2900.49 1568.87,2897.47 1574,2895.59C1579.44,2893.59 1590.29,2891.27 1600,2890.04C1609.17,2888.87 1623.8,2886.12 1632.52,2883.93C1655.19,2878.22 1674.45,2876.02 1702,2876.01C1720.06,2876 1729.96,2875.32 1742,2873.27C1794.21,2864.35 1803.97,2863.72 1895.33,2863.46L1971.33,2863.24L1985.58,2859.08C1993.42,2856.8 2004.52,2853.12 2010.25,2850.92C2015.98,2848.72 2022.47,2846.55 2024.67,2846.1C2026.87,2845.66 2035.57,2843.85 2044,2842.1C2058.62,2839.05 2089,2834.64 2095.12,2834.69C2097.42,2834.7 2097.6,2834.96 2096.04,2835.95C2092.51,2838.18 2096.8,2837.17 2111.14,2837.28C2118.92,2837.34 2133.09,2838.37 2129.7,2842.12C2048.16,2895.76 1315.39,3062.05 1309.33,3043.61ZM2250.26,2814.58C2249.32,2812.66 2243.91,2804.39 2245.69,2798.52C2247.48,2792.66 2254.79,2780.52 2254.37,2773.12C2252.82,2745.33 2269.09,2742.05 2278.68,2749.21C2279.38,2749.73 2287.87,2747.88 2288.83,2749.53C2324.32,2810.03 2286.52,2889.01 2250.26,2814.58ZM2183.03,2713.74C2184.32,2713.41 2186.12,2713.43 2187.03,2713.79C2187.93,2714.16 2186.87,2714.43 2184.67,2714.41C2182.47,2714.38 2181.73,2714.08 2183.03,2713.74L2183.03,2713.74ZM2113.18,2693.49C2113.09,2693.03 2102.72,2683.29 2102.51,2680.29C2102.18,2675.26 2103.1,2672.48 2106.47,2668.38C2109.37,2664.86 2139.55,2639.28 2158.54,2624.26C2161.04,2622.28 2164.64,2619.4 2166.54,2617.85C2168.44,2616.3 2175.4,2611.06 2182,2606.21C2197,2595.2 2194.9,2596.86 2206.65,2586.66C2212.14,2581.9 2217.35,2577.1 2218.21,2576C2220.51,2573.08 2232.75,2575.36 2231.16,2579.53C2230.41,2581.51 2221.73,2585.72 2222.51,2587.53C2226.44,2596.62 2241.61,2620.42 2238.92,2624.64C2234.66,2631.32 2221.4,2643.31 2209.28,2657.22C2207.61,2659.13 2189.29,2655.99 2190.03,2669.05C2190.97,2685.6 2134.68,2705.38 2115.67,2694.15C2114.56,2693.5 2113.26,2693.93 2113.18,2693.49L2113.18,2693.49ZM2314.67,2486.49C2314.67,2483.38 2321.6,2474.67 2324.07,2474.67C2324.76,2474.67 2325.22,2474.22 2325.07,2473.67C2324.93,2473.12 2327.03,2470.37 2329.74,2467.57C2332.45,2464.77 2334.67,2462.92 2334.67,2463.47C2334.67,2464.02 2336.15,2463.07 2337.96,2461.37C2339.77,2459.67 2340.88,2457.67 2340.42,2456.93C2339.96,2456.19 2340.23,2455.99 2341.02,2456.47C2341.81,2456.96 2343.55,2455.98 2344.89,2454.3C2348.16,2450.2 2358.38,2446 2372.95,2442.75C2379.55,2441.28 2386.48,2439.5 2388.34,2438.79C2390.2,2438.08 2392.09,2437.87 2392.53,2438.31C2392.97,2438.75 2393.33,2438.48 2393.33,2437.7C2393.33,2436.92 2394.91,2435.89 2396.85,2435.41C2400.51,2434.49 2407.14,2429.95 2414,2423.67C2418.09,2419.93 2421.06,2420.63 2420.67,2420C2420.28,2419.37 2422.74,2416.26 2426.14,2413.09C2440.64,2399.59 2450.97,2387.88 2460.64,2374C2468.82,2362.25 2474.86,2355.23 2476.36,2355.7C2477.01,2355.9 2477.14,2355.44 2476.67,2354.68C2475.61,2352.95 2489.44,2332.94 2495.9,2326.85C2502.64,2320.5 2508.28,2318.37 2515.78,2319.34C2526.04,2320.67 2528,2321.3 2528,2323.25C2528,2324.27 2528.75,2325.36 2529.67,2325.67C2530.95,2326.11 2530.9,2326.76 2529.43,2328.54C2526.49,2332.1 2429.24,2435.44 2427.24,2434.2C2426.39,2433.68 2426.09,2433.86 2426.55,2434.61C2427.01,2435.35 2419.64,2437.84 2414.42,2442.9C2408.97,2448.18 2404.16,2453.07 2403.85,2452.14C2403.46,2451.01 2401.95,2452.03 2395.61,2455.23C2386.51,2459.81 2384.24,2462.72 2379.05,2460.64C2374.77,2458.93 2374.7,2459.54 2372.17,2460.87C2368.76,2462.66 2359.48,2468.34 2352.19,2475.11C2346.79,2480.13 2328.22,2492.15 2325.65,2494.11L2314.67,2489.65L2314.67,2486.49L2314.67,2486.49Z" style="fill:rgb(0,78,111);fill-rule:nonzero;"/>
            <path id="path50" d="M0,6560L0,3639.63L15.667,3640.36C27.95,3640.94 34.932,3642.1 48,3645.77C70.599,3652.11 83.385,3656.99 91.333,3662.3C95,3664.76 102.5,3669.77 108,3673.45C128.458,3687.14 146.338,3694.37 188,3705.82C243.413,3721.05 247.355,3721.5 356,3725.32C377.633,3726.08 407.333,3727.39 422,3728.22C436.667,3729.06 475.667,3729.81 508.667,3729.88L568.667,3730L585.333,3737.26C594.5,3741.26 605.9,3746.77 610.667,3749.52C618.214,3753.86 627.153,3756.64 637.185,3757.82C645.556,3758.8 654.688,3758.65 664.409,3757.37C675.276,3755.93 678.847,3756.01 691.464,3758.01C709.066,3760.8 722.731,3760.21 751.954,3755.4C788.712,3749.34 849.8,3750.9 912,3759.49C920.433,3760.66 932.733,3761.7 939.333,3761.81C950.282,3761.98 951.996,3762.39 958.894,3766.37C968.838,3772.12 1004.31,3781.33 1016.48,3781.33C1026.77,3781.33 1050.71,3774.81 1069.48,3766.88C1077.78,3763.38 1087.59,3760.58 1098.57,3758.57C1118.9,3754.85 1124.24,3755.52 1153.87,3765.52C1171.88,3771.6 1175.47,3772.37 1188,3772.86C1195.7,3773.16 1204.55,3773.62 1207.67,3773.87C1214.6,3774.44 1214.5,3775.46 1209.9,3750.18C1204.96,3723.03 1200.52,3706.34 1194.61,3692.67C1187.05,3675.17 1174.99,3641.8 1173.23,3633.48C1171.41,3624.91 1172.26,3616.72 1175.34,3613.33C1176.57,3611.97 1182.91,3607.78 1189.44,3604.01C1208.67,3592.91 1230.51,3573.5 1252.44,3548C1258.43,3541.03 1267.83,3530.19 1273.33,3523.9C1292.7,3501.76 1325.68,3450.48 1344.01,3413.99C1356.17,3389.77 1356.17,3389.38 1343.98,3353.27C1338.68,3337.57 1332.4,3320.21 1330.02,3314.69C1327.64,3309.18 1325.33,3303.61 1324.88,3302.31C1323.96,3299.65 1320.48,3298.08 1312.57,3296.76C1307.21,3295.86 1307.11,3295.91 1304.66,3301.34C1301.73,3307.85 1296.3,3312.76 1290.67,3314C1287.32,3314.73 1285.78,3314.17 1281.92,3310.78C1274.97,3304.68 1271.99,3305.31 1264.44,3314.5C1256.06,3324.7 1254.12,3325.82 1245.55,3325.47C1240.79,3325.28 1237.32,3325.91 1235.1,3327.37C1233.27,3328.56 1228.9,3330.4 1225.4,3331.44C1216.76,3334 1213.87,3336.55 1205.43,3349.06C1197.57,3360.71 1194.92,3362.55 1184.38,3363.64C1179.06,3364.19 1176.57,3363.81 1173.8,3361.99C1170.25,3359.66 1170.13,3359.68 1167.32,3362.96C1165.74,3364.79 1161.65,3367.93 1158.24,3369.93L1152.02,3373.58L1152.84,3369.45C1153.3,3367.19 1153.3,3365.33 1152.86,3365.33C1152.41,3365.33 1147.81,3367.58 1142.63,3370.33C1134.79,3374.49 1131.69,3377.24 1124.18,3386.67C1119.22,3392.9 1114.15,3399.48 1112.91,3401.3C1110.1,3405.43 1110.11,3405.21 1113.33,3394.67C1114.79,3389.9 1115.98,3385.73 1115.99,3385.4C1116,3385.06 1113.53,3387.16 1110.51,3390.06C1104.92,3395.42 1098.74,3406.5 1098.63,3411.33C1098.58,3413.8 1098.37,3413.75 1095.82,3410.68C1094.3,3408.85 1091.6,3404.49 1089.82,3400.99C1086.05,3393.54 1086.94,3393.35 1071.04,3405.14C1065.17,3409.49 1058.34,3415.88 1055.85,3419.35C1052.94,3423.41 1051.19,3424.92 1050.92,3423.6C1050.49,3421.42 1051.3,3420.9 1024.16,3440.68C1010.84,3450.39 1004.52,3454.67 1003.49,3454.67C1003.15,3454.67 1003.83,3452.26 1004.98,3449.32C1006.14,3446.38 1006.7,3443.59 1006.23,3443.11C1005.75,3442.64 1001.31,3444.09 996.35,3446.34C991.391,3448.58 985.833,3450.85 984,3451.37C978.205,3453.03 964.427,3463.71 956.508,3472.67C952.309,3477.43 948.621,3481.07 948.313,3480.76C948.005,3480.45 948.744,3476.79 949.955,3472.62C951.166,3468.45 951.94,3464.83 951.675,3464.56C950.135,3463.02 933.731,3478.84 927.888,3487.5L921.11,3497.54L918.732,3493.11C917.425,3490.66 915.928,3486.72 915.405,3484.33C914.882,3481.95 914.002,3480 913.449,3480C911.591,3480 902.71,3494.1 899.332,3502.41C897.492,3506.94 895.313,3515.17 894.49,3520.71C893.135,3529.82 892.819,3530.53 891.16,3528.16C886.96,3522.16 883.729,3512.01 882.835,3502L881.881,3491.33L871.941,3511.64C866.473,3522.82 861.363,3531.97 860.584,3531.98C858.681,3532.01 853.499,3524.84 849.649,3516.86L846.508,3510.35L843.501,3513.18C841.847,3514.73 839.996,3516 839.386,3516C837.277,3516 839.874,3483.53 843.118,3469.33C847.945,3448.22 854.703,3423.83 856.972,3419.33C858.082,3417.13 862.817,3409.51 867.495,3402.4C875.539,3390.17 878.143,3383.97 874.333,3386.12C870.381,3388.35 876.077,3383.91 887.333,3375.99C893.933,3371.34 900.179,3366.9 901.214,3366.11C902.826,3364.87 902.833,3365.09 901.264,3367.61C898.637,3371.82 900.755,3372.97 905.022,3369.64C913.184,3363.28 918.752,3359.64 919.381,3360.27C919.748,3360.64 919.14,3362.68 918.032,3364.8C914.439,3371.69 915.508,3372.29 923.879,3368.06C928.213,3365.87 933.996,3362.56 936.732,3360.71C943.038,3356.43 944.908,3356.41 942.122,3360.67C938.54,3366.13 941.935,3364.5 952.521,3355.67C958.013,3351.08 964.492,3346.24 966.92,3344.91L971.333,3342.48L967.705,3345.32C963.886,3348.32 955.477,3359.92 956.433,3360.88C957.377,3361.82 974.616,3346.74 988.666,3332.68C1001.59,3319.74 1005.4,3316.89 1016.67,3311.71C1021.27,3309.6 1019.98,3311.22 1007.22,3323.63C991.96,3338.47 984.514,3346.61 988,3344.63C989.1,3344.01 991.8,3341.87 994,3339.89C1012.5,3323.21 1019.71,3317.66 1023.63,3317.09C1028.58,3316.38 1028.76,3315.98 1018.4,3328.23C1014.88,3332.39 1012,3336.16 1012,3336.61C1012,3337.63 1019.05,3332.83 1026.61,3326.67C1045.56,3311.22 1051.41,3306.18 1052,3304.82C1053.42,3301.55 1087.61,3267.06 1093.56,3262.89C1095.19,3261.75 1099.79,3260.37 1103.79,3259.83C1111.41,3258.8 1119.69,3254 1130.07,3244.61C1136.67,3238.64 1164.8,3217.33 1166.08,3217.33C1166.6,3217.33 1164.37,3220.18 1161.11,3223.67C1157.86,3227.15 1152.03,3234.69 1148.16,3240.42C1141.35,3250.52 1141.26,3250.77 1145.2,3248.74C1152.63,3244.89 1181.49,3223.58 1190.67,3215.16C1193.23,3212.8 1196.68,3209.71 1198.33,3208.28C1201.42,3205.61 1202.65,3202.6 1199.67,3205.03C1196.12,3207.91 1187.65,3212.09 1186.89,3211.33C1186.45,3210.9 1191.34,3205.38 1197.75,3199.09C1204.16,3192.79 1209.1,3187.33 1208.73,3186.95C1208.35,3186.57 1203.38,3189.77 1197.69,3194.06C1184.05,3204.32 1182.24,3205.39 1188.67,3199.36C1207.8,3181.41 1211.89,3176.78 1210.16,3175.06C1209.77,3174.66 1208.67,3174.64 1207.72,3175C1206.78,3175.36 1205.47,3175.68 1204.82,3175.72C1204.16,3175.75 1203.26,3176.35 1202.82,3177.05C1202.37,3177.75 1198.7,3180.04 1194.67,3182.13C1185.5,3186.88 1172.72,3195.23 1166.9,3200.26C1162.03,3204.47 1153.99,3209.71 1150.3,3211.07C1146.92,3212.32 1149.02,3208.91 1156.59,3200.89C1159.93,3197.34 1162.67,3194.21 1162.67,3193.92C1162.67,3193.63 1161.08,3194 1159.15,3194.74C1152.1,3197.42 1154.92,3195.06 1162.35,3192.06C1166.56,3190.36 1170.6,3188.29 1171.33,3187.46C1172.07,3186.63 1175.36,3184.76 1178.65,3183.31C1181.94,3181.86 1189.44,3177.75 1195.31,3174.18C1201.19,3170.62 1210.73,3165.32 1216.52,3162.41C1224.51,3158.39 1230.19,3154.05 1240.25,3144.29C1251.52,3133.36 1254.29,3129.78 1259.02,3120.07C1262.08,3113.8 1266.84,3105.25 1269.62,3101.08C1272.39,3096.91 1278.17,3086.71 1282.46,3078.41C1291.22,3061.49 1306.31,3035.71 1310.41,3030.66L1313.11,3027.33L1311.22,3034.62C1309.01,3043.18 1308.88,3045.33 1310.59,3045.33C1311.28,3045.33 1316.53,3042.07 1322.26,3038.07C1327.98,3034.08 1336.27,3028.89 1340.67,3026.54C1345.07,3024.2 1350.5,3020.89 1352.73,3019.18C1360.34,3013.39 1388.56,2999.66 1403.3,2994.57C1427.2,2986.32 1441.66,2982.46 1443.13,2983.93C1444.43,2985.23 1440.42,2992.01 1430.68,3005C1428.35,3008.12 1426.99,3010.67 1427.68,3010.67C1428.92,3010.67 1436.93,3007.99 1450.67,3003C1464.68,2997.9 1481.64,2989.35 1494.45,2980.92C1501.54,2976.26 1510.33,2970.84 1514,2968.88C1524.47,2963.27 1556.35,2949.24 1557.04,2949.93C1557.39,2950.28 1554.14,2954.7 1549.83,2959.77C1541.05,2970.1 1539.88,2971.54 1533.43,2980C1530.92,2983.3 1527.96,2986.75 1526.85,2987.67C1523.32,2990.57 1526.22,2989.5 1538.29,2983.45C1551.69,2976.73 1573.94,2967.65 1586.67,2963.71C1604.1,2958.32 1638.45,2943.34 1636.92,2941.81C1636.55,2941.44 1629.23,2942.72 1620.64,2944.64C1605.91,2947.95 1593.97,2948.81 1600.67,2946.09C1602.13,2945.49 1609.93,2941.85 1618,2937.99C1626.07,2934.13 1637.76,2928.7 1643.98,2925.94C1654.81,2921.12 1658.67,2918.65 1658.67,2916.56C1658.67,2915.7 1649.32,2916.06 1622.67,2917.95L1614,2918.57L1622.67,2916.68C1634.72,2914.05 1664.89,2914.16 1676,2916.87C1692.75,2920.95 1719.05,2920.62 1746.67,2915.96C1750.7,2915.28 1763.3,2913.19 1774.67,2911.32C1786.03,2909.44 1799.53,2906.82 1804.67,2905.49L1814,2903.06L1802,2902.13C1783.95,2900.73 1783.89,2900.7 1795.05,2898.96C1809.41,2896.71 1832.05,2896.93 1843.99,2899.42C1853.96,2901.5 1854.01,2901.5 1871.99,2897.24C1906.97,2888.96 1905.85,2889.68 1884.07,2889.5C1863.07,2889.33 1856.8,2887.58 1872.27,2886.21C1917.04,2882.24 1927.16,2881.05 1935.33,2878.78C1952.09,2874.12 1970.96,2870.72 1992,2868.56C2003.37,2867.4 2018.37,2865.66 2025.33,2864.69C2037.82,2862.96 2037.88,2862.93 2030,2862.7C2025.6,2862.57 2019.3,2862.02 2016,2861.47L2010,2860.47L2016,2859.61C2019.3,2859.14 2026.2,2858.4 2031.33,2857.96C2046.2,2856.68 2075.35,2852.11 2092,2848.45C2107.97,2844.93 2124,2840.25 2124,2839.1C2124,2838.74 2120.85,2838.6 2117,2838.8C2105.25,2839.41 2094.67,2838.74 2094.67,2837.37C2094.67,2835.91 2107.68,2831.9 2122.76,2828.72C2139.52,2825.18 2156.93,2812.95 2171.75,2794.3C2182,2781.39 2205.98,2731.31 2210.11,2714.19C2210.91,2710.87 2210.7,2710.47 2208.51,2711.13C2207.13,2711.55 2198.5,2712.55 2189.33,2713.36L2172.65,2714.83L2155.99,2709.49C2127.94,2700.49 2119.11,2697.29 2116.5,2695.17C2115.12,2694.05 2114.76,2693.52 2115.68,2693.99C2116.61,2694.46 2119.01,2693.57 2121.02,2692.01C2128.88,2685.92 2137.21,2680 2137.92,2680C2138.33,2680 2138.67,2681.2 2138.67,2682.67C2138.67,2684.13 2138.88,2685.33 2139.14,2685.33C2139.41,2685.33 2143.3,2681.63 2147.8,2677.1C2152.3,2672.58 2156.28,2669.17 2156.65,2669.54C2157.02,2669.91 2156.39,2673.37 2155.24,2677.24C2154.09,2681.1 2153.38,2684.49 2153.65,2684.76C2153.92,2685.03 2157.68,2681.1 2161.99,2676.01C2171.3,2665.04 2173.33,2663.85 2173.33,2669.38C2173.33,2673.21 2173.65,2673.01 2182.84,2663.34C2191.84,2653.86 2195.95,2651.26 2196.04,2655C2196.07,2655.95 2196.91,2655.57 2198.01,2654.12C2199.07,2652.72 2201.3,2650.01 2202.97,2648.1C2215.09,2634.19 2220.27,2627.68 2224.53,2621C2227.22,2616.78 2229.08,2613.33 2228.66,2613.33C2228.25,2613.33 2228.57,2611.98 2229.39,2610.33C2230.21,2608.68 2227.53,2610.73 2223.44,2614.88C2215.01,2623.44 2213.83,2622.03 2220.02,2610.79C2226.14,2599.69 2225.17,2598.58 2215.85,2605.99C2212.63,2608.55 2209.55,2610.65 2209,2610.65C2206.75,2610.68 2208.29,2606.31 2213.32,2598.39C2216.25,2593.77 2218.65,2588.44 2218.65,2586.53C2218.68,2578.58 2224.11,2568.58 2227.65,2569.94C2228.65,2570.32 2229.11,2570.04 2228.66,2569.32C2228.21,2568.59 2228.63,2567.98 2229.59,2567.95C2230.55,2567.92 2233.43,2566.04 2236,2563.77C2238.57,2561.5 2239.82,2560.12 2238.79,2560.7C2237.5,2561.42 2237.23,2561.24 2237.93,2560.12C2238.48,2559.22 2239.25,2558.81 2239.64,2559.2C2240.52,2560.08 2243.74,2557.57 2256.66,2545.96C2262.2,2540.99 2267.53,2536.26 2268.5,2535.46C2269.48,2534.66 2276.27,2526.2 2283.61,2516.67C2298.58,2497.2 2314.67,2481.69 2314.67,2486.71C2314.67,2489.62 2314.71,2489.62 2319.33,2486.09C2321.9,2484.13 2324,2482.82 2324,2483.17C2324,2483.52 2327.38,2480.26 2331.51,2475.93C2338.99,2468.09 2341.33,2467.17 2341.33,2472.08C2341.33,2475.66 2342.6,2475.33 2348,2470.31C2355.29,2463.54 2365.69,2455.22 2369.1,2453.43C2371.63,2452.1 2373.19,2452.19 2377.47,2453.9C2382.66,2455.98 2382.84,2455.95 2391.93,2451.37C2398.27,2448.18 2401.31,2447.24 2401.69,2448.37C2402.01,2449.3 2406.23,2446.14 2411.6,2440.94C2416.75,2435.96 2424.5,2429.3 2428.83,2426.16C2433.15,2423.01 2438.12,2418.39 2439.88,2415.89C2441.63,2413.38 2446.93,2408.1 2451.65,2404.16C2457.66,2399.13 2463.19,2392.53 2470.07,2382.16C2475.47,2374 2481.12,2365.83 2482.61,2364C2484.1,2362.17 2488.95,2355.72 2493.37,2349.67C2498.01,2343.33 2502.39,2338.66 2503.71,2338.65C2504.97,2338.64 2508.49,2337.21 2511.55,2335.46C2515.18,2333.39 2517.54,2332.74 2518.4,2333.6C2519.9,2335.1 2524.35,2333.17 2528.85,2329.08L2531.7,2326.48L2535.85,2334.79C2538.13,2339.36 2540,2344.39 2540,2345.97C2540,2349.09 2549.02,2375.56 2552.29,2382.03C2555.53,2388.45 2556.11,2396.26 2554.58,2412.96C2553.79,2421.6 2552.71,2433.32 2552.19,2439C2551.24,2449.3 2551.25,2449.33 2554.46,2449.33C2556.23,2449.33 2561.84,2447.83 2566.92,2446C2578.22,2441.92 2582.8,2441.8 2586.13,2445.47C2588.3,2447.88 2588.66,2450.35 2588.62,2462.47C2588.55,2486.3 2587.48,2490.88 2580.15,2499C2576.67,2502.85 2572.89,2507.37 2571.75,2509.05C2570.61,2510.73 2566.9,2515.04 2563.5,2518.62C2560.11,2522.21 2557.33,2525.82 2557.33,2526.64C2557.33,2527.47 2554.96,2531.64 2552.06,2535.91C2538.3,2556.17 2529.31,2579.55 2525.1,2606C2521.06,2631.41 2520.52,2650.64 2523.42,2666.4C2526.84,2684.96 2527.04,2748.82 2523.73,2765.33C2520.17,2783.09 2518.83,2800.41 2517.9,2840.67C2517.15,2873.23 2517.34,2879.44 2519.37,2889.31C2521.22,2898.28 2521.51,2903.92 2520.81,2916.64C2518.98,2949.59 2514.42,2968.55 2502.71,2991.94C2499.21,2998.94 2491.69,3016.37 2486,3030.67C2474.6,3059.33 2470.78,3067.39 2456.95,3092C2445.62,3112.15 2434.64,3128.83 2422.7,3144C2414.9,3153.92 2400,3176.98 2400,3179.14C2400,3179.98 2389.1,3197.68 2381.46,3209.25C2378.82,3213.24 2371.26,3222.24 2364.65,3229.25C2358.04,3236.26 2348.44,3246.78 2343.31,3252.63C2338.19,3258.47 2328.87,3268.68 2322.59,3275.3C2316.32,3281.92 2308.75,3290.93 2305.78,3295.33C2302.8,3299.73 2297.03,3308.26 2292.95,3314.28C2274.33,3341.72 2269.96,3356.88 2260,3428.67C2257.76,3444.8 2254.77,3464 2253.35,3471.33C2251.94,3478.67 2249.52,3494.57 2247.98,3506.67C2246.45,3518.77 2244.02,3536.77 2242.6,3546.67C2235.61,3595.21 2233.01,3625.25 2233.83,3648C2234.62,3669.57 2237.19,3697.47 2239.98,3714.67C2240.76,3719.43 2243.46,3735.93 2246,3751.33C2248.53,3766.73 2251.25,3784.43 2252.04,3790.67C2252.83,3796.9 2254.8,3807.1 2256.43,3813.33L2259.39,3824.67L2278.7,3825.53C2289.31,3826 2302.8,3827.01 2308.67,3827.77C2334.27,3831.1 2358.97,3835.01 2371.33,3837.7C2391.02,3841.97 2421.53,3841.87 2437.33,3837.46C2454.57,3832.66 2458.79,3832.09 2484.18,3831.15C2511.43,3830.14 2513.97,3830.58 2534.51,3839.86C2542.3,3843.38 2551.37,3846.95 2554.67,3847.8C2572.09,3852.28 2594.59,3856.19 2610,3857.42C2619.9,3858.21 2636.41,3860.81 2648.5,3863.49C2671.39,3868.55 2693.26,3875.73 2690.68,3877.32C2689.82,3877.86 2689.14,3878.68 2689.18,3879.14C2689.23,3879.6 2689.02,3880.73 2688.73,3881.65C2685.64,3891.54 2685.05,3899.58 2685.85,3921.18C2686.66,3943.12 2686.51,3945.46 2683.58,3956.69C2679.44,3972.54 2671.7,3987.85 2664.94,3993.54C2648.09,4007.74 2644.56,4014.43 2643.11,4034.86C2642.26,4046.8 2639.6,4053.31 2635.57,4053.35C2634.71,4053.36 2630.93,4054.79 2627.18,4056.53C2619.98,4059.89 2617.33,4064.1 2617.33,4072.2C2617.33,4077.91 2613.36,4080.97 2604.5,4082.08C2594.31,4083.35 2571.3,4079.84 2560.21,4075.32C2547.98,4070.34 2536.75,4069.55 2529.66,4073.17C2525.09,4075.5 2523.83,4077.01 2522.57,4081.67C2519.52,4092.93 2518.51,4094.42 2510.49,4099.45C2500.17,4105.91 2496.66,4110.26 2494.73,4118.92C2493.86,4122.82 2492.24,4128.16 2491.13,4130.8C2488.08,4138.04 2475.01,4148.82 2464.47,4152.79C2453.75,4156.83 2448.24,4160.54 2446.61,4164.82C2445.86,4166.8 2445.97,4172.03 2446.91,4178.66C2449.41,4196.4 2445.74,4201.47 2422.55,4212.31C2408.19,4219.02 2398.46,4227.6 2393.21,4238.18C2390.39,4243.87 2388.83,4245.24 2380.53,4249.33C2368.3,4255.36 2366.9,4256.61 2365.94,4262.47C2362.84,4281.43 2362.89,4281.33 2356.37,4284.13C2353.03,4285.56 2343.55,4288.53 2335.29,4290.73C2311.23,4297.15 2297.71,4303.32 2284.67,4313.84C2276.51,4320.41 2259.34,4339.3 2249.67,4352.34C2242.66,4361.79 2238.47,4366.67 2240.64,4362.86C2242.16,4360.17 2234.47,4362.07 2224.67,4366.8C2213.91,4371.99 2213.36,4372.51 2206.57,4383.98C2200.25,4394.66 2186.86,4409.06 2170.67,4422.59C2156.31,4434.58 2152.56,4437.86 2141.08,4448.5C2135.44,4453.73 2125.74,4461.5 2119.51,4465.78C2113.29,4470.06 2107.84,4474.49 2107.4,4475.64C2106.96,4476.79 2106.23,4482.29 2105.78,4487.86L2104.97,4498L2096.15,4506.67C2091.3,4511.44 2084.01,4518.34 2079.95,4522C2075.89,4525.67 2070.82,4531.13 2068.67,4534.15C2066.53,4537.16 2061.45,4541.79 2057.39,4544.42C2044.47,4552.8 2018.83,4575.97 1991.38,4604.08C1944.97,4651.59 1942.64,4653.7 1930.01,4659.85C1910.7,4669.23 1865.56,4679.14 1829.28,4681.95C1761.93,4687.17 1735.03,4695.8 1687.33,4727.46C1674.41,4736.04 1652.91,4751.57 1648.75,4755.33C1642.94,4760.58 1629.54,4771.48 1620,4778.73C1613.77,4783.46 1608.37,4787.68 1608,4788.09C1607.63,4788.51 1603.73,4791.47 1599.33,4794.67C1594.93,4797.87 1583.23,4808.37 1573.33,4818C1543.07,4847.45 1528.31,4860 1523.96,4860C1522.65,4860 1514.92,4867.25 1506.57,4876.33C1480.09,4905.12 1464.04,4921.29 1452.88,4930.43C1440.28,4940.76 1434.06,4947.34 1418.64,4966.67C1403.37,4985.81 1389.21,5002.57 1377.55,5015.31C1358.51,5036.13 1350.04,5051.53 1348.69,5067.79C1347.5,5082.17 1345.72,5090.27 1342.04,5097.99C1335.33,5112.08 1318.71,5127.47 1289,5147.09C1280.5,5152.7 1271.55,5159.12 1269.11,5161.35C1262.96,5166.96 1241.85,5181.87 1226.67,5191.31C1209.15,5202.21 1187.17,5217.23 1171.33,5229.13C1164,5234.64 1155.3,5241.11 1152,5243.52C1148.7,5245.92 1143.6,5249.68 1140.67,5251.89C1137.73,5254.09 1130.83,5259.25 1125.33,5263.35C1115.25,5270.88 1099.07,5285.16 1085.31,5298.67C1047.3,5336 1017.68,5363 994.638,5381.33C969.722,5401.15 904.129,5465.53 894.781,5479.33C881.936,5498.3 861.299,5537.94 853.826,5558C847.358,5575.36 846.24,5595.16 847.089,5677.33C847.638,5730.46 848.202,5745.8 849.981,5756C851.484,5764.62 852.541,5782.09 853.287,5810.67C854.33,5850.62 854.55,5853.16 857.787,5862.83C864.745,5883.6 867.76,5914.83 864.077,5928C862.263,5934.48 836.526,5999.98 831.067,6012C823.169,6029.39 820.543,6034.92 812.502,6051.1C802.943,6070.33 796.377,6081.87 786.649,6096.57C782.987,6102.09 778.232,6110.98 776.08,6116.31C773.928,6121.64 769.956,6131.1 767.252,6137.33C749.911,6177.32 745.095,6190.4 733.376,6229.33C731.059,6237.03 728.346,6245.73 727.348,6248.67C719.232,6272.51 706.457,6316.73 701.947,6336.58C696.705,6359.66 696.023,6375.02 696.011,6470.33L696,6560L0,6560ZM2160,3806.95C2160,3803.57 2149.33,3765.3 2142.64,3744.67C2130.26,3706.48 2130.41,3707.17 2131.24,3693.33C2134.36,3641.22 2132.66,3603.48 2125.3,3561.33C2116.43,3510.61 2114.51,3497.57 2114.07,3485.36C2113.82,3478.38 2112.93,3460.07 2112.09,3444.67C2111.25,3429.27 2110.04,3406.77 2109.4,3394.67C2108.18,3371.71 2106.47,3363.52 2100.36,3351.33C2098.52,3347.67 2096.84,3344.47 2096.63,3344.24C2096.43,3344 2092.15,3345.03 2087.13,3346.52C2071.93,3351.04 2051.45,3354.49 2034.22,3355.45C2019.84,3356.25 2017.61,3356.09 2015.61,3354.09C2012.61,3351.09 2005.66,3349.18 2000.68,3349.98C1995.39,3350.83 1946.47,3352.48 1925.33,3352.52C1916.17,3352.53 1904.77,3351.86 1900,3351.02C1895.23,3350.18 1887.22,3349.22 1882.19,3348.89C1874.28,3348.37 1872.68,3348.65 1870.33,3351.01C1867.76,3353.57 1867,3353.64 1857.47,3352.19C1851.89,3351.34 1844.03,3350.65 1839.99,3350.66C1831.69,3350.67 1827.2,3348.63 1806.67,3335.52C1793.98,3327.42 1789.9,3326.26 1780.8,3328.14C1778.91,3328.53 1777.2,3326.87 1774.06,3321.56C1765.61,3307.31 1739.34,3285.07 1721.19,3276.8C1718.7,3275.67 1715.32,3273.75 1713.67,3272.54C1710.76,3270.41 1710.67,3270.45 1710.67,3273.75C1710.67,3275.62 1709.11,3285.45 1707.21,3295.58C1705.3,3305.71 1702.66,3320.3 1701.32,3328C1697.93,3347.63 1692.78,3367.19 1687.95,3378.78C1685.68,3384.22 1683.04,3390.8 1682.07,3393.4C1679.67,3399.84 1672.48,3413.96 1668.23,3420.58C1664.68,3426.1 1653.42,3441.46 1652.03,3442.67C1651.6,3443.03 1647.25,3448.51 1642.36,3454.83C1637.47,3461.15 1624.7,3474.5 1614,3484.51C1578.77,3517.44 1548.71,3550.64 1536.61,3569.99C1519.99,3596.56 1506.28,3622.65 1504.72,3630.67C1502.48,3642.14 1502.48,3648.08 1504.69,3654.95C1509.12,3668.68 1536.43,3731.43 1541,3738.37C1546.29,3746.39 1548.05,3747.6 1556.17,3748.73C1563.79,3749.8 1583.11,3755.48 1590.46,3758.8C1597.15,3761.83 1610.41,3773.85 1612.19,3778.5C1613.38,3781.63 1613.55,3781.66 1628.36,3780.98C1642.27,3780.34 1645.42,3779.63 1672.67,3770.97C1707.08,3760.03 1711.37,3759.02 1750,3752.7C1766.13,3750.06 1781.13,3747.33 1783.33,3746.64C1793.22,3743.53 1810.88,3742.47 1859.33,3742.06C1900.63,3741.72 1914.21,3741.15 1925.33,3739.33C1945.92,3735.95 1953.72,3736.89 1972.39,3744.99C1980.89,3748.68 1991.93,3754.38 1996.92,3757.66C2011.29,3767.1 2033.74,3778.57 2045,3782.23C2051.26,3784.26 2061.12,3786.09 2070,3786.85C2089.54,3788.54 2089.04,3788.44 2096.67,3791.86C2103.64,3794.99 2115.19,3798.36 2142,3805.07C2161.56,3809.97 2160,3809.81 2160,3806.95L2160,3806.95ZM1492.93,3788.48L1499.86,3787.65L1495.11,3778.16C1492.5,3772.94 1489.51,3767.69 1488.47,3766.5C1487.42,3765.31 1481.71,3756.31 1475.77,3746.5C1460.37,3721.03 1456.92,3715.63 1446.56,3700.67C1428.39,3674.41 1414.72,3653.29 1410.24,3644.54C1408.4,3640.94 1404.74,3635 1402.11,3631.34C1399.48,3627.67 1396.96,3622.69 1396.51,3620.28C1394.71,3610.69 1404.79,3593.49 1425.02,3571.63C1440.9,3554.47 1447.46,3545.85 1457.46,3529.02C1461.84,3521.64 1467.11,3513.45 1469.19,3510.81C1472.6,3506.46 1487.58,3481.31 1497.81,3462.74C1503.15,3453.06 1514.79,3425.67 1515.68,3420.71C1516.33,3417.06 1515.41,3417.64 1504.01,3428.04C1497.21,3434.25 1487.67,3443.48 1482.82,3448.55C1459.79,3472.61 1416.7,3515.41 1405.33,3525.52C1392.6,3536.84 1364.6,3557.95 1354.55,3563.81C1340.78,3571.85 1311.74,3604.81 1294.94,3631.45C1287.68,3642.97 1277.31,3665.23 1271.08,3682.67C1265.6,3697.99 1265.19,3700.03 1265.95,3708C1268.04,3729.73 1279.56,3774.57 1283.11,3774.75C1283.97,3774.79 1287.62,3775.31 1291.23,3775.9C1294.85,3776.5 1308.23,3776.53 1320.98,3775.99C1344.01,3775 1350.41,3775.39 1374.67,3779.24C1388.37,3781.41 1392.42,3782.4 1404.67,3786.51C1411.89,3788.93 1416.22,3789.2 1449.33,3789.25C1469.5,3789.28 1489.12,3788.93 1492.93,3788.48L1492.93,3788.48ZM2280.67,2805.43C2289.68,2781.94 2295.22,2765.45 2294.38,2764.61C2294.13,2764.35 2291.33,2769.06 2288.17,2775.07C2285.01,2781.08 2281,2788.11 2279.26,2790.68C2276.46,2794.8 2266.55,2830.81 2266.73,2836.21C2266.84,2839.51 2271.77,2828.61 2280.67,2805.43ZM2266.92,2798.52C2272.28,2789.68 2277.7,2780.54 2278.95,2778.22C2281.32,2773.86 2286.67,2756.9 2286.67,2753.78C2286.67,2750.35 2284.17,2752.05 2281.1,2757.57C2276.72,2765.43 2274,2766.01 2275.15,2758.84C2277.05,2747 2272.11,2756.1 2266.72,2774.4C2264.62,2781.51 2261.44,2792.13 2259.65,2798C2252.64,2820.97 2253.29,2821.02 2266.92,2798.52ZM1022.67,3314.06C1022.67,3313.68 1025.67,3310.05 1029.33,3306C1036.1,3298.53 1037.09,3298.3 1034.63,3304.76C1033.88,3306.75 1033.52,3308.63 1033.83,3308.95C1034.6,3309.72 1044.93,3304.4 1045.99,3302.69C1046.45,3301.94 1047.42,3301.33 1048.16,3301.33C1050.63,3301.33 1047.87,3304 1040.55,3308.68C1032.28,3313.98 1032,3314.06 1032,3311.33C1032,3309.07 1029.91,3308.65 1028.67,3310.66C1027.7,3312.22 1022.67,3315.08 1022.67,3314.06ZM2179.58,2651C2180.36,2648.83 2185.5,2642.02 2191.67,2635C2195.9,2630.19 2197.82,2631.12 2196.8,2637.49C2195.86,2643.35 2193.17,2646.37 2185.05,2650.7C2179,2653.92 2178.53,2653.95 2179.58,2651ZM2207.28,2633.33C2207.89,2632.23 2209.61,2629.98 2211.1,2628.33C2213.94,2625.18 2212.55,2624.14 2209.3,2627C2208.26,2627.92 2208.57,2627.27 2210,2625.56C2211.43,2623.86 2212.82,2623.11 2213.08,2623.91C2213.34,2624.7 2214.23,2624.94 2215.04,2624.43C2217.13,2623.14 2211.28,2631.17 2208.47,2633.45C2206.45,2635.09 2206.3,2635.08 2207.28,2633.33L2207.28,2633.33Z" style="fill:rgb(0,46,64);fill-rule:nonzero;"/>
        </g>
        <g id="L1-Wolf1" serif:id="L1 Wolf">
        </g>
    </g>
</svg>
