<?xml version="1.0" encoding="UTF-8" standalone="no"?>
<!DOCTYPE svg PUBLIC "-//W3C//DTD SVG 1.1//EN" "http://www.w3.org/Graphics/SVG/1.1/DTD/svg11.dtd">
<svg width="100%" height="100%" viewBox="0 0 1920 1079" version="1.1" xmlns="http://www.w3.org/2000/svg" xmlns:xlink="http://www.w3.org/1999/xlink" xml:space="preserve" xmlns:serif="http://www.serif.com/" style="fill-rule:evenodd;clip-rule:evenodd;stroke-linejoin:round;stroke-miterlimit:2;">
    <g transform="matrix(3.20344,0,0,3.20344,960,539.892)">
        <g id="L3-Tree" serif:id="L3 Tree" transform="matrix(1,0,0,1,-299.678,-168.535)">
            <g id="Image" transform="matrix(1.33333,0,0,1.33333,0,0)">
                <path id="path30" d="M222.938,208.295C222.938,207.388 222.389,206.436 221.718,206.178C221.048,205.921 218.662,201.277 218.662,200.83C218.662,200.383 219.271,200.251 220.015,200.536C221.041,200.93 221.189,200.776 220.63,199.901C219.417,198.004 219.637,194.977 220.95,195.481C221.729,195.78 221.94,195.518 221.611,194.661C221.333,193.934 221.647,193.203 222.355,192.931C223.294,192.571 223.364,192.2 222.656,191.346C222.129,190.711 222,189.617 222.357,188.8C222.701,188.011 222.909,186.909 222.819,186.351C222.729,185.792 223.026,185.334 223.478,185.334C223.931,185.334 224.091,184.786 223.833,184.115C223.576,183.445 223.748,182.896 224.215,182.896C224.683,182.896 225.313,181.245 225.616,179.228C225.918,177.211 226.489,175.36 226.885,175.116C227.28,174.871 227.635,173.87 227.674,172.89C227.73,171.439 227.875,171.549 228.452,173.478C228.842,174.781 228.97,176.155 228.737,176.532C228.504,176.909 228.916,177.448 229.653,177.731C230.723,178.142 230.774,178.383 229.907,178.932C229.03,179.489 229.026,179.622 229.887,179.632C230.472,179.638 230.725,180.01 230.449,180.457C229.79,181.523 230.558,181.486 232.681,180.35C234.268,179.501 234.294,179.353 233.023,178.424C231.39,177.23 231.633,174.522 233.577,172.252C234.343,171.358 234.753,170.278 234.49,169.852C234.226,169.426 234.398,169.077 234.872,169.077C235.345,169.077 235.774,168.071 235.826,166.842C235.9,165.072 236.048,165.273 236.536,167.807C236.875,169.568 237.897,171.612 238.807,172.349C240.507,173.725 240.017,176.314 238.262,175.23C236.528,174.158 237.37,177.016 239.187,178.372C240.83,179.597 240.851,179.69 239.39,179.282C237.841,178.849 237.834,178.882 239.246,179.978C240.678,181.091 240.678,181.138 239.246,181.421C237.95,181.678 238.044,181.959 240,183.671C242.498,185.857 242.838,186.96 241.016,186.96C239.335,186.96 239.49,188.057 241.42,189.803C242.705,190.965 242.842,191.512 242.082,192.429C241.332,193.333 241.377,193.749 242.288,194.326C242.929,194.732 243.82,195.081 244.268,195.102C244.715,195.123 244.418,195.643 243.609,196.256C242.68,196.961 242.455,197.567 243,197.904C244.07,198.566 245.921,204.062 244.873,205.659C244.161,206.743 243.983,206.743 243.272,205.659C242.585,204.613 242.47,204.639 242.459,205.847C242.445,207.389 240.904,212.636 238.849,211.847C238.124,211.569 238.564,211.386 238.849,211.847C239.144,212.324 235.559,208.911 233.666,208.911C231.914,208.911 228.783,209.143 226.709,209.428C223.292,209.896 222.938,209.79 222.938,208.295L222.938,208.295ZM257.887,204.14C258.136,203.185 257.97,202.405 257.517,202.405C257.064,202.405 256.895,201.88 257.141,201.238C257.387,200.596 257.152,199.886 256.618,199.659C255.973,199.386 256.158,198.927 257.168,198.293C258.391,197.524 258.471,197.204 257.578,196.652C256.686,196.101 256.787,195.708 258.09,194.654C258.982,193.933 259.193,193.613 258.558,193.943C257.669,194.405 257.553,194.186 258.053,192.987C258.41,192.131 258.776,190.72 258.865,189.852C258.954,188.983 259.458,188.129 259.984,187.953C260.511,187.778 260.71,187.259 260.426,186.8C260.142,186.341 260.414,185.646 261.03,185.256C261.9,184.705 261.811,184.544 260.629,184.534C259.333,184.523 259.265,184.331 260.175,183.234C260.762,182.527 261.296,181.233 261.36,180.361C261.424,179.488 261.903,178.348 262.423,177.827C263.144,177.107 263.37,177.302 263.37,178.643C263.37,179.72 263.766,180.254 264.386,180.016C265.118,179.736 265.402,180.796 265.402,183.801C265.402,187.214 265.699,188.096 267.028,188.636C267.922,188.999 268.196,189.319 267.638,189.347C266.231,189.419 266.362,192.275 267.841,193.753C268.925,194.837 268.918,195.115 267.78,196.252C266.616,197.417 266.62,197.578 267.827,198.041C268.557,198.321 268.983,198.993 268.776,199.535C268.568,200.077 268.705,201.018 269.082,201.627C270.112,203.294 269.564,207.286 264.112,207.967C259.507,208.543 255.35,208.699 257.887,204.14L257.887,204.14ZM270.7,202.015C270.359,201.133 270.203,200.704 271.073,199.982C271.745,199.425 272.127,198.7 271.924,198.371C271.721,198.043 272.324,196.948 273.264,195.939C274.479,194.636 274.697,193.933 274.018,193.513C273.318,193.081 273.29,192.321 273.912,190.686C274.379,189.456 274.572,188.142 274.34,187.766C274.107,187.391 274.562,186.915 275.35,186.71C276.68,186.363 276.677,186.329 275.305,186.242C273.913,186.153 273.924,186.011 275.484,183.82C276.395,182.54 276.937,181.29 276.689,181.041C276.44,180.793 276.784,179.371 277.453,177.881C278.122,176.392 278.856,174.625 279.084,173.954C279.351,173.171 279.522,173.372 279.563,174.518C279.599,175.498 280.385,176.831 281.31,177.479C282.411,178.25 282.645,178.774 281.988,178.993C281.242,179.242 281.3,179.624 282.212,180.476C283.105,181.31 283.276,182.353 282.839,184.292C282.323,186.581 282.456,186.96 283.777,186.96C284.624,186.96 285.318,187.326 285.318,187.773C285.318,188.22 284.952,188.586 284.505,188.586C283.619,188.586 283.743,190.351 284.677,191.054C285.61,191.755 284.411,195.113 283.396,194.643C282.888,194.408 283.068,194.656 283.795,195.195C284.983,196.074 285.819,197.536 283.901,199.13C279.336,202.924 273.039,208.07 270.7,202.015ZM286.539,190.888C286.804,188.504 287.604,184.542 288.317,182.083C289.03,179.624 289.756,177.094 289.931,176.46C290.331,175.007 291.737,176.285 292.161,178.488C292.327,179.351 292.898,181.673 293.43,183.648C293.962,185.623 294.535,188.625 294.703,190.32C295.001,193.315 295.844,196.564 292.911,197.059C291.252,197.338 288.909,197.026 288.107,197.247C286.794,197.609 286.105,194.786 286.539,190.888ZM429.358,170.54C429.412,174.006 426.349,171.293 426.349,168.755C426.349,164.42 424.935,165.498 424.092,164.701C423.789,164.415 423.032,163.445 423.032,162.7C423.032,161.955 422.627,160.623 422.132,160.623C421.637,160.623 422.422,157.79 422.674,157.134C422.926,156.478 422.454,155.396 422.027,155.132C421.599,154.868 422.693,152.055 422.693,150.245C422.693,147.14 422.808,146.982 424.725,147.463C425.897,147.757 426.757,147.623 426.757,147.145C426.757,146.689 427.477,146.317 428.357,146.317C429.446,146.317 429.808,145.927 429.49,145.097C429.232,144.427 429.427,143.878 429.922,143.878C430.416,143.878 430.821,143.173 430.821,142.312C430.821,141.451 431.461,140.578 432.244,140.374C433.599,140.02 433.599,139.998 432.244,139.908C430.514,139.793 430.32,137.375 432.041,137.375C432.711,137.375 433.26,136.826 433.26,136.156C433.26,135.146 433.516,135.18 434.755,136.359C435.665,137.225 435.979,138.137 435.558,138.69C435.143,139.235 435.354,140.003 436.086,140.611C436.757,141.168 437.106,141.948 436.861,142.344C436.616,142.741 437.056,143.065 437.838,143.065C439.123,143.065 439.107,143.181 437.683,144.259C436.28,145.32 436.26,145.455 437.502,145.478C438.346,145.494 438.73,145.945 438.471,146.618C438.236,147.231 438.655,147.967 439.401,148.254C440.503,148.676 440.57,149.002 439.755,149.984C438.918,150.992 439.046,151.194 440.524,151.194C441.5,151.194 442.089,151.532 441.833,151.945C441.578,152.358 442.013,152.865 442.801,153.07C443.919,153.362 443.843,153.465 442.453,153.538C439.494,153.695 439.41,155.253 442.357,155.31C445.015,155.361 445.023,155.372 443.014,156.264L440.982,157.166L442.883,157.497C444.468,157.774 444.697,158.172 444.264,159.898C443.862,161.5 444.011,161.865 444.926,161.514C445.575,161.264 446.308,161.262 446.554,161.508C447.407,162.36 447.583,168.815 443.092,170.207C440.445,171.028 437.15,172.356 435.774,173.791C433.145,176.536 432.704,175.658 431.326,174.28L429.358,170.54ZM428.383,150.023C428.383,149.825 428.017,149.438 427.57,149.162C427.123,148.885 426.757,149.047 426.757,149.52C426.757,149.994 427.123,150.381 427.57,150.381C428.017,150.381 428.383,150.22 428.383,150.023Z" style="fill:rgb(18,50,63);fill-rule:nonzero;"/>
            </g>
        </g>
        <g id="L3-Tree1" serif:id="L3 Tree">
        </g>
    </g>
</svg>
