<?xml version="1.0" encoding="UTF-8" standalone="no"?>
<!DOCTYPE svg PUBLIC "-//W3C//DTD SVG 1.1//EN" "http://www.w3.org/Graphics/SVG/1.1/DTD/svg11.dtd">
<svg width="100%" height="100%" viewBox="0 0 1920 1079" version="1.1" xmlns="http://www.w3.org/2000/svg" xmlns:xlink="http://www.w3.org/1999/xlink" xml:space="preserve" xmlns:serif="http://www.serif.com/" style="fill-rule:evenodd;clip-rule:evenodd;stroke-linejoin:round;stroke-miterlimit:2;">
    <g transform="matrix(3.20344,0,0,3.20344,960,539.891)">
        <g id="L4-Mounten" serif:id="L4 Mounten" transform="matrix(1,0,0,1,-299.678,-168.535)">
            <clipPath id="_clip1">
                <rect x="0" y="0" width="599.356" height="337.07"/>
            </clipPath>
            <g clip-path="url(#_clip1)">
                <g id="Image" transform="matrix(1.33333,0,0,1.33333,0,0)">
                    <g id="g188">
                        <path id="path192" d="M78.54,172.808C77.646,172.449 69.54,174.985 69.14,175.219C68.74,175.453 68.494,172.493 68.721,171.309C69.003,169.833 69.178,169.689 68.42,169.689C67.811,169.689 67.823,168.396 67.823,168.061C67.823,167.726 79.163,163.793 83.522,163.793C87.881,163.793 92.892,163.391 94.699,163.213C102.969,162.397 97.654,164.47 91.654,167.431C83.902,171.257 81.08,173.83 78.54,172.808ZM226.04,165.305C225.693,164.402 227.062,165.069 221.354,165.042C217.267,165.022 210.742,165.924 208.953,165.527C201.055,163.769 199.605,161.219 198.558,159.651C197.944,158.733 196.785,157.982 195.982,157.982C193.637,157.982 190.648,156.078 190.648,154.831C190.648,154.194 190.12,153.47 189.474,153.223C188.829,152.975 187.522,151.249 186.57,149.387C184.512,145.365 182.891,143.97 180.277,143.97C178.764,143.97 178.449,143.642 178.825,142.459C179.108,141.566 178.649,140.384 177.875,139.741C176.674,138.744 176.684,138.565 177.994,137.607C179.332,136.629 179.336,136.464 178.067,135.062C176.341,133.154 180.912,130.872 182.668,130.872C183.437,130.872 186.638,133.591 189.781,136.915C194.858,142.284 196.039,143.105 200.373,144.285C209.227,146.696 221.413,150.632 227.604,153.081C234.765,155.913 247.235,158.503 253.734,158.507C256.258,158.509 262.232,157.746 267.008,156.813C271.784,155.88 275.838,155.262 276.015,155.44C276.193,155.617 279.39,158.696 278.704,159.674C277.598,161.254 278.719,166.847 272.811,166.879C268.737,166.9 261.69,165.281 259.701,166.066C255.266,167.818 246.685,166.231 243.659,165.176C241.742,164.507 242.995,164.439 241.348,165.267C237.825,167.04 229.823,165.908 229.296,164.535L226.04,165.305ZM311.477,154.184C310.869,153.452 305.053,154.569 303.837,154.569C301.321,154.569 299.653,149.56 301.766,146.484C302.675,145.161 305.204,145.313 313.725,147.551C319.317,149.02 323.509,149.568 329.147,149.568L336.89,149.568L337.031,153.453C335.67,154.815 330.766,157.365 323.338,157.79C315.657,158.229 312.429,155.332 311.477,154.184ZM414.67,156.164C415.538,155.508 429.337,141.213 428.899,141.213C428.462,141.213 440.506,147.594 440.444,146.777C440.366,145.737 442.022,145.133 445.108,143.62L449.517,141.457L458.232,144.727C458.232,149.618 454.583,159.822 448.284,159.793C445.249,159.779 413.197,157.278 414.67,156.164ZM423.898,146.217C423.641,145.801 426.256,141.342 426.67,141.087C427.631,140.493 430.008,141.385 430.008,142.339C430.008,143.301 424.496,147.184 423.898,146.217ZM377.578,134.936C381.345,133.978 395.241,133.978 394.649,134.936C394.354,135.413 389.973,140.506 384.406,140.45C378.271,140.388 376.004,135.337 377.578,134.936Z" style="fill:rgb(49,137,163);fill-rule:nonzero;"/>
                        <path id="path190" d="M201.231,205.233C193.592,202.849 188.227,202.7 175.405,204.518C165.423,205.933 148.461,205.73 144.488,204.148C143.205,203.637 142.252,202.633 142.252,201.793C142.252,200.987 141.683,199.515 140.987,198.521C140.291,197.528 140.074,196.715 140.504,196.715C140.963,196.715 140.898,195.878 140.347,194.689C139.83,193.575 138.972,192.66 138.439,192.657C137.907,192.654 137.216,192.237 136.903,191.732C136.56,191.176 136.779,190.961 137.458,191.188C138.965,191.69 140.735,189.814 140.162,188.322C139.91,187.664 140.094,186.883 140.571,186.588C142.341,185.494 141.35,184.858 138.391,185.189C136.715,185.376 135.618,185.241 135.954,184.888C136.291,184.536 136.003,183.626 135.316,182.866C134.17,181.6 134.271,181.444 136.533,180.991C138.035,180.691 139.001,179.994 139.001,179.21C139.001,178.502 139.367,178.149 139.814,178.425C140.261,178.701 140.627,178.54 140.627,178.067C140.627,177.593 140.222,177.206 139.727,177.206C139.232,177.206 139.037,176.657 139.295,175.986C139.609,175.168 139.258,174.767 138.229,174.767C135.952,174.767 134.071,173.884 134.583,173.056C134.83,172.656 134.301,172.329 133.407,172.329C132.513,172.329 131.555,171.963 131.279,171.516C130.986,171.042 131.809,170.703 133.253,170.703C135.337,170.703 135.7,170.413 135.537,168.874C135.43,167.868 135.025,166.814 134.637,166.531C134.249,166.249 134.771,165.179 135.796,164.153C137.563,162.387 154.78,205.839 153.333,205.331C151.469,204.677 109.694,188.88 111.363,187.659C112.051,187.157 117.631,153.32 117.3,152.456C116.87,151.337 132.608,146.04 132.89,144.757C133.394,142.463 133.542,142.407 141.655,141.413C146.193,140.857 151.019,139.947 152.379,139.391C153.739,138.834 157.961,137.77 161.761,137.026C165.562,136.281 170.5,134.79 172.735,133.712C177.792,131.274 179.834,130.968 181.552,132.394C183.297,133.843 183.264,135.433 181.474,136.127C180.131,136.647 180.135,136.74 181.536,137.772C182.419,138.422 182.913,139.624 182.755,140.736C182.536,142.278 182.894,142.64 184.793,142.793C187.812,143.036 188.911,144.033 190.959,148.39C191.894,150.379 193.206,152.007 193.874,152.007C194.542,152.007 195.046,152.281 194.993,152.616C194.692,154.525 195.326,155.258 197.28,155.258C198.523,155.258 200.41,156.158 201.642,157.339C204.597,160.17 211.582,161.697 221.736,161.732C228.396,161.755 230.189,162.009 230.561,162.981C231.154,164.524 234.927,164.558 238.531,163.052C240.486,162.236 243.146,162.033 247.762,162.349C252.967,162.706 254.621,162.532 256.144,161.465C257.567,160.468 259.914,160.136 265.524,160.136L273.007,160.136L275.469,157.148C277.82,154.297 285.38,150.381 288.536,150.381C289.259,150.381 291.232,149.677 292.919,148.817C298.52,145.961 300.779,145.415 301.306,146.787C301.959,148.488 307.527,151.194 310.375,151.194C311.674,151.194 313.666,151.926 314.803,152.82C317.183,154.692 321.007,154.83 329.439,153.349C333.783,152.587 335.332,151.914 336.755,150.171C339.564,146.732 368.503,139.69 368.503,142.316C368.503,143.389 366.739,144.566 364.235,145.164C361.724,145.764 361.267,147.033 363.413,147.446C364.652,147.685 364.582,147.962 362.854,149.69C361.411,151.133 361.177,151.761 361.982,152.029C362.651,152.252 361.994,152.961 360.306,153.837L357.529,155.279L359.763,155.845C360.991,156.156 362.546,156.199 363.217,155.941C363.889,155.684 364.439,155.801 364.439,156.201C364.439,157.371 360.295,160.299 358.639,160.299C356.813,160.299 356.625,161.785 358.366,162.453C359.442,162.866 359.415,163.086 358.163,164.092C356.88,165.123 357.338,165.223 362.203,164.974C365.887,164.785 367.69,164.993 367.69,165.606C367.69,167.343 364.02,169.933 361.187,170.196C359.622,170.341 358.342,170.905 358.342,171.45C358.342,172.641 356.325,174.987 354.198,176.27C352.741,177.15 352.777,177.252 354.83,178.057C356.028,178.527 358.406,178.754 360.114,178.561L363.219,178.211L360.171,179.09C358.494,179.574 357.123,180.299 357.123,180.702C357.123,181.104 356.574,181.434 355.903,181.434C355.233,181.434 354.684,181.982 354.684,182.653C354.684,183.324 354.227,183.878 353.668,183.885C353.109,183.891 352.127,184.229 351.485,184.636C350.518,185.248 350.5,185.594 351.381,186.655C351.966,187.36 352.294,187.937 352.111,187.937C351.927,187.937 335.094,190.735 329.938,191.375C324.342,192.069 317.474,192.359 312.898,192.094C308.609,191.846 303.114,192.049 300.422,192.555C297.775,193.052 295.455,193.304 295.266,193.115C295.077,192.926 285.868,195.312 284.679,195.708C283.915,195.963 270.913,204.033 269.216,204.018C268.275,204.009 268.148,203.81 268.814,203.387C269.412,203.007 258.14,203.175 257.894,204.116C257.508,205.589 257.026,205.759 254.416,205.342C251.467,204.87 221.364,203.339 219.589,204.843C218.533,205.737 216.704,206.473 215.524,206.478C214.344,206.483 212.099,206.658 210.534,206.868C208.798,207.1 205.17,206.463 201.231,205.233L201.231,205.233ZM111.363,187.659C111.363,187.15 110.723,186.247 109.941,185.653C108.654,184.677 108.751,184.565 110.957,184.483C112.298,184.434 112.936,184.208 112.374,183.982C111.813,183.755 111.56,183.235 111.813,182.826C112.065,182.418 111.919,182.083 111.487,182.083C111.056,182.083 110.884,181.388 111.107,180.538C111.425,179.319 110.938,178.866 108.795,178.391C106.233,177.823 106.18,177.744 107.861,176.988C110.878,175.631 110.783,174.072 107.647,173.483C105.367,173.055 104.998,172.736 105.744,171.837C106.253,171.223 106.969,170.906 107.335,171.131C107.7,171.357 108.214,171.196 108.475,170.772C108.737,170.349 108.595,169.782 108.161,169.514C107.726,169.245 107.576,168.488 107.828,167.832C108.144,167.009 107.739,166.638 106.525,166.638C105.55,166.638 104.99,166.273 105.27,165.82C105.549,165.37 105.227,164.791 104.557,164.533C103.886,164.276 103.536,163.547 103.779,162.913C104.024,162.274 103.73,161.745 103.118,161.725C102.512,161.706 103.478,160.921 105.267,159.981C107.055,159.041 109.981,157.094 111.77,155.653C115.527,152.627 118.639,150.883 119.229,151.473C120.181,152.425 119.844,160.425 118.837,160.76C117.527,161.197 119.132,163.387 120.763,163.387C121.352,163.387 122.07,163.767 122.357,164.232C122.696,164.78 122.143,164.893 120.787,164.553C118.028,163.86 116.862,166.332 119.157,168.01C121.284,169.566 121.126,170.935 118.692,172.028C117.573,172.53 117.116,172.786 117.231,173.033C117.303,173.19 117.606,173.344 118.116,173.555C119.468,174.115 119.441,174.237 117.774,175.075C116.035,175.95 115.044,179.312 116.297,180.086C117.291,180.7 115.138,184.486 113.491,185.018C112.65,185.29 112.284,185.747 112.678,186.033C113.918,186.933 113.856,188.586 112.583,188.586C111.912,188.586 111.363,188.169 111.363,187.659L111.363,187.659ZM74.83,189.336C72.863,188.784 72.85,188.735 74.423,187.816C76.02,186.884 76.017,186.867 74.287,186.842C71.646,186.805 69.953,185.968 69.953,184.698C69.953,184.04 70.782,183.566 71.934,183.566C73.415,183.566 73.885,183.155 73.793,181.94C73.717,180.93 74.643,179.722 72.131,180.315C71.124,180.552 70.745,179.915 71.059,179.095C71.344,178.353 71.061,177.876 70.334,177.876C69.677,177.876 69.14,177.353 69.14,176.715C69.14,174.904 79.571,169.89 81.804,169.89C84.082,169.89 90.807,167.213 95.106,164.594C96.671,163.641 98.591,162.626 99.373,162.337C101.729,161.468 112.083,161.47 111.195,162.539C110.629,163.222 120.309,188.996 119.455,189.267C118.601,189.538 87.92,185.998 87.92,186.892C87.92,188.148 96.289,174.759 97.544,174.361C100.164,173.529 99.427,174.581 95.715,176.972L99.954,178.402L95.106,179.632L97.951,180.065L94.758,182.263C92.194,184.029 91.833,184.564 92.924,184.983C97.041,186.563 79.991,190.786 74.83,189.336ZM372.258,181.253C370.962,180.465 369.213,178.763 368.372,177.471C367.531,176.178 366.266,174.658 365.562,174.093C364.45,173.202 364.55,173.084 366.314,173.204C369.781,173.439 371.307,173.122 370.784,172.276C370.508,171.829 369.663,171.462 368.907,171.461C368.151,171.46 366.253,170.363 364.688,169.024L361.843,166.589L364.688,166.466C367.148,166.359 367.231,166.296 365.297,166.003C364.068,165.817 363.062,165.316 363.062,164.89C363.062,164.46 364.055,164.35 365.297,164.642C366.527,164.932 367.716,165.165 367.939,165.16C369.788,165.124 370.378,164.806 370.378,163.846C370.378,163.135 368.628,162.388 365.527,161.778C361.346,160.956 358.336,159.443 360.372,159.187C360.734,159.142 362.459,158.976 364.206,158.819C368.408,158.44 369.565,157.939 369.565,156.495C369.565,155.64 368.456,155.223 365.711,155.047C362.784,154.859 361.791,154.452 361.583,153.355C361.432,152.561 361.612,151.964 361.982,152.029C363.841,152.353 363.758,151.772 361.685,149.947C359.763,148.256 359.642,147.937 360.917,147.915C362.257,147.892 362.21,147.71 360.51,146.317C358.606,144.755 358.603,144.734 360.217,143.497C361.827,142.263 361.825,142.251 360.042,142.225C358.099,142.197 364.745,138.227 365.645,136.845C366.305,135.831 366.459,135.82 380.442,135.803C390.711,135.791 395.746,136.17 396.595,137.018C396.791,137.214 403.658,138.069 402.242,138.069C400.826,138.069 427.879,140.526 427.879,140.526C431.207,140.615 439.063,161.532 437.098,161.532C434.799,161.532 394.351,160.539 395.633,162.084C396.442,163.059 396.303,163.268 394.842,163.268C393.779,163.268 393.287,163.62 393.612,164.147C393.911,164.63 395.03,164.806 396.099,164.538C398.865,163.843 398.508,165.364 395.604,166.65C393.024,167.792 392.61,168.519 394.038,169.401C394.584,169.739 394.279,170.383 393.225,171.121C390.582,172.972 391.225,173.835 395.245,173.835C399.396,173.835 399.45,174.966 395.361,176.256C392.889,177.035 392.937,177.059 396.325,176.737C399.536,176.432 399.767,176.523 398.64,177.65C397.952,178.339 395.928,179.556 394.144,180.355C391.042,181.743 374.511,182.623 372.258,181.253ZM438.976,165.139C438.976,164.644 433.018,155.36 435.976,155.204C437.366,155.13 437.443,155.027 436.325,154.736C433.747,154.063 442.216,151.194 445.907,151.194L449.517,151.194L460.06,157.229C460.06,160.583 449.182,163.387 448.771,163.387C448.361,163.387 440.969,165.274 440.262,165.546C439.555,165.817 438.976,165.634 438.976,165.139L438.976,165.139Z" style="fill:rgb(26,71,86);fill-rule:nonzero;"/>
                    </g>
                    <g transform="matrix(1.18695,0,0,0.872818,-159.224,-41.3984)">
                        <path d="M512.863,252.125C534.043,243.042 527.153,232.18 512.863,228.874C493.849,224.475 459.287,220.727 439.636,215.595L417.843,253.123L134.146,252.125L134.146,337.07L512.863,337.07L512.863,252.125Z" style="fill:rgb(26,71,86);"/>
                    </g>
                </g>
            </g>
        </g>
        <g id="L4-Mounten1" serif:id="L4 Mounten">
        </g>
    </g>
</svg>
