<?xml version="1.0" encoding="UTF-8" standalone="no"?>
<!DOCTYPE svg PUBLIC "-//W3C//DTD SVG 1.1//EN" "http://www.w3.org/Graphics/SVG/1.1/DTD/svg11.dtd">
<svg width="100%" height="100%" viewBox="0 0 1920 1079" version="1.1" xmlns="http://www.w3.org/2000/svg" xmlns:xlink="http://www.w3.org/1999/xlink" xml:space="preserve" xmlns:serif="http://www.serif.com/" style="fill-rule:evenodd;clip-rule:evenodd;stroke-linejoin:round;stroke-miterlimit:2;">
    <g transform="matrix(3.20344,0,0,3.20344,960,539.891)">
        <g id="L5-Mounten" serif:id="L5 Mounten" transform="matrix(1,0,0,1,-299.678,-168.535)">
            <clipPath id="_clip1">
                <rect x="0" y="0" width="599.356" height="337.07"/>
            </clipPath>
            <g clip-path="url(#_clip1)">
                <g id="Image" transform="matrix(1.33333,0,0,1.33333,0,0)">
                    <g id="g30">
                        <path id="path34" d="M230.303,133.607C225.693,133.462 221.118,132.869 219.735,132.236C217.806,131.354 216.212,131.3 212.11,131.978C208.358,132.599 206.522,132.585 205.474,131.93C204.482,131.311 203.168,131.27 201.318,131.801C199.829,132.228 195.144,129.799 190.788,129.799C183.057,129.799 182.871,129.754 183.06,127.97C183.243,126.242 182.983,126.148 178.376,126.273C175.694,126.345 169.679,129.006 164.652,129.326C158.525,129.717 155.168,129.621 154.465,129.038C153.888,128.559 151.599,127.923 149.378,127.624C147.158,127.325 145.158,126.81 144.935,126.479C144.711,126.149 139.216,125.175 135.047,124.912C130.878,124.648 126.945,124 126.308,123.472C125.671,122.943 125.15,122.826 125.15,123.211C125.15,123.597 124.221,122.91 123.085,121.685C121.949,120.46 120.315,119.458 119.453,119.458C118.456,119.458 118.042,119.051 118.315,118.339C118.641,117.488 116.455,117.03 112.296,116.584C105.639,115.871 100.274,113.838 99.178,111.791C98.477,110.481 98.652,109.949 100.119,108.921L101.921,107.66L99.986,106.117C98.922,105.269 97.137,104.174 96.019,103.685L94.67,102.794L96.702,102.249L98.734,101.704L96.905,100.709C95.899,100.162 95.076,99.221 95.076,98.618C95.076,98.015 94.345,97.331 93.45,97.097C90.952,96.443 91.523,94.894 94.263,94.894C97.234,94.894 97.38,93.9 94.67,92.124C92.3,90.571 98.34,86.467 100.593,87.38C101.375,87.697 103.844,88.613 106.08,89.416C108.315,90.218 111.79,91.635 113.802,92.566C115.814,93.496 118.248,94.265 119.211,94.275C120.174,94.285 123.1,95.483 125.714,96.937C128.327,98.391 131.929,100.086 133.717,100.702C135.505,101.319 139.462,103.294 142.509,105.092C146.942,107.707 149.136,108.461 153.483,108.862C157.156,109.201 160.677,110.214 164.352,111.989C169.469,114.461 170.313,114.615 178.752,114.615C184.454,114.615 189.132,115.059 191.606,115.835C203.297,119.503 205.138,119.915 220.694,122.339C224.718,122.966 230.205,124.245 232.887,125.182C235.57,126.118 240.049,127.103 242.84,127.37C247.274,127.793 253.392,130.282 252.153,131.222C251.374,131.814 248.2,133.306 246.412,133.227C244.623,133.148 234.773,133.748 230.303,133.607L230.303,133.607ZM314.142,123.881C312.13,123.441 309.714,122.369 308.772,121.498C307.83,120.627 304.8,119.762 303.172,119.497C301.543,119.233 300.206,118.607 300.201,118.107C300.189,117.031 294.48,114.148 292.824,114.382C292.192,114.472 289.813,114.502 287.538,114.449C283.99,114.366 283.272,114.07 282.498,112.372C281.744,110.717 283.188,107.351 284.342,107.088C285.102,106.915 286.821,107.314 288.163,107.976C291.93,109.834 302.159,112.176 306.504,112.176C308.654,112.176 313.434,112.898 317.126,113.779C327.608,116.283 332.515,116.618 337.476,115.167C339.861,114.47 344.098,113.7 346.892,113.457C350.991,113.099 353.435,114.07 353.435,115.021C353.435,116.263 350.996,119.252 350.259,118.515C350.022,118.278 348.419,118.437 346.697,118.868C344.976,119.3 342.561,119.88 341.332,120.157C340.102,120.434 339.096,121.152 339.096,121.753C339.096,123.824 321.83,125.563 314.142,123.882L314.142,123.881ZM444.999,110.644C444.131,109.988 442.77,109.439 441.974,109.425C440.626,109.401 434.433,107.029 427.417,103.849C425.301,102.89 424.344,101.893 424.165,100.464C424.004,99.172 410.625,90.888 409.588,90.734C405.639,90.146 411.137,87.558 411.137,86.673C411.137,86.151 409.141,81.309 408.227,80.336L413.678,75.821L417.036,75.37C419.287,75.069 421.913,75.448 424.998,76.519C429.435,78.06 437.582,79.774 445.656,80.865L449.517,81.387L449.517,104.572C449.517,111.04 449.356,111.838 448.047,111.838C447.238,111.838 445.867,111.301 444.999,110.644Z" style="fill:rgb(63,149,177);fill-rule:nonzero;"/>
                        <path id="path32" d="M134.425,126.401C142.124,130.027 149.976,132.805 157.844,134.998C166.075,137.292 176.5,127.482 184.606,128.795C192.317,130.045 197.723,142.451 205.039,143.345C227.503,146.091 247.456,148.382 260.931,157.722C424.091,270.812 214.761,348.143 -1.925,256.522C-39.686,240.555 0.067,171.696 0,158.549C-0.018,154.97 -18.886,111.379 -19.805,113.473C-22.699,120.071 7.705,134.26 20.324,122.358C21.876,120.895 44.827,107.992 46.154,106.645C47.062,105.722 48.409,105.336 49.992,105.543C51.922,105.796 52.229,105.65 51.466,104.845C49.376,102.637 52.147,101.868 61.925,101.943C70.586,102.009 71.606,101.856 73.92,100.147C78.005,97.13 94.194,87.846 96.284,87.321C97.769,86.949 98.33,87.235 98.758,88.584C99.062,89.543 100.272,90.763 101.445,91.294L103.58,92.261L100.83,92.667C97.656,93.136 96.568,95.003 99.085,95.661C100.026,95.907 100.796,96.626 100.796,97.258C100.796,97.891 101.354,98.622 102.036,98.884C102.923,99.224 103.037,99.648 102.436,100.372C101.813,101.123 102.477,101.968 105.007,103.641L108.417,105.898L106.581,107.385L104.745,108.872L106.632,110.906C108.183,112.578 109.574,113.038 114.452,113.491C118.953,113.91 120.284,114.308 119.965,115.142C119.733,115.746 120.052,116.24 120.674,116.24C121.297,116.24 122.931,117.187 124.307,118.345C126.403,120.109 131.706,125.12 134.425,126.401ZM240.203,156.569C235.732,155.58 230.246,153.945 228.01,152.936C225.775,151.926 221.568,150.415 218.662,149.579C204.389,145.473 198.682,143.676 196.767,142.686C195.614,142.09 192.368,139.166 189.551,136.188L184.431,130.774L180.371,131.289C178.139,131.573 174.593,132.676 172.491,133.74C170.39,134.805 165.744,136.246 162.168,136.942C158.591,137.638 154.202,138.725 152.413,139.356C149.253,140.471 120.176,125.971 120.152,124.252L127.726,121.37L136.005,121.757C141.822,122.029 144.478,122.475 144.934,123.257C145.328,123.931 146.992,124.369 149.154,124.369C151.117,124.369 152.984,124.79 153.301,125.304C153.72,125.982 157.367,126.091 166.559,125.702C173.532,125.407 180.033,124.951 181.005,124.689C182.483,124.29 182.816,124.591 183.037,126.526L183.302,128.84L192.244,128.534C197.162,128.365 201.977,127.929 202.945,127.564C204.124,127.12 204.833,127.235 205.093,127.913C205.393,128.693 206.984,128.75 212.043,128.16C217.465,127.529 218.932,127.61 220.485,128.628C221.84,129.516 223.836,129.767 227.627,129.527C230.52,129.343 235.367,129.606 238.399,130.11C243.124,130.897 244.192,130.842 245.889,129.73C246.978,129.017 249.436,128.425 251.352,128.416C256.466,128.389 260.978,125.961 265.376,120.867C267.519,118.385 271.328,115.207 273.84,113.804C276.353,112.402 279.408,110.64 280.63,109.89C282.771,108.575 283.338,108.738 284.57,110.497C285.707,112.12 286.541,112.322 292.11,112.322C297.677,112.322 298.618,112.55 300.582,114.371C301.798,115.498 303.55,116.51 305.012,116.798C306.475,117.085 308.117,117.946 308.661,118.71C310.21,120.883 316.078,121.931 326.699,121.931C335.517,121.931 336.553,121.778 337.31,120.364C338.118,118.853 343.204,117.335 349.096,116.847C350.914,116.696 351.618,116.151 351.975,114.615C352.357,112.975 353.837,111.987 359.629,109.503C363.578,107.81 368.866,104.852 371.381,102.93C373.895,101.009 377.964,98.146 380.423,96.569C382.882,94.992 385.781,92.737 386.865,91.558C387.949,90.38 389.309,89.416 389.889,89.416C390.468,89.416 391.753,88.318 392.745,86.977C393.737,85.636 394.906,84.539 395.343,84.539C395.78,84.539 396.717,84.015 397.425,83.376C398.134,82.736 399.707,81.302 400.922,80.188C402.137,79.073 403.966,77.901 404.987,77.583C406.007,77.264 407.074,76.641 407.359,76.198C408.017,75.175 414.046,74.461 413.416,75.482C413.161,75.894 413.863,76.829 414.977,77.559C416.091,78.289 417.003,79.609 417.003,80.493C417.003,81.676 417.553,82.1 419.088,82.1C421.996,82.1 424.318,83.507 424.318,85.269C424.318,86.314 425.827,87.412 429.399,88.969C432.193,90.187 435.632,91.7 437.041,92.332C438.449,92.963 440.117,93.48 440.746,93.48C441.376,93.48 442.601,94.017 443.469,94.674C444.336,95.33 446.052,95.879 447.282,95.893L449.517,95.919L449.517,118.633C449.517,118.633 452.56,253.736 449.517,252.803C446.976,252.023 273.563,252.292 270.688,252.803C267.813,253.313 262.943,157.342 260.931,157.722C255.051,158.832 248.894,158.49 240.203,156.569L240.203,156.569Z" style="fill:rgb(40,97,113);fill-rule:nonzero;"/>
                    </g>
                </g>
            </g>
        </g>
        <g id="L5-Mounten1" serif:id="L5 Mounten">
        </g>
    </g>
</svg>
