<?xml version="1.0" encoding="UTF-8" standalone="no"?>
<!DOCTYPE svg PUBLIC "-//W3C//DTD SVG 1.1//EN" "http://www.w3.org/Graphics/SVG/1.1/DTD/svg11.dtd">
<svg width="100%" height="100%" viewBox="0 0 1920 1079" version="1.1" xmlns="http://www.w3.org/2000/svg" xmlns:xlink="http://www.w3.org/1999/xlink" xml:space="preserve" xmlns:serif="http://www.serif.com/" style="fill-rule:evenodd;clip-rule:evenodd;stroke-linejoin:round;stroke-miterlimit:2;">
    <g transform="matrix(3.20344,0,0,3.20344,960,539.892)">
        <g id="L6-Mounten" serif:id="L6 Mounten" transform="matrix(1,0,0,1,-299.678,-168.535)">
            <clipPath id="_clip1">
                <rect x="0" y="0" width="599.356" height="337.07"/>
            </clipPath>
            <g clip-path="url(#_clip1)">
                <g id="Image" transform="matrix(1.33333,0,0,1.33333,0,0)">
                    <g id="g102">
                        <path id="path106" d="M314.378,100.341C312.254,99.259 310.517,97.871 310.517,97.256C310.517,96.111 305.68,95.106 300.164,95.106C296.891,95.106 293.094,92.665 291.464,89.513C290.835,88.295 288.824,86.587 286.996,85.716C284.391,84.475 283.497,83.491 282.861,81.17C282.29,79.085 281.478,78.064 280.118,77.723C278.702,77.368 278.043,76.481 277.654,74.407C277.362,72.851 276.498,71.212 275.734,70.767C274.478,70.034 274.5,69.954 275.97,69.937C276.864,69.926 278.693,70.665 280.034,71.579C284.851,74.862 290.065,77.156 297.585,79.301C304.447,81.259 307.764,82.462 321.235,87.883C323.339,88.73 327.021,89.416 329.464,89.416C331.896,89.416 335.486,89.986 337.442,90.683C342.834,92.603 361.728,96.735 364.967,96.703C366.538,96.687 368.738,96.151 369.856,95.512C370.974,94.873 373.168,94.364 374.733,94.381C377.511,94.411 377.479,94.447 373.37,95.908C371.056,96.732 367.77,98.351 366.069,99.507C362.47,101.953 358.218,102.414 359.041,100.269C359.472,99.146 359.173,99.02 357.186,99.49C351.104,100.929 342.395,101.767 330.838,102.026C318.826,102.295 318.059,102.217 314.378,100.341ZM183.709,101.047C183.709,99.511 177.386,98.357 168.983,98.359C164.34,98.36 157.25,97.796 153.226,97.105C149.202,96.414 144.721,95.665 143.268,95.441C141.161,95.115 140.627,94.649 140.627,93.139C140.627,91.51 139.828,90.989 134.918,89.41C131.778,88.4 129.007,87.247 128.76,86.848C128.513,86.449 129.436,85.73 130.811,85.251C133.115,84.448 134.371,82.1 132.498,82.1C130.804,82.1 131.792,80.572 134.53,78.956C138.749,76.467 138.403,74.049 133.304,70.386C131.065,68.778 127.316,66.801 124.972,65.993C121.783,64.893 120.646,64.076 120.452,62.744C120.309,61.766 120.583,60.965 121.061,60.965C121.539,60.965 121.931,60.255 121.931,59.388C121.931,58.52 122.32,57.569 122.796,57.275C123.827,56.638 121.617,53.917 119.532,53.256C118.777,53.016 117.332,51.7 116.32,50.331L114.48,47.842L116.19,47.395C117.31,47.102 117.655,46.632 117.188,46.031C116.089,44.617 115.502,41.506 116.248,41.045C116.615,40.818 117.953,41.474 119.22,42.502C122.919,45.502 125.827,47.146 127.437,47.146C128.261,47.146 131.062,48.427 133.66,49.992C136.259,51.556 138.815,52.837 139.341,52.837C139.868,52.837 142.862,55.306 145.996,58.323C151.815,63.927 153.787,65.574 156.542,67.132C157.401,67.617 158.829,69.103 159.717,70.432C161.714,73.426 170.872,80.403 173.968,81.291C175.229,81.653 178.768,83.438 181.833,85.259C184.898,87.08 188.677,88.812 190.231,89.107C193.687,89.765 195.614,90.705 198.613,93.2C199.88,94.255 202.532,95.524 204.506,96.021C206.48,96.518 208.095,97.175 208.095,97.48C208.095,97.786 206.357,98.655 204.234,99.411C199.741,101.01 183.709,102.288 183.709,101.047ZM13.947,92.667C13.947,91.55 14.132,91.092 14.357,91.651C14.583,92.21 14.583,93.124 14.357,93.683C14.132,94.242 13.947,93.785 13.947,92.667ZM53.879,72.17C50.205,71.24 47.359,70.22 47.554,69.905C47.75,69.589 47.059,68.532 46.021,67.556C43.859,65.525 43.992,61.764 46.225,61.799C46.955,61.81 49.702,63.607 52.329,65.792C54.955,67.976 58.744,70.39 60.749,71.155C63.369,72.156 64.083,72.744 63.289,73.247C61.841,74.164 61.675,74.145 53.879,72.17Z" style="fill:rgb(75,154,179);fill-rule:nonzero;"/>
                        <path id="path104" d="M449.517,252.803C447.761,253.971 1.239,253.466 0,252.803C-1.644,251.923 0.149,192.93 0.149,178.93L0,91.892L3.455,90.13C5.355,89.161 9.757,86.959 13.238,85.237C19.971,81.906 24.381,79.084 25.44,77.43C25.796,76.874 28.723,74.323 31.943,71.761C35.164,69.2 39.244,65.723 41.01,64.035C44.871,60.346 45.626,60.203 44.728,63.334C44.167,65.291 44.384,66.019 45.979,67.517C47.041,68.514 47.75,69.588 47.555,69.903C47.36,70.219 50.474,71.279 54.475,72.26C59.888,73.588 62.154,73.827 63.336,73.195C64.209,72.728 66.428,72.345 68.268,72.345C73.001,72.345 77.99,69.595 85.427,62.883C89.183,59.493 94.293,56.358 94.293,57.443C94.293,57.764 98.262,54.115 103.113,49.335C109.451,43.09 112.489,40.644 113.91,40.644C115.461,40.644 115.924,41.107 116.064,42.797C116.162,43.981 116.615,45.399 117.071,45.949C117.674,46.675 117.433,47.07 116.19,47.395L114.48,47.842L116.32,50.331C117.332,51.7 118.777,53.016 119.532,53.256C121.617,53.917 123.827,56.638 122.796,57.275C122.32,57.569 121.931,58.52 121.931,59.388C121.931,60.255 121.539,60.965 121.061,60.965C120.583,60.965 120.309,61.766 120.452,62.744C120.646,64.076 121.783,64.893 124.972,65.993C127.316,66.801 131.065,68.778 133.304,70.386C138.403,74.049 138.749,76.467 134.53,78.956C131.792,80.572 130.804,82.1 132.498,82.1C134.371,82.1 133.115,84.448 130.811,85.251C129.436,85.73 128.513,86.449 128.76,86.848C129.007,87.247 131.778,88.4 134.918,89.41C139.828,90.989 140.627,91.51 140.627,93.139C140.627,94.649 141.161,95.115 143.268,95.441C144.721,95.665 149.202,96.414 153.226,97.105C157.25,97.796 164.34,98.36 168.983,98.359C177.381,98.357 183.709,99.511 183.709,101.044C183.709,102.431 200.362,100.937 204.915,99.142C207.144,98.263 209.787,97.544 210.789,97.544C211.791,97.544 213.511,96.913 214.613,96.142C215.714,95.371 217.342,94.629 218.231,94.493C219.119,94.357 220.202,93.891 220.636,93.457C221.071,93.023 222.054,92.667 222.821,92.667C223.589,92.667 224.339,92.379 224.488,92.027C224.771,91.358 232.977,87.79 234.231,87.79C234.628,87.79 236.495,86.816 238.382,85.625C240.269,84.434 242.634,83.369 243.639,83.259C245.867,83.014 250.364,81.085 250.364,80.374C250.364,80.091 251.553,79.397 253.006,78.833C254.459,78.268 258.402,76.036 261.768,73.872C265.133,71.709 269.022,69.711 270.409,69.434C273.889,68.738 276.995,70.891 277.665,74.464C278.044,76.481 278.712,77.37 280.118,77.723C281.478,78.064 282.29,79.085 282.861,81.17C283.497,83.491 284.391,84.475 286.996,85.716C288.824,86.587 290.835,88.295 291.464,89.513C293.094,92.665 296.891,95.106 300.164,95.106C305.687,95.106 310.517,96.11 310.517,97.259C310.517,97.875 312.495,99.315 314.912,100.46C319.166,102.474 319.699,102.528 331.373,102.139C342.55,101.767 351.401,100.859 357.186,99.49C359.173,99.02 359.472,99.146 359.041,100.269C358.193,102.478 362.317,101.917 366.533,99.25C371.069,96.38 378.902,93.847 380.886,94.609C381.282,94.76 439.481,123.943 449.517,146.202C470.46,192.65 451.332,251.596 449.517,252.803Z" style="fill:rgb(66,134,154);fill-rule:nonzero;"/>
                    </g>
                </g>
            </g>
        </g>
        <g id="L6-Mounten1" serif:id="L6 Mounten">
        </g>
    </g>
</svg>
