<?xml version="1.0" encoding="UTF-8" standalone="no"?>
<!DOCTYPE svg PUBLIC "-//W3C//DTD SVG 1.1//EN" "http://www.w3.org/Graphics/SVG/1.1/DTD/svg11.dtd">
<svg width="100%" height="100%" viewBox="0 0 1920 1079" version="1.1" xmlns="http://www.w3.org/2000/svg" xmlns:xlink="http://www.w3.org/1999/xlink" xml:space="preserve" xmlns:serif="http://www.serif.com/" style="fill-rule:evenodd;clip-rule:evenodd;stroke-linejoin:round;stroke-miterlimit:2;">
    <g transform="matrix(3.20344,0,0,3.20344,960,539.891)">
        <g id="L7-Mounten" serif:id="L7 Mounten" transform="matrix(1,0,0,1,-299.678,-168.535)">
            <g id="Image" transform="matrix(1.33333,0,0,1.33333,0,0)">
                <g id="g120">
                    <path id="path122" d="M365.77,106.075C363.089,107.608 307.267,88.139 307.267,87C307.267,86.315 317.588,80.474 319.041,80.474C319.676,80.474 321.796,78.851 323.752,76.867C328.537,72.013 330.865,71.517 336.075,74.24C343.083,77.904 358.73,83.48 365.049,84.566C368.364,85.135 371.807,86.227 372.701,86.991C373.595,87.755 376.704,88.832 379.61,89.384C386.214,90.638 390.12,94.353 388.401,96.252C387.267,97.506 383.917,108.189 378.907,108.213C375.095,108.23 367.025,105.358 365.77,106.075Z" style="fill:rgb(112,188,213);fill-rule:nonzero;"/>
                </g>
            </g>
        </g>
        <g id="L7-Mounten1" serif:id="L7 Mounten">
        </g>
    </g>
</svg>
