<?xml version="1.0" encoding="UTF-8" standalone="no"?>
<!DOCTYPE svg PUBLIC "-//W3C//DTD SVG 1.1//EN" "http://www.w3.org/Graphics/SVG/1.1/DTD/svg11.dtd">
<svg width="100%" height="100%" viewBox="0 0 1920 1079" version="1.1" xmlns="http://www.w3.org/2000/svg" xmlns:xlink="http://www.w3.org/1999/xlink" xml:space="preserve" xmlns:serif="http://www.serif.com/" style="fill-rule:evenodd;clip-rule:evenodd;stroke-linejoin:round;stroke-miterlimit:2;">
    <g transform="matrix(3.20344,0,0,3.20344,960,539.892)">
        <g id="L8-Clouds" serif:id="L8 Clouds" transform="matrix(1,0,0,1,-299.678,-168.535)">
            <g id="Image" transform="matrix(1.33333,0,0,1.33333,0,0)">
                <g id="g48">
                    <path id="path50" d="M379.389,89.035C376.808,88.471 405.115,90.819 404.342,90.145C403.57,89.472 369.328,85.093 366.198,84.524C359.267,83.262 341.61,77.113 337.025,74.364L333.683,72.361L341.657,72.353C346.767,72.348 349.45,72.637 349.128,73.158C348.852,73.605 347.092,74.025 345.219,74.091C343.289,74.159 344.984,74.527 349.128,74.941C359.288,75.954 371.344,75.678 380.008,74.234C384.036,73.562 390.076,72.853 393.429,72.657L399.526,72.302L396.681,73.726L393.836,75.149L400.339,75.63C403.915,75.895 412.417,78.35 411.411,78.432C410.405,78.514 399.945,84.927 399.448,84.927C398.951,84.927 397.677,85.862 396.618,87.005C395.485,88.227 394.275,88.843 393.68,88.5C393.123,88.18 392.945,88.223 393.284,88.597C394.327,89.746 388.434,90.235 386.175,90.145C385.023,90.099 381.97,89.6 379.389,89.035L379.389,89.035ZM293.004,83.174C285.663,81.323 277.994,70.55 278.004,69.674C278.004,69.579 285.778,69.456 295.277,69.401C304.776,69.346 311.634,69.584 310.517,69.929C309.399,70.275 306.177,70.594 303.356,70.639C300.162,70.689 298.417,71.026 298.73,71.533C299.035,72.026 304.959,72.345 313.781,72.345L333.862,70.754L404.342,90.145C382.91,103.283 343.01,94.173 321.271,84.531L314.03,84.937C308.353,85.256 298.31,84.511 293.004,83.174ZM161.355,71.499C161.355,71.499 124.64,69.765 121.059,66.412C117.478,63.059 94.34,60.588 94.016,60.571C92.691,60.501 103.132,49.97 103.132,49.302C103.132,48.503 156.224,47.696 159.119,48.472C162.162,49.287 161.181,50.294 157.087,50.557L153.226,50.804L156.884,52.772C160.53,54.734 160.653,54.742 194.276,55.315C224.397,55.829 236.598,56.616 241.423,58.356C242.093,58.598 240.447,59.07 237.765,59.404C235.082,59.739 231.014,60.752 228.724,61.655C226.435,62.559 221.497,63.714 217.751,64.223C214.005,64.732 208.196,65.671 204.843,66.308C201.49,66.946 194.937,67.468 190.279,67.468C185.622,67.468 181.967,67.623 182.156,67.813C182.346,68.002 186.888,68.34 192.25,68.563C197.966,68.802 203.343,69.476 205.25,70.194C208.273,71.332 206.847,71.421 184.928,71.458L161.355,71.499ZM11.177,66.861C0.923,66.63 0,66.485 0,65.102C0,63.199 1.693,62.75 11.38,62.086C19.237,61.548 22.702,60.582 21.41,59.29C21.019,58.898 15.95,58.463 10.146,58.321C4.342,58.18 14.624,58 32.995,57.92C65.019,57.78 73.158,57.409 73.158,56.089C73.158,55.031 65.883,54.508 49.585,54.395C32.281,54.276 25.199,53.794 25.199,52.738C25.199,52.362 26.022,51.859 27.028,51.619C29.291,51.08 55.078,47.172 60.356,46.568C62.479,46.326 64.217,45.808 64.217,45.417C64.217,45.027 66.503,44.776 69.297,44.858L74.378,45.009L70.11,45.307C67.763,45.471 65.843,45.905 65.843,46.27C65.843,47.491 71.812,47.941 88.093,47.95C103.021,47.959 104.162,48.061 103.132,49.302C101.538,51.223 96.689,59.396 94.016,60.571C92.771,61.118 91.563,61.823 91.331,62.137C90.688,63.011 75.733,61.751 62.185,62.512C52.32,63.067 31.922,67.428 27.754,67.29C24.784,67.192 17.324,66.999 11.177,66.861ZM372.296,46.981C372.294,46.174 377.85,44.729 381.236,44.655C382.801,44.621 384.789,44.317 385.653,43.978C388.273,42.952 385.829,42.131 375.619,40.605L366.198,39.197L372.227,39.107C381.522,38.969 378.231,37.861 366.743,37.26C342.567,35.996 334.575,35.783 336.101,36.442C337.205,36.918 335.164,37.31 329.561,37.695C325.082,38.004 320.336,38.563 319.015,38.938L316.613,39.62L318.645,40.107C319.763,40.375 321.592,40.739 322.71,40.915C323.827,41.091 317.975,41.249 309.704,41.266L294.666,41.297L301.575,39.081C306.919,37.367 308.096,36.737 306.77,36.297C305.827,35.985 304.44,35.966 303.688,36.254C302.819,36.588 302.407,36.411 302.558,35.77C302.717,35.09 299.739,34.132 293.446,32.836C288.305,31.778 283.824,30.907 283.489,30.9C283.153,30.894 282.879,30.523 282.879,30.076C282.879,29.629 284.434,29.238 286.334,29.206C288.234,29.175 290.52,28.849 291.414,28.483C292.311,28.115 276.818,27.671 256.867,27.493C236.972,27.316 219.989,26.846 219.128,26.449C217.582,25.737 217.582,25.72 219.128,25.114C219.989,24.776 221.792,24.437 223.133,24.36C226.261,24.18 217.167,22.041 212.972,21.971C209.417,21.911 207.315,20.795 209.312,20.028C211.611,19.147 215.07,19.449 218.35,20.82C221.892,22.3 226.854,22.156 245.893,20.018C252.152,19.315 260.098,18.517 263.551,18.244C267.482,17.934 269.761,17.412 269.647,16.848C269.548,16.353 270.015,15.869 270.686,15.772C290.096,12.978 293.85,12.765 300.762,14.068C315.96,16.934 317.477,17.305 318.82,18.485C319.747,19.299 323.565,20.017 330.2,20.625C338.128,21.352 340.186,21.792 340.186,22.76C340.186,23.654 341.488,24.11 345.064,24.469C353.137,25.28 357.417,24.507 359.668,21.831C361.359,19.822 362.195,19.509 365.875,19.509C368.213,19.509 369.875,19.256 369.566,18.948C369.258,18.64 367.093,18.423 364.757,18.466C362.42,18.51 361.423,18.385 362.54,18.189C367.77,17.27 375.26,15.079 376.369,14.143C377.167,13.468 381.155,12.984 387.749,12.76C393.332,12.571 399.912,11.986 402.371,11.46C404.83,10.935 411.414,10.207 417.003,9.844L427.163,9.183L416.596,9.038C408.933,8.932 406.422,8.663 407.46,8.059C409.003,7.16 427.849,7.47 432.041,8.463C433.382,8.78 435.394,9.252 436.511,9.511C438.089,9.876 436.997,10.393 431.634,11.822L424.725,13.663L429.968,13.741C438.042,13.861 435.021,15.21 423.498,16.631C417.913,17.319 410.478,18.432 406.973,19.102C403.469,19.773 399.195,20.322 397.475,20.322C392.976,20.322 389.748,21.669 390.905,23.064C391.502,23.783 394.64,24.305 400.138,24.6C406.547,24.943 410.247,25.65 416.19,27.666C423.235,30.057 425.035,30.323 436.715,30.703L449.517,31.12L449.517,41.26L439.56,41.776C426.329,42.462 420.759,43.103 420.194,44.004C419.937,44.413 414.816,44.99 408.814,45.286C401.501,45.647 398.785,46.012 400.583,46.392C402.059,46.703 403.401,47.092 403.565,47.255C403.729,47.419 396.761,47.553 388.08,47.553C379.399,47.553 372.296,47.296 372.296,46.981L372.296,46.981ZM9.024,23.224C9.202,23.048 13.667,22.48 18.945,21.961C24.224,21.442 29.893,20.492 31.545,19.849C34.48,18.707 34.41,18.69 28.45,19.107C25.097,19.342 17.324,19.762 11.177,20.041L0,20.549L0,14.632L8.332,14.689C13.902,14.727 16.125,14.985 15.038,15.467C13.939,15.955 15.436,16.148 19.663,16.066C23.101,15.998 25.731,15.648 25.508,15.288C25.285,14.927 26.679,14.637 28.606,14.644C31.167,14.653 31.781,14.868 30.889,15.445C30.089,15.962 39.731,16.245 58.933,16.27C89.033,16.308 90.586,16.512 81.346,19.211L77.629,20.297L82.506,19.825C88.569,19.237 87.91,20.124 81.128,21.681C77.253,22.571 67.798,22.942 42.352,23.201C23.844,23.389 8.846,23.4 9.024,23.224L9.024,23.224Z" style="fill:rgb(39,81,112);fill-rule:nonzero;"/>
                </g>
            </g>
        </g>
        <g id="L8-Clouds1" serif:id="L8 Clouds">
        </g>
    </g>
</svg>
