<?xml version="1.0" encoding="UTF-8" standalone="no"?>
<!DOCTYPE svg PUBLIC "-//W3C//DTD SVG 1.1//EN" "http://www.w3.org/Graphics/SVG/1.1/DTD/svg11.dtd">
<svg width="100%" height="100%" viewBox="0 0 1920 1079" version="1.1" xmlns="http://www.w3.org/2000/svg" xmlns:xlink="http://www.w3.org/1999/xlink" xml:space="preserve" xmlns:serif="http://www.serif.com/" style="fill-rule:evenodd;clip-rule:evenodd;stroke-linejoin:round;stroke-miterlimit:2;">
    <g id="L2-Tree" serif:id="L2 Tree" transform="matrix(3.20344,0,0,3.20344,960,539.891)">
        <g transform="matrix(1,0,0,1,-299.678,-168.535)">
            <clipPath id="_clip1">
                <rect x="0" y="0" width="599.356" height="337.07"/>
            </clipPath>
            <g clip-path="url(#_clip1)">
                <g id="Image" transform="matrix(1.33333,0,0,1.33333,0,0)">
                    <path id="path48" d="M0,202.161C0,163.857 -6.65,147.321 -6.522,144.514L0.291,141.439L3.349,141.439C5.031,141.439 6.633,141.074 6.909,140.627C7.216,140.13 5.969,139.814 3.706,139.814C0.323,139.814 -0.344,139.196 -0.344,137.392C-0.344,135.99 0.531,135.76 1.829,135.51L3.658,135.158L1.821,135.047C0.163,134.947 -0.266,134.235 0,131.037C0.162,129.088 3.352,127.41 3.649,126.93C3.945,126.451 1.281,125.877 0.826,125.597C0.372,125.316 0,124.465 0,123.706C0,122.568 0.644,122.377 3.658,122.616C7.471,122.92 8.712,121.67 5.583,120.677C4.221,120.245 4.09,119.975 4.973,119.416C5.848,118.861 5.76,118.701 4.574,118.692C3.314,118.681 3.226,118.47 4.064,117.46C4.88,116.477 4.86,116.238 3.961,116.228C3.04,116.218 3.034,116.096 3.929,115.528C4.802,114.975 4.763,114.745 3.726,114.347C3.018,114.075 2.439,113.487 2.439,113.04C2.439,112.593 2.987,112.438 3.658,112.695C4.329,112.952 4.877,112.785 4.877,112.323C4.877,111.861 4.237,111.315 3.455,111.111C2.253,110.797 2.284,110.722 3.658,110.632C5.013,110.543 5.081,110.394 4.064,109.738C3.12,109.127 3.369,108.947 5.167,108.937C6.895,108.928 7.37,108.612 7.022,107.705C6.765,107.035 6.908,106.486 7.341,106.486C8.91,106.486 8.083,104.222 6.3,103.636C4.657,103.097 4.76,102.983 7.316,102.511C9.982,102.02 10.059,101.921 8.535,100.95C7.078,100.02 7.184,99.965 9.55,100.419C11.739,100.838 12.107,100.705 11.699,99.641C11.428,98.935 11.56,98.357 11.993,98.357C12.426,98.357 12.625,97.534 12.434,96.528C12.244,95.522 12.454,93.785 12.902,92.667C13.627,90.856 13.721,91.039 13.767,94.359C13.81,97.471 14.152,98.261 15.851,99.17C16.969,99.768 17.883,100.714 17.883,101.272C17.883,101.83 18.34,102.472 18.899,102.698C19.664,103.009 19.614,103.324 18.696,103.973C17.909,104.53 17.828,104.84 18.467,104.848C19.012,104.854 19.247,105.409 18.99,106.08C18.681,106.884 19.018,107.299 19.982,107.299C21.234,107.299 21.161,107.559 19.469,109.128L17.497,110.957L19.773,111.219C21.642,111.434 21.876,111.689 21.086,112.641C20.319,113.566 20.391,113.802 21.442,113.802C22.218,113.802 22.76,114.47 22.76,115.428C22.76,116.656 23.306,117.056 24.996,117.066C26.738,117.076 26.962,117.252 26.012,117.866C24.978,118.534 25.016,118.656 26.263,118.667C27.124,118.674 27.504,119.05 27.181,119.574C26.876,120.066 25.648,120.273 24.45,120.033C22.863,119.716 22.006,120.024 21.29,121.171C20.176,122.954 20.498,123.046 24.174,121.991C26.412,121.35 26.765,121.439 26.584,122.601C26.467,123.35 26.105,124.389 25.779,124.911C25.18,125.87 26.384,130.059 27.259,130.059C27.52,130.059 27.536,129.739 27.294,129.348C27.052,128.957 28.249,128.414 29.954,128.141C33.313,127.604 37.313,124.369 34.618,124.369C33.556,124.369 33.352,123.948 33.772,122.624C34.242,121.144 34.065,120.948 32.607,121.329C31.46,121.629 30.889,121.399 30.889,120.635C30.889,120.006 30.34,119.492 29.67,119.492C28.999,119.492 28.45,119.126 28.45,118.679C28.45,118.232 29.365,117.866 30.483,117.866C31.6,117.866 32.515,117.5 32.515,117.053C32.515,116.606 33.27,116.24 34.194,116.24C36.302,116.24 39.018,114.825 39.018,113.725C39.018,113.268 38.693,113.093 38.297,113.338C37.402,113.892 35.58,111.82 36.315,111.085C36.609,110.791 35.896,110.55 34.73,110.55C33.565,110.55 32.385,110.185 32.108,109.738C31.832,109.29 31.993,108.925 32.467,108.925C32.94,108.925 33.328,108.364 33.328,107.68C33.328,106.995 33.871,106.226 34.535,105.972C35.525,105.592 35.441,105.264 34.066,104.151C32.41,102.81 32.425,102.781 35.297,101.742C38.124,100.72 39.238,99.192 37.189,99.149C36.63,99.137 37.179,98.503 38.408,97.741C40.98,96.146 41.257,94.531 39.221,92.986C37.924,92.001 37.989,91.904 39.958,91.88C41.668,91.86 42.034,91.536 41.716,90.32C41.495,89.477 41.68,88.561 42.126,88.285C42.592,87.997 43.178,89.258 43.5,91.241C43.826,93.245 44.946,95.639 46.163,96.935C47.606,98.471 47.898,99.181 47.095,99.206C46.453,99.226 47.39,100.016 49.179,100.962C50.967,101.908 51.993,102.83 51.46,103.011C50.926,103.192 50.691,103.865 50.937,104.506C51.456,105.858 48.369,106.181 47.553,104.86C47.277,104.413 46.315,104.047 45.416,104.047C42.624,104.047 43.953,107.369 47.959,110.403C51.827,113.332 53.234,115.253 50.84,114.334C50.067,114.038 48.462,113.553 47.274,113.257C45.298,112.765 45.213,112.839 46.278,114.131C46.918,114.908 48.564,116.036 49.936,116.638L52.43,117.734L48.849,117.8C45.433,117.863 45.331,117.935 46.614,119.353C47.354,120.17 47.979,121.176 48.003,121.588C48.028,122 49.763,123.434 51.86,124.776C53.956,126.117 55.803,127.909 55.963,128.759C56.226,130.151 55.887,130.253 52.513,129.79C50.138,129.465 48.772,129.586 48.772,130.122C48.772,130.587 50.41,132.683 52.411,134.781C55.579,138.1 56.053,138.361 56.069,136.791C56.083,135.442 56.431,135.119 57.448,135.51C58.471,135.902 58.682,135.701 58.297,134.697C58.015,133.963 58.074,133.184 58.427,132.966C58.78,132.748 58.906,131.46 58.707,130.104C58.451,128.361 58.724,127.494 59.64,127.142C60.637,126.76 60.745,126.289 60.109,125.101C59.654,124.251 59.583,123.556 59.951,123.556C60.319,123.556 60.673,122.84 60.739,121.966C60.805,121.091 61.797,118.994 62.944,117.306C64.727,114.682 65.03,114.5 65.03,116.052C65.03,117.05 65.395,117.866 65.843,117.866C66.29,117.866 66.655,118.598 66.655,119.492C66.655,120.395 67.197,121.118 67.875,121.118C68.545,121.118 69.094,121.526 69.094,122.025C69.094,122.533 68.377,122.746 67.468,122.508C66.574,122.274 65.843,122.414 65.843,122.819C65.843,123.505 67.293,123.864 69.704,123.775C71.322,123.714 70.879,125.293 69.15,125.745C66.865,126.342 66.296,128.492 68.286,129.012C69.605,129.357 69.865,129.975 69.621,132.188C69.403,134.17 69.642,134.936 70.48,134.936C71.272,134.936 71.478,135.454 71.126,136.562C70.754,137.735 70.98,138.188 71.939,138.188C72.87,138.188 73.123,138.646 72.782,139.717C72.476,140.683 72.756,141.423 73.541,141.724C75.14,142.338 75.157,143.878 73.565,143.878C72.894,143.878 72.345,144.57 72.345,145.417C72.345,146.263 72.894,147.166 73.565,147.423C74.235,147.681 74.784,148.616 74.784,149.502C74.784,150.388 75.38,151.446 76.108,151.854C77.087,152.402 77.174,152.754 76.443,153.205C75.9,153.541 75.048,153.409 74.551,152.911C73.465,151.826 72.345,151.731 72.345,152.725C72.345,153.12 73.098,153.64 74.018,153.88C75.478,154.262 75.56,154.527 74.658,155.97C74.091,156.879 73.907,157.903 74.249,158.246C74.592,158.589 75.159,158.405 75.51,157.838C76.011,157.028 76.364,157.069 77.161,158.029C78.261,159.354 77.714,160.948 76.159,160.949C75.626,160.949 75.138,161.864 75.073,162.981C75.001,164.233 75.391,165.013 76.089,165.013C77.481,165.013 77.549,165.987 76.247,167.289C75.489,168.047 75.499,168.264 76.295,168.264C76.858,168.264 77.093,168.63 76.816,169.077C76.54,169.524 77.093,169.89 78.046,169.89C79.62,169.89 79.661,170.006 78.5,171.167C76.892,172.775 76.846,174.767 78.416,174.767C79.144,174.767 79.427,175.244 79.142,175.986C78.828,176.806 79.18,177.206 80.214,177.206C81.171,177.206 81.8,177.821 81.876,178.831C81.968,180.046 81.498,180.457 80.017,180.457C78.798,180.457 78.036,180.926 78.036,181.677C78.036,182.347 78.493,182.901 79.052,182.908C79.727,182.916 79.659,183.181 78.848,183.698C78.009,184.234 78.641,184.34 80.881,184.039C83.731,183.656 83.932,183.729 82.506,184.629C80.924,185.629 80.935,185.672 82.913,186.227C88.074,187.677 97.041,186.563 92.924,184.983C91.833,184.564 92.194,184.029 94.758,182.263L97.951,180.065L95.106,179.632L92.261,179.198L95.715,176.972C99.427,174.581 100.164,173.529 97.544,174.361C96.289,174.759 95.919,174.507 95.919,173.251C95.919,172.357 96.617,171.403 97.471,171.132C98.325,170.862 99.487,170.081 100.053,169.399C100.941,168.329 100.766,168.193 98.79,168.414C95.653,168.765 95.43,167.376 98.311,165.445C99.625,164.565 100.87,163.192 101.079,162.393C101.33,161.434 101.913,161.116 102.8,161.456C103.537,161.739 103.96,162.442 103.739,163.018C103.518,163.594 103.886,164.276 104.557,164.533C105.227,164.791 105.549,165.37 105.27,165.82C104.99,166.273 105.55,166.638 106.525,166.638C107.739,166.638 108.144,167.009 107.828,167.832C107.576,168.488 107.726,169.245 108.161,169.514C108.595,169.782 108.737,170.349 108.475,170.772C108.214,171.196 107.7,171.357 107.335,171.131C106.969,170.906 106.253,171.223 105.744,171.837C104.998,172.736 105.367,173.055 107.647,173.483C109.734,173.875 110.352,174.338 110.002,175.25C109.741,175.93 109.007,176.287 108.371,176.042C107.735,175.798 107.419,175.929 107.668,176.333C107.918,176.737 107.662,177.226 107.101,177.421C106.539,177.615 107.302,178.049 108.795,178.384C110.936,178.864 111.425,179.32 111.107,180.538C110.884,181.388 111.056,182.083 111.487,182.083C111.919,182.083 112.065,182.418 111.813,182.826C111.56,183.235 111.813,183.755 112.374,183.982C112.936,184.208 112.298,184.434 110.957,184.483C108.751,184.565 108.654,184.677 109.941,185.653C110.723,186.247 111.363,187.15 111.363,187.659C111.363,188.169 111.9,188.586 112.557,188.586C113.214,188.586 113.567,189.066 113.341,189.653C113.116,190.24 113.676,191.394 114.586,192.218C116.064,193.556 116.24,193.572 116.24,192.37C116.24,191.63 115.853,191.025 115.38,191.025C114.906,191.025 114.76,190.634 115.055,190.158C115.349,189.681 114.914,188.778 114.086,188.151C113.259,187.525 112.948,186.995 113.395,186.974C113.843,186.952 113.703,186.615 113.085,186.224C112.184,185.653 112.264,185.414 113.491,185.018C115.138,184.486 117.291,180.7 116.297,180.086C115.044,179.312 116.035,175.95 117.774,175.075C119.441,174.237 119.468,174.115 118.116,173.555C116.803,173.011 116.864,172.849 118.692,172.028C121.126,170.935 121.284,169.566 119.157,168.01C116.862,166.332 118.028,163.86 120.787,164.553C122.143,164.893 122.696,164.78 122.357,164.232C122.07,163.767 121.352,163.387 120.763,163.387C119.125,163.387 117.528,161.196 118.846,160.757C119.56,160.519 119.845,158.966 119.742,155.89C119.608,151.925 119.766,151.418 121.031,151.749C121.964,151.993 122.472,151.67 122.472,150.835C122.472,149.976 121.997,149.696 121.051,149.996C120.269,150.244 119.394,150.066 119.106,149.601C118.818,149.136 118.992,148.755 119.492,148.755C119.992,148.755 120.198,148.428 119.951,148.028C119.704,147.627 120.013,147.103 120.639,146.863C121.265,146.623 122.041,145.213 122.362,143.73C122.684,142.247 123.335,140.787 123.809,140.485C124.396,140.112 124.332,139.529 123.608,138.656C122.884,137.784 122.803,137.051 123.355,136.359C123.8,135.8 124.03,134.52 123.866,133.514C123.701,132.508 123.952,131.685 124.422,131.685C124.893,131.685 125.085,131.373 124.85,130.992C124.614,130.611 124.947,129.605 125.589,128.756C126.231,127.908 126.823,125.568 126.904,123.556C127.008,120.964 127.138,120.608 127.347,122.337C128.1,128.535 128.547,130.085 129.426,129.542C130.019,129.176 130.155,129.451 129.816,130.332C129.478,131.216 129.712,131.685 130.491,131.685C131.851,131.685 132.091,132.964 130.872,133.717C129.585,134.513 129.926,135.749 131.434,135.749C132.633,135.749 132.607,135.902 131.231,136.943C129.7,138.101 129.71,138.137 131.581,138.162C133.215,138.184 133.353,138.377 132.482,139.426C131.613,140.474 131.691,140.588 132.993,140.172C134.464,139.702 134.462,139.736 132.952,140.967C132.084,141.674 131.773,142.252 132.261,142.252C133.381,142.252 133.212,148.74 132.091,148.763C131.644,148.772 131.825,149.126 132.494,149.548C133.537,150.208 133.48,150.499 132.087,151.607C130.533,152.842 130.572,152.876 133.004,152.41C134.973,152.032 135.668,152.247 136.097,153.366C136.428,154.23 136.19,155.146 135.502,155.649C133.832,156.87 134.27,161.1 136.133,161.753C137.58,162.261 137.563,162.387 135.796,164.153C134.771,165.179 134.249,166.249 134.637,166.531C135.025,166.814 135.43,167.868 135.537,168.874C135.699,170.413 135.337,170.703 133.253,170.703C131.809,170.703 130.986,171.042 131.279,171.516C131.555,171.963 132.513,172.329 133.407,172.329C134.301,172.329 134.83,172.656 134.583,173.056C134.071,173.884 135.952,174.767 138.229,174.767C139.258,174.767 139.609,175.168 139.295,175.986C139.037,176.657 139.232,177.206 139.727,177.206C140.222,177.206 140.627,177.593 140.627,178.067C140.627,178.54 140.261,178.701 139.814,178.425C139.367,178.149 139.001,178.502 139.001,179.21C139.001,179.994 138.035,180.691 136.533,180.991C134.271,181.444 134.17,181.599 135.316,182.866C136.003,183.626 136.291,184.536 135.954,184.888C135.618,185.241 136.715,185.376 138.391,185.189C141.35,184.858 142.341,185.494 140.571,186.588C140.094,186.883 139.91,187.663 140.162,188.322C140.735,189.814 138.965,191.69 137.458,191.188C136.779,190.961 136.56,191.176 136.903,191.732C137.216,192.237 137.907,192.653 138.439,192.657C138.972,192.66 139.83,193.575 140.347,194.689C140.959,196.009 140.995,196.715 140.451,196.715C139.945,196.715 140.003,197.182 140.597,197.898C141.137,198.549 141.309,199.52 140.977,200.056C140.597,200.672 140.72,200.817 141.314,200.45C141.909,200.083 142.252,200.491 142.252,201.564C142.252,202.654 143.049,203.575 144.488,204.148C148.461,205.73 165.423,205.933 175.405,204.518C188.195,202.705 193.588,202.854 201.569,205.243C208.902,207.438 215.65,207.397 219.272,205.135C220.327,204.476 221.101,204.347 221.101,204.829C221.101,205.376 223.567,205.498 228.213,205.182C236.907,204.59 242.461,202.56 242.771,201.795C242.998,201.236 246.234,202.603 248.132,203.516C256.583,207.581 276.304,204.19 283.54,197.427C285.803,195.313 287.405,194.773 295.69,193.333C302.75,192.105 307.227,191.786 312.898,192.106C317.423,192.361 324.404,192.061 329.937,191.375C335.093,190.735 339.462,190.212 339.645,190.212C339.829,190.212 339.5,189.635 338.916,188.93C338.034,187.869 338.052,187.523 339.019,186.911C339.661,186.505 340.644,186.167 341.202,186.16C341.761,186.153 342.218,185.599 342.218,184.928C342.218,184.257 342.767,183.709 343.438,183.709C344.108,183.709 344.657,183.379 344.657,182.977C344.657,182.574 346.029,181.849 347.705,181.365L350.754,180.486L347.648,180.836C345.94,181.029 343.563,180.802 342.365,180.332C340.312,179.527 340.275,179.425 341.733,178.545C343.86,177.262 345.876,174.916 345.876,173.725C345.876,173.18 347.157,172.616 348.721,172.471C351.555,172.208 355.224,169.618 355.224,167.881C355.224,167.268 353.421,167.06 349.738,167.249C344.873,167.498 344.415,167.398 345.697,166.367C346.949,165.361 346.976,165.141 345.9,164.728C344.159,164.06 344.347,162.574 346.173,162.574C347.829,162.574 351.973,159.646 351.973,158.476C351.973,158.076 351.423,157.959 350.752,158.216C350.08,158.474 348.526,158.431 347.297,158.12L345.064,157.554L347.84,156.112C349.529,155.236 350.186,154.527 349.517,154.304C348.712,154.036 348.946,153.408 350.389,151.965C352.117,150.237 352.186,149.96 350.947,149.721C348.801,149.308 349.258,148.039 351.77,147.439C357.082,146.17 357.349,144.053 352.24,143.719C347.754,143.427 346.258,141.439 350.523,141.439C353.376,141.439 355.224,140.257 355.224,138.432C355.224,137.851 354.622,137.375 353.886,137.375C352.865,137.375 353.058,136.903 354.699,135.382C357.439,132.843 357.427,131.685 354.663,131.685C352.575,131.685 352.547,131.632 354.052,130.532C354.919,129.898 355.36,129.111 355.032,128.784C354.705,128.456 355.071,127.706 355.847,127.117C356.622,126.528 356.839,126.035 356.328,126.021C355.737,126.004 355.959,124.899 356.938,122.978C357.784,121.319 358.481,119.398 358.488,118.71C358.499,117.606 358.593,117.603 359.289,118.679C359.722,119.35 360.082,120.859 360.089,122.034C360.096,123.209 360.639,124.616 361.296,125.161C361.995,125.742 362.376,127.133 362.215,128.518C361.993,130.422 362.514,131.354 364.881,133.29C367.005,135.025 367.428,135.702 366.401,135.722C363.593,135.776 365.614,140.611 368.462,140.652C370.245,140.678 370.247,140.69 368.637,141.924C367.023,143.161 367.025,143.182 368.93,144.744C370.63,146.137 370.676,146.32 369.336,146.342C368.062,146.364 368.182,146.683 370.105,148.374C372.178,150.199 372.261,150.78 370.402,150.456C370.032,150.391 369.852,150.988 370.003,151.782C370.211,152.879 371.204,153.286 374.131,153.474C376.876,153.65 377.985,154.067 377.985,154.922C377.985,156.366 376.828,156.867 372.625,157.246C370.879,157.403 369.154,157.569 368.792,157.614C366.756,157.87 369.766,159.383 373.946,160.205C377.047,160.815 378.798,161.562 378.798,162.273C378.798,163.233 378.208,163.551 376.359,163.587C376.135,163.591 374.947,163.359 373.717,163.069C372.475,162.777 371.482,162.887 371.482,163.317C371.482,163.743 372.488,164.244 373.717,164.43C375.65,164.723 375.568,164.786 373.108,164.893L370.262,165.016L373.107,167.451C374.672,168.79 376.571,169.887 377.327,169.888C378.083,169.889 378.902,170.214 379.147,170.61C379.843,171.737 376.418,172.305 374.036,171.458C371.905,170.7 371.901,170.705 373.575,172.136C374.503,172.93 375.951,174.629 376.792,175.913C377.633,177.197 379.382,178.892 380.678,179.68C382.931,181.05 383.177,181.049 386.279,179.661C388.064,178.862 390.087,177.645 390.776,176.956C391.902,175.829 391.672,175.738 388.461,176.044C385.072,176.365 385.024,176.341 387.496,175.562C391.585,174.272 391.531,173.141 387.381,173.141C383.36,173.141 382.718,172.278 385.36,170.427C386.414,169.689 386.719,169.045 386.173,168.707C384.745,167.825 385.159,167.098 387.739,165.956C390.644,164.67 391,163.149 388.234,163.844C387.165,164.112 386.046,163.936 385.748,163.453C385.422,162.926 385.914,162.574 386.978,162.574C388.438,162.574 388.578,162.365 387.769,161.39C386.486,159.845 387.365,158.51 389.664,158.51C391.628,158.51 395.457,156.142 393.566,156.097C392.789,156.078 392.979,155.269 394.242,153.226C395.209,151.661 395.605,150.381 395.121,150.381C394.638,150.381 394.242,150.747 394.242,151.194C394.242,151.641 392.505,151.977 390.381,151.941L386.52,151.875L388.958,150.794L391.397,149.713L389.162,149.146C384.976,148.084 386.692,144.691 391.416,144.691C394.735,144.691 394.57,143.071 391.242,142.982L388.146,142.898L392.616,141.406C395.075,140.585 396.447,139.891 395.665,139.863C394.882,139.836 394.242,139.409 394.242,138.914C394.242,138.419 393.693,138.225 393.023,138.482C392.352,138.739 391.804,138.595 391.804,138.162C391.804,137.729 392.809,137.369 394.039,137.363C395.268,137.356 396.823,136.966 397.494,136.496C398.448,135.828 398.316,135.755 396.884,136.157C395.784,136.467 395.055,136.315 395.055,135.778C395.055,135.286 395.878,134.553 396.884,134.149C398.285,133.586 398.38,133.402 397.29,133.362C396.508,133.334 395.868,132.794 395.868,132.163C395.868,131.457 394.615,130.803 392.616,130.466C390.649,130.133 389.365,129.471 389.365,128.789C389.365,127.927 389.836,127.84 391.358,128.419C393.012,129.047 393.268,128.959 392.861,127.898C392.45,126.826 392.645,126.766 394.065,127.526C396.443,128.798 397.244,128.664 397.701,126.915C397.977,125.859 399.306,125.145 402.064,124.572L406.029,123.748L402.669,123.652C400.07,123.578 399.215,123.198 398.895,121.973C398.627,120.949 398.952,120.262 399.816,120.027C400.898,119.733 400.82,119.557 399.403,119.098C397.417,118.454 396.226,114.615 398.013,114.615C399.027,114.615 399.352,113.367 399.337,109.534C399.334,108.752 399.832,108.112 400.445,108.112C401.057,108.112 401.558,107.563 401.558,106.892C401.558,106.222 401.122,105.673 400.59,105.673C400.057,105.673 400.324,105.159 401.182,104.532C402.701,103.421 402.689,103.343 400.728,101.649L398.713,99.908L402.168,100.423C405.425,100.909 407.04,99.891 404.606,98.886C403.991,98.632 404.311,98.248 405.419,97.911C406.96,97.442 407.258,96.761 407.308,93.588L407.369,89.822L408.874,93.074C409.702,94.862 410.406,97.173 410.439,98.209C410.486,99.67 410.841,99.984 412.025,99.609C414.432,98.844 414.772,101.943 412.513,104.065C410.765,105.707 410.729,105.923 411.971,107.373C412.702,108.226 414.224,108.961 415.354,109.006L417.409,109.087L415.377,109.685C413.407,110.266 413.444,110.327 416.596,111.686C419.538,112.955 419.7,113.172 418.294,113.965C417.171,114.599 416.329,114.585 415.257,113.915C413.148,112.598 412.791,112.747 413.085,114.818C413.248,115.967 414.327,117.079 415.986,117.81C419.156,119.205 419.404,120.305 416.548,120.305C415.167,120.305 414.665,120.624 415.056,121.256C415.449,121.891 415.204,122.038 414.317,121.698C413.587,121.418 412.792,121.509 412.55,121.901C411.826,123.072 415.909,125.742 419.239,126.275C421.587,126.65 422.374,127.172 422.468,128.415C422.536,129.319 422.157,130.065 421.626,130.072C421.049,130.079 421.152,130.401 421.88,130.872C422.802,131.468 422.438,131.663 420.389,131.672C417.025,131.688 417.262,133.225 420.893,134.936C422.317,135.607 423.33,136.573 423.146,137.083C422.963,137.592 423.531,138.781 424.41,139.724C425.288,140.668 425.719,141.451 425.366,141.465C425.013,141.479 425.453,142.042 426.344,142.715C427.826,143.835 427.55,143.897 423.093,143.445L418.222,142.951L420.055,144.565C421.326,145.683 421.575,146.304 420.868,146.59C420.253,146.838 420.413,147.027 421.27,147.065C422.377,147.115 422.693,147.851 422.693,150.381C422.693,152.427 422.316,153.642 421.677,153.658C421.118,153.672 421.666,154.569 422.896,155.651C424.125,156.733 425.131,157.959 425.131,158.376C425.131,158.792 425.863,159.324 426.757,159.558C428.154,159.923 428.383,160.667 428.383,164.837C428.383,171.473 429.872,172.754 433.499,169.239C436.277,166.547 440.427,164.785 446.063,163.906L449.517,163.368L449.517,208.085L449.517,252.803L0,252.803L0,202.161ZM387.333,187.006C388.695,186.46 388.365,186.187 385.301,185.324L381.643,184.295L384.081,183.226L386.52,182.156L384.332,182.12C383.129,182.099 381.919,182.449 381.643,182.896C381.366,183.343 379.79,183.72 378.14,183.733C375.462,183.755 375.315,183.86 376.765,184.707C378.761,185.871 383.787,187.709 384.894,187.68C385.341,187.668 386.439,187.365 387.333,187.006L387.333,187.006ZM98.95,172.65C98.68,172.38 97.979,172.351 97.392,172.586C96.744,172.846 96.936,173.038 97.883,173.077C98.74,173.113 99.22,172.92 98.95,172.65L98.95,172.65ZM73.08,171.204C73.799,170.337 73.729,169.971 72.773,169.604C71.92,169.277 71.533,169.628 71.533,170.728C71.533,172.623 71.827,172.714 73.08,171.204ZM71.939,160.948C72.215,160.501 72.054,160.135 71.581,160.135C71.107,160.135 70.72,160.501 70.72,160.948C70.72,161.395 70.881,161.761 71.078,161.761C71.275,161.761 71.663,161.395 71.939,160.948ZM31.028,142.533C33.152,140.611 32.872,139.814 30.076,139.814C27.541,139.814 26.556,141.418 29.06,141.468C30.146,141.49 30.001,141.772 28.45,142.659C26.718,143.649 26.648,143.825 27.98,143.849C28.839,143.865 30.211,143.273 31.028,142.533ZM27.638,139.001C28.532,138.107 29.263,137.215 29.263,137.019C29.263,136.823 28.532,136.718 27.638,136.786C26.743,136.853 26.012,137.239 26.012,137.643C26.012,138.047 25.259,138.181 24.34,137.94C23.06,137.606 22.868,137.744 23.52,138.53C23.988,139.095 24.131,139.798 23.837,140.092C23.543,140.386 23.912,140.627 24.657,140.627C25.402,140.627 26.743,139.895 27.638,139.001ZM32.598,133.553C33.006,133.145 31,132.854 27.903,132.872C24.929,132.89 22.372,133.27 22.221,133.717C21.881,134.724 31.58,134.57 32.598,133.553ZM9.182,114.531C8.54,113.888 7.86,113.881 6.785,114.506C5.469,115.271 5.579,115.381 7.682,115.403C9.43,115.421 9.837,115.185 9.182,114.531L9.182,114.531Z" style="fill:rgb(16,44,56);fill-rule:nonzero;"/>
                </g>
            </g>
        </g>
    </g>
    <rect x="-36.835" y="-63.281" width="2060.08" height="1263.58" style="fill:rgb(16,44,56);"/>
</svg>
