<?xml version="1.0" encoding="UTF-8" standalone="no"?>
<!DOCTYPE svg PUBLIC "-//W3C//DTD SVG 1.1//EN" "http://www.w3.org/Graphics/SVG/1.1/DTD/svg11.dtd">
<svg width="100%" height="100%" viewBox="0 0 500 500" version="1.1" xmlns="http://www.w3.org/2000/svg" xmlns:xlink="http://www.w3.org/1999/xlink" xml:space="preserve" xmlns:serif="http://www.serif.com/" style="fill-rule:evenodd;clip-rule:evenodd;stroke-linejoin:round;stroke-miterlimit:2;">
    <g id="path12" transform="matrix(1.72834,0,0,1.83737,49.6796,49.7712)">
        <path d="M26.46,216.998C18.246,214.442 10.869,203.627 6.988,188.451C3.231,173.763 -0.767,121.387 0.388,102C1.335,86.11 3.482,80.665 7.489,83.99C12.065,87.789 18.625,109.832 21.478,131C23.392,145.2 25.776,151.718 30.605,155.958C35.155,159.953 39.71,160.646 47.522,158.531C66.417,153.417 89.916,134.416 138.464,85C188.876,33.686 207.205,15.748 216.035,9.087C223.817,3.216 230.665,-0.668 231.595,0.262C231.804,0.47 230.709,2.409 229.162,4.57C227.616,6.732 217.418,21.1 206.5,36.5C154.359,110.05 119.017,154.186 88.38,184.013C71.805,200.15 63.534,206.552 51.5,212.563C41.864,217.377 32.824,218.978 26.46,216.998Z" style="fill:rgb(0,198,16);fill-rule:nonzero;"/>
    </g>
</svg>
