<?xml version="1.0" encoding="UTF-8" standalone="no"?>
<!DOCTYPE svg PUBLIC "-//W3C//DTD SVG 1.1//EN" "http://www.w3.org/Graphics/SVG/1.1/DTD/svg11.dtd">
<svg width="100%" height="100%" viewBox="0 0 500 500" version="1.1" xmlns="http://www.w3.org/2000/svg" xmlns:xlink="http://www.w3.org/1999/xlink" xml:space="preserve" xmlns:serif="http://www.serif.com/" style="fill-rule:evenodd;clip-rule:evenodd;stroke-linejoin:round;stroke-miterlimit:2;">
    <g transform="matrix(0.955162,0,0,1.11376,-179.86,-206.563)">
        <g id="Image">
            <path id="path30" d="M262.112,588.468C248.918,584.801 240.572,573.536 240.651,559.5C240.692,552.369 243.089,545.877 247.714,540.377C248.696,539.209 283.475,510.008 325,475.487C366.525,440.966 401.101,412.166 401.837,411.488C402.923,410.486 394.218,402.986 355.337,371.422C285.633,314.838 271.689,303.412 268.534,300.296C260.465,292.327 258.102,277.477 263.316,267.5C264.753,264.75 266.732,261.558 267.714,260.406C273.803,253.264 285.59,249.034 294.426,250.82C304.555,252.867 294.54,245.311 389.874,322.836C422.529,349.392 449.754,370.902 450.374,370.637C450.993,370.372 487.439,340.19 531.363,303.565C575.288,266.94 612.479,236.083 614.009,234.993C618.082,232.093 628.322,229.718 633.321,230.513C648.668,232.956 659.331,244.999 659.427,260C659.473,267.062 656.397,275.266 651.98,279.864C650.731,281.164 615.912,310.36 574.605,344.744C533.297,379.127 498.896,407.821 498.157,408.508C497.059,409.53 509.101,419.738 564.157,464.454C607.751,499.861 632.48,520.602 634.278,523.267C645.991,540.625 637.35,563.365 617.067,568.561C610.369,570.277 605.39,569.906 598.5,567.175C594.134,565.446 590.102,562.247 507.153,494.727C476.163,469.5 450.288,449.076 449.653,449.34C449.019,449.604 412.275,480.061 368,517.021C316.829,559.738 285.678,585.072 282.5,586.555C275.822,589.672 268.812,590.33 262.112,588.468Z" style="fill:rgb(255,0,0);fill-rule:nonzero;"/>
        </g>
    </g>
</svg>
